FluxischElse-Light.sfdir
StartChar: uni0024
Encoding: 36 36 5
Width: 589
GlyphClass: 2
Flags: W
LayerCount: 2
Fore
SplineSet
347 310 m 1
 345 312 340.999 311.999 334.999 311.999 c 0
 328.999 311.999 321.999 310.999 317.999 308.999 c 0
 312.999 306.999 310.999 304.999 308.999 298.999 c 0
 306.999 293.999 304.999 284.999 304.999 276.999 c 2
 303.999 269.999 303.999 251.999 303.999 236.999 c 2
 303.999 203.999 l 1
 303.999 174.999 l 1
 303.999 140.999 l 1
 304.999 134.999 303.999 120.999 303.999 109.999 c 0
 303.267 102.679 302.803 98.0381 302.803 94.8018 c 0
 302.803 89.1963 304.195 87.8037 307.999 84 c 0
 309.999 81 312.999 77 313.999 75 c 1
 313.999 73 318.999 70 323.999 68 c 0
 330.218 64.5449 333.095 63.4775 339.888 63.4775 c 0
 342.926 63.4775 346.747 63.6914 352 64 c 0
 364 65 372 66 375 68 c 0
 377 69 381 72 384 74 c 0
 387 76 395 79 401 82 c 0
 406 85 415 91 419 95 c 0
 425 100 428 103 428 107 c 0
 428 110 429 114 432 117 c 1
 439 128 l 2
 441 131 444 137 446 139 c 0
 450 144 450 147 450 179 c 0
 450 210 450 215 447 222 c 0
 445 227 443 233 443 236 c 0
 443 240 442 245 440 249 c 0
 438 253 433 259 429 263 c 1
 425 266 420 272 418 274 c 1
 417 277 412 280 407 283 c 0
 403 285 399 288 398 289 c 1
 398 290 394 293 391 296 c 1
 387 298 381 300 378 300 c 0
 375 300 370 302 367 304 c 0
 364 306 359 307 355 307 c 0
 352 307 348 308 347 310 c 1
244.999 654.999 m 0
 242.999 656.999 237.999 657.999 233.999 657.999 c 0
 228.999 657.999 223.999 656.999 219.999 653.999 c 0
 215.999 651.999 211.999 648.999 209.999 646.999 c 1
 208.999 643.999 205.999 642.999 202.999 642.999 c 0
 199.999 642.999 194.999 641.999 190.999 639.999 c 0
 186.999 637.999 182.999 633.999 180.999 631.999 c 0
 178.999 629.999 175.999 628.999 173.999 628.999 c 0
 172.999 628.999 168.999 625.999 166.999 622.999 c 0
 164.999 619.999 160.999 614.999 159.999 611.999 c 1
 157.999 608.999 155.999 604.999 154.999 603.999 c 2
 153.999 601.999 149.999 596.999 146.999 591.999 c 0
 142.738 584.898 141.503 582.84 141.503 569.353 c 0
 141.503 563.847 141.709 556.436 141.999 545.999 c 0
 141.999 516.999 141.999 508.999 143.999 505.999 c 0
 145.999 502.999 148.999 498.999 150.999 496.999 c 0
 152.999 493.999 155.999 488.999 157.999 483.999 c 0
 158.999 479.999 162.999 474.999 164.999 471.999 c 0
 166.999 469.999 168.999 465.999 168.999 463.999 c 0
 168.999 461.999 169.999 459.999 170.999 458.999 c 0
 172.999 456.999 174.999 455.999 176.999 455.999 c 0
 178.999 455.999 182.999 454.999 184.999 452.999 c 0
 187.999 450.999 190.999 448.999 193.999 448.999 c 1
 195.999 447.999 202.999 444.999 208.999 441.999 c 0
 214.999 438.999 219.999 435.999 219.999 434.999 c 0
 219.999 432.999 221.999 430.999 223.999 429.999 c 0
 225.999 428.999 233.999 428.999 244.999 428.999 c 0
 259.999 429.999 263.999 430.999 266.999 433.999 c 0
 268.999 435.999 270.999 438.999 270.999 440.999 c 0
 270.999 442.999 271.999 445.999 273.999 447.999 c 0
 275.999 450.999 275.999 454.999 274.999 463.999 c 0
 273.999 470.999 273.999 481.999 273.999 487.999 c 1
 274.999 493.999 276.999 501.999 277.999 504.999 c 1
 280.999 509.999 281.999 512.999 280.999 529.999 c 0
 279.999 543.999 278.999 550.999 276.999 553.999 c 0
 274.999 557.999 273.999 563.999 272.999 577.999 c 2
 272.999 618.999 l 2
 272.999 639.999 272.999 639.999 267.999 644.999 c 0
 264.999 647.999 259.999 649.999 255.999 650.999 c 0
 251.999 651.999 246.999 652.999 244.999 654.999 c 0
284.999 804.999 m 0
 287.999 807.999 292 810.997 293 810.997 c 0
 294 810.997 297 809.997 300 807.997 c 0
 305 803.997 305 803.997 304 789.997 c 0
 303 782.997 302 772.997 302 766.997 c 0
 301 758.997 302 755.997 305 749.997 c 0
 308 743.997 311 740.997 316 738.997 c 0
 320 737.997 325 734.997 327 733.997 c 1
 329 731.997 333 731.997 339 731.997 c 0
 346 731.997 349 730.997 352 728.997 c 0
 355 726.997 359 724.997 363 723.997 c 1
 366 723.997 371 721.997 374 719.997 c 1
 377 718.997 385 717.997 397 717.997 c 0
 410 716.997 416 715.997 419 713.997 c 0
 421 712.997 425 710.997 428 710.997 c 0
 431 710.997 436 708.997 440 706.997 c 0
 444 703.997 452 697.997 458 691.997 c 0
 464 686.997 474 676.997 480 669.997 c 0
 486 663.997 492 657.997 494 656.997 c 0
 496 655.997 498 653.997 498 651.997 c 0
 498 650.997 501 646.997 506 643.997 c 1
 510 639.997 515 633.997 518 627.997 c 0
 522 619.997 522 616.997 521 609.997 c 0
 520 601.997 521 600.997 524 597.997 c 0
 528 594.997 529 592.997 529 575.997 c 0
 528 557.997 528 557.997 523 552.997 c 0
 520 549.997 515 547.997 512 547.997 c 0
 510 547.997 497 547.997 485 546.997 c 0
 462 546.997 462 546.997 453 552.997 c 0
 448 555.997 442 560.997 440 562.997 c 0
 437 566.997 436 569.997 436 577.997 c 0
 436 583.997 435 588.997 432 594.997 c 1
 429 598.997 428 602.997 429 603.997 c 1
 429 604.997 428 607.997 426 609.997 c 0
 424 611.997 422 615.997 421 617.997 c 1
 421 620.997 418 623.997 416 626.997 c 0
 414 628.997 410 631.997 406 633.997 c 0
 403 635.997 398 640.997 396 643.997 c 0
 394 647.997 391 651.997 390 651.997 c 1
 388 652.997 385 652.997 382 652.997 c 0
 379 652.997 375 654.997 373 655.997 c 0
 370 658.247 367 659.372 355.562 659.372 c 0
 351.75 659.372 347 659.247 341 658.997 c 0
 326 658.997 313 658.997 312 657.997 c 0
 311 656.997 310 652.997 310 648.997 c 0
 310 643.997 308 635.997 306 628.997 c 0
 303 619.997 303 615.997 304 608.997 c 1
 304 603.997 305 596.997 304 593.997 c 1
 304 548.997 l 1
 304 492.997 l 2
 304.333 490.33 304.444 486.663 304.444 482.515 c 0
 304.444 474.219 304 463.996 304 455.996 c 0
 303 442.996 303 430.996 304 428.996 c 2
 304 426.996 308 420.996 313 415.996 c 0
 319 410.996 324 406.996 328 406.996 c 0
 333 405.996 335 403.996 338 398.996 c 0
 340 394.996 343 392.996 346 392.996 c 0
 348 392.996 353 391.996 357 389.996 c 0
 361 387.996 368 385.996 372 385.996 c 0
 376 385.996 382 384.996 385 382.996 c 0
 388 380.996 391 378.996 391 377.996 c 0
 391 376.996 394 373.996 397 371.996 c 0
 402 368.996 407 366.996 414 365.996 c 1
 420 365.996 427 363.996 429 361.996 c 1
 431 360.996 435 358.996 436 358.996 c 0
 438 358.996 442 356.996 444 354.996 c 0
 446 352.996 449 350.996 450 350.996 c 0
 451 350.996 454 349.996 457 347.996 c 0
 459 345.996 463 343.996 464 343.996 c 0
 465 343.996 470 340.996 475 337.996 c 0
 481 333.996 484 329.996 485 324.996 c 1
 487 319.996 489 316.996 491 315.996 c 0
 493 314.996 499 311.996 504 308.996 c 0
 509 304.996 515 299.996 518 296.996 c 1
 520 292.996 522 289.996 522 288.996 c 0
 522 287.996 525 283.996 528 279.996 c 0
 531 275.996 534 269.996 535 265.996 c 0
 536 261.996 538 254.996 539 250.996 c 1
 541 246.996 542 237.996 542 230.996 c 0
 542 223.996 543 215.996 544 212.996 c 0
 545.5 209.996 546.25 208.246 546.25 206.746 c 0
 546.25 205.246 545.5 203.996 544 201.996 c 0
 542 198.996 542.149 195.004 543 177.996 c 0
 544 157.996 544 156.996 540 153.996 c 0
 538 151.996 536 147.996 536 143.996 c 0
 536 140.996 535 135.996 532 131.996 c 0
 530 127.996 528 122.996 528 119.996 c 0
 528 117.996 525 110.996 522 106.996 c 0
 519 101.996 517 97.9961 517 96.9961 c 1
 517 96.9961 515 92.9961 512 88.9961 c 0
 509 84.9961 505 76.9961 502 71.9961 c 1
 500 66.9961 495 59.9961 493 56.9961 c 1
 490 54.9961 487 52.9961 485 52.9961 c 0
 484 52.9961 481 50.9961 479 48.9961 c 0
 477 46.9961 472 42.9961 467 40.9961 c 2
 457 36.9961 l 1
 456 36.9961 453 34.9961 450 31.9961 c 1
 446 29.9961 440 26.9961 436 25.9961 c 1
 432 25.9961 426 23.9961 424 21.9961 c 0
 422 19.9961 418 18.9961 415 18.9961 c 0
 413 18.9961 409 17.9961 407 15.9961 c 0
 405 12.9961 403 11.9961 396 12.9961 c 0
 389 13.9961 386 12.9961 372 5.99609 c 0
 357 -1.00391 356 -2.00391 344 -1.00391 c 0
 332 -0.00390625 331 -1.00391 324 -5.00391 c 0
 320 -8.00391 316 -13.0039 314 -15.0039 c 0
 311 -19.0039 311 -26.0039 310 -53.0039 c 0
 309 -80.0039 308 -87.0039 306 -88.0039 c 1
 305 -89.0039 303 -90.0039 301 -90.0039 c 0
 300 -90.0039 295 -88.0039 291 -86.0039 c 0
 283 -82.0039 283 -82.0039 282 -60.0039 c 0
 281 -49.0039 280 -37.0039 279 -34.0039 c 2
 279 -31.0039 277 -26.0039 276 -23.0039 c 0
 275 -18.0039 273 -16.0039 266 -12.0039 c 0
 261 -9.00391 256 -7.00391 255 -7.00391 c 0
 254 -7.00391 250 -6.00391 248 -4.00391 c 0
 244 -1.00391 242 -0.00390625 240 -2.00391 c 1
 238 -3.00391 232 -3.00391 226 -2.00391 c 0
 219 -1.00391 214 -0.00390625 211 2.99609 c 0
 207 5.99609 203 6.99609 196 6.99609 c 0
 189 6.99609 185 7.99609 182 9.99609 c 0
 180 11.9961 175 13.9961 173 13.9961 c 0
 170 13.9961 166 15.9961 163 17.9961 c 0
 160 19.9961 157 20.9961 155 19.9961 c 1
 153 19.9961 147 20.9961 142 22.9961 c 0
 137 24.9961 131 26.9961 129 27.9961 c 1
 127 29.9961 124 32.9961 123 34.9961 c 0
 121 37.9961 119 39.9961 117 40.9961 c 1
 116 40.9961 113 41.9961 110 41.9961 c 0
 108 41.9961 103 43.9961 100 46.9961 c 0
 97 49.9961 94 53.9961 94 55.9961 c 0
 94 57.9961 88 65.9961 82 72.9961 c 0
 74 80.9961 69 87.9961 69 89.9961 c 0
 69 91.9961 68 95.9961 66 97.9961 c 0
 64 100.996 61 105.996 59 109.996 c 0
 57 114.996 54 120.996 53 124.996 c 1
 51 127.996 49 134.996 47 138.996 c 0
 44 144.996 43 152.996 42 160.996 c 0
 42 167.996 41 174.996 40 175.996 c 0
 38.8281 177.168 38.3428 178.683 38.3428 180.54 c 0
 38.3428 181.854 38.585 183.339 38.999 184.996 c 0
 38.999 188.996 41.999 194.996 43.999 199.996 c 0
 45.999 203.996 49.999 207.996 51.999 208.996 c 1
 52.999 209.996 66.999 210.996 80.999 210.996 c 0
 89.418 211.362 95.291 211.595 99.5498 211.595 c 0
 106.927 211.595 109.463 210.898 111.999 208.996 c 0
 115.999 206.996 120.999 199.996 126.999 187.996 c 0
 134.999 171.996 135.999 167.996 135.999 158.996 c 0
 135.999 153.996 136.999 146.996 138.999 142.996 c 0
 139.999 139.996 140.999 134.996 140.999 132.996 c 0
 140.999 130.996 142.999 126.996 143.999 123.996 c 1
 145.999 120.996 148.999 114.996 150.999 109.996 c 0
 152.999 105.996 157.999 99.9961 160.999 96.9961 c 0
 163.999 94.9961 167.999 92.9961 168.999 92.9961 c 0
 170.999 92.9961 174.999 89.9961 177.999 86.9961 c 0
 180.999 83.9961 188.999 78.9961 193.999 76.9961 c 0
 198.999 74.9961 204.999 73.9961 205.999 73.9961 c 0
 207.999 73.9961 209.999 70.9961 211.999 67.9961 c 0
 213.999 64.9961 215.999 62.9961 218.999 62.9961 c 0
 221.999 62.9961 227.999 61.9961 233.999 59.9961 c 0
 239.999 57.9961 247.999 56.9961 251.999 56.9961 c 0
 259.999 56.9961 261.999 58.9961 268.999 65.9961 c 0
 274.999 71.9961 278.999 76.9961 279.999 81.9961 c 0
 280.999 85.9961 280.999 117.996 280.999 158.996 c 0
 279.999 196.996 279.999 230.996 279.999 232.996 c 1
 279.706 233.875 279.585 235.955 279.585 238.959 c 0
 279.585 246.212 280.292 258.854 280.999 272.997 c 0
 281.292 280.905 281.413 287.184 281.413 292.158 c 0
 281.413 304.169 280.706 308.583 279.999 309.997 c 1
 277.999 311.997 274.999 316.997 272.999 321.997 c 0
 269.999 327.997 266.999 331.997 262.999 333.997 c 0
 259.999 334.997 255.999 337.997 253.999 339.997 c 1
 251.999 340.997 248.999 341.997 245.999 341.997 c 0
 243.999 341.997 239.999 343.997 236.999 345.997 c 0
 234.999 347.997 229.999 349.997 225.999 350.997 c 0
 220.999 351.997 216.999 352.997 215.999 353.997 c 1
 214.999 355.997 211.999 355.997 208.999 355.997 c 0
 206.999 355.997 200.999 357.997 195.999 360.997 c 0
 191.999 362.997 185.999 364.997 182.999 364.997 c 0
 180.999 364.997 176.999 365.997 175.999 367.997 c 1
 173.999 368.997 169.999 369.997 167.999 369.997 c 0
 165.999 369.997 162.999 371.997 160.999 375.997 c 0
 158.999 378.997 156.999 380.997 155.999 379.997 c 1
 154.999 379.997 149.999 381.997 144.999 384.997 c 2
 139.999 386.997 134.999 389.997 133.999 389.997 c 0
 132.999 389.997 128.999 392.997 124.999 397.997 c 1
 119.999 401.997 115.999 405.997 113.999 405.997 c 0
 111.999 405.997 108.999 406.997 106.999 407.997 c 1
 105.999 408.997 101.999 413.997 97.999 417.997 c 1
 94.999 421.997 91.999 426.997 91.999 428.997 c 0
 91.999 429.997 88.999 433.997 84.999 436.997 c 0
 80.999 439.997 74.999 445.997 70.999 449.997 c 0
 65.999 453.997 63.999 457.997 63.999 460.997 c 0
 63.999 463.997 61.999 469.997 59.999 474.997 c 1
 56.999 479.997 53.999 489.997 51.999 496.997 c 0
 49.999 506.997 48.999 517.997 48.999 541.997 c 0
 48.999 568.997 48.999 573.997 51.999 576.997 c 0
 53.999 579.997 54.999 582.997 54.999 583.997 c 0
 54.999 585.997 56.999 589.997 58.999 592.997 c 0
 60.999 596.997 63.999 603.997 66.999 609.997 c 1
 68.999 615.997 70.999 620.997 70.999 622.997 c 0
 70.999 623.997 72.999 628.997 75.999 632.997 c 0
 78.999 636.997 81.999 642.997 83.999 646.997 c 0
 85.999 650.997 90.999 657.997 95.999 662.997 c 0
 100.999 668.997 106.999 672.997 109.999 673.997 c 1
 112.999 673.997 116.999 675.997 118.999 676.997 c 1
 120.999 678.997 121.999 680.997 121.999 681.997 c 0
 121.999 682.997 123.999 685.997 127.999 688.997 c 0
 130.999 690.997 135.999 694.997 139.999 696.997 c 0
 143.999 698.997 150.999 701.997 155.999 704.997 c 0
 162.999 708.997 165.999 708.997 177.999 708.997 c 0
 189.999 708.997 192.999 709.997 195.999 712.997 c 0
 197.999 714.997 201.999 715.997 205.999 715.997 c 0
 208.999 715.997 216.999 717.997 223.999 719.997 c 0
 229.999 721.997 238.999 722.997 243.999 722.997 c 0
 250.999 722.997 254.999 724.997 260.999 728.997 c 0
 264.999 731.997 271.999 736.997 274.999 739.997 c 0
 280.079 744.352 281.473 745.546 281.473 755.811 c 0
 281.473 759.69 281.273 764.866 280.999 771.998 c 0
 280.69 780.032 280.477 785.584 280.477 789.627 c 0
 280.477 798.667 281.544 800.162 284.999 804.999 c 0
EndSplineSet
Validated: 33
EndChar
StartChar: uni0030
Encoding: 48 48 17
Width: 615
GlyphClass: 2
Flags: W
LayerCount: 2
Fore
SplineSet
307 687 m 0
 304 685 299 685 289 686 c 0
 279 687 274 687 268 685 c 0
 263 684 255 682 250 682 c 1
 244 681 240 680 238 678 c 0
 236 676 234 674 232 674 c 0
 230 674 227 673 225 672 c 0
 222 671 219 667 217 664 c 0
 214 660 209 655 206 652 c 1
 202 650 198 645 197 643 c 0
 196 640 192 635 188 631 c 1
 184 628 179 622 177 618 c 0
 175 615 171 611 170 609 c 1
 167 607 167 605 168 598 c 0
 169 590 168 587 165 581 c 1
 163 575 162 569 162 560 c 0
 161 550 161 547 157 542 c 0
 153 537 153 536 154 518 c 0
 155 500 155 498 151 493 c 0
 149 490 148 486 148 481 c 0
 148 476 147 472 144 469 c 0
 140 466 140 463 139 440 c 0
 139 418 139 414 142 406 c 0
 146 398 146 393 146 377 c 0
 146 363 147 357 148 353 c 1
 150 349 151 347 150 343 c 1
 149 341 148 333 148 326 c 1
 149 319 148 311 147 309 c 0
 146 307 145 301 145 298 c 0
 145 294 146 284 148 276 c 0
 149 268 151 260 153 258 c 0
 155 255 158 249 159 245 c 0
 161 240 162 235 161 226 c 0
 160 217 160 213 163 208 c 1
 164 205 167 199 168 195 c 0
 169 190 169 185 169 183 c 1
 168 181 170 174 174 163 c 0
 178 154 183 144 185 142 c 1
 189 134 l 2
 190 131 193 127 197 123 c 2
 200 119 207 113 212 109 c 0
 217 104 220 100 220 97 c 0
 220 94 222 92 226 89 c 0
 231 85 234 85 239 85 c 1
 245 86 246 86 249 82 c 1
 253 78 254 78 275 78 c 0
 286 78 299 79 303 80 c 0
 309 81 312 80 314 79 c 0
 316.196 77.5361 318.929 76.6084 325.335 76.6084 c 0
 327.68 76.6084 330.517 76.7324 334 77 c 0
 345 78 353 80 355 81 c 0
 358 83 365 85 371 86 c 0
 381 87 383 88 388 94 c 1
 392 97 398 104 402 108 c 1
 406 111 410 116 410 118 c 1
 411 120 416 127 422 133 c 1
 427 140 433 148 435 153 c 0
 437 157 440 164 441 168 c 0
 442 173 444 180 444 184 c 0
 445 190 446 193 450 197 c 0
 454 201 455 203 455 211 c 0
 455 217 456 222 458 225 c 0
 460 228 461 233 461 249 c 2
 461 274 l 1
 460 276 460 281 461 285 c 2
 461 289 463 296 465 299 c 0
 468 306 469 310 469 338 c 2
 469 375 l 2
 469 378 469 387 468 396 c 0
 468 405 466 414 465 418 c 1
 463 422 462 435 461 458 c 0
 461 477 460 495 460 498 c 0
 460 502 459 507 457 510 c 0
 454 515 453 518 454 537 c 0
 454 558 454 560 450 570 c 0
 447 576 443 582 441 584 c 0
 439 586 438 588 439 592 c 1
 439 595 437 601 430 615 c 0
 424 625 416 638 411 644 c 0
 405 651 398 656 392 659 c 0
 385 663 380 664 370 665 c 0
 359 665 356 666 353 669 c 0
 351 671 347 673 345 673 c 0
 342 673 336 675 330 679 c 0
 325 683 319 687 316 688 c 1
 313 688 309 688 307 687 c 0
315 752 m 0
 320 754 327 754.001 329 754.001 c 1
 332 753.001 340 753.001 347 752.001 c 2
 355 752.001 360 751.001 363 748.001 c 0
 366 746.001 369 745.001 372 746.001 c 1
 375 746.001 378 745.001 385 738.001 c 0
 394 730.001 394 730.001 408 731.001 c 0
 421.005 731.93 423 732.001 426 729.001 c 0
 428 727.001 433 724.001 436 723.001 c 0
 441 722.001 444 719.001 446 716.001 c 0
 448 713.001 455 707.001 462 701.001 c 0
 469 695.001 475 690.001 477 690.001 c 0
 478 690.001 482 687.001 485 684.001 c 0
 488 680.001 491 675.001 492 672.001 c 0
 493 669.001 495 666.001 497 666.001 c 1
 499 665.001 501 660.001 502 654.001 c 1
 504 648.001 506 642.001 508 640.001 c 0
 511 637.001 511 633.001 511 623.001 c 0
 511 610.001 511 610.001 524 598.001 c 0
 534 590.001 538 584.001 540 580.001 c 1
 541 575.001 541 570.001 540 562.001 c 0
 539 556.001 538 547.001 539 542.001 c 2
 539 537.001 540 531.001 541 528.001 c 0
 542 526.001 542 522.001 542 520.001 c 1
 541 517.001 542 514.001 544 513.001 c 1
 545 511.001 546 508.001 546 503.001 c 0
 546 499.001 548 492.001 551 487.001 c 0
 555 480.001 555 476.001 555 469.001 c 2
 555 455.001 l 1
 555 441.001 l 2
 555 434.001 556 430.001 559 426.001 c 0
 560.902 423.465 561.599 421.732 561.599 418.511 c 0
 561.599 416.65 561.366 414.294 561 411 c 0
 561 407.667 560.556 399 560.556 388.852 c 0
 560.556 383.777 560.667 378.333 561 373 c 2
 561 320 l 2
 561 298 560 295 557 289 c 0
 554 284 553 281 554 274 c 0
 555 270 555 263 555 259 c 0
 555 255 555 247 554 241 c 2
 554 233 552 229 550 226 c 1
 547 224 546 220 546 213 c 0
 546 207 545 200 544 196 c 0
 543 192 542 185 541 181 c 2
 541 177 538 172 536 169 c 0
 534 166 532 162 532 160 c 0
 532 158 532 156 531 155 c 1
 530 155 529 152 529 149 c 0
 529 146 527 141 526 137 c 1
 524 134 520 128 517 125 c 0
 514 122 510 118 507 116 c 0
 503 114 501 110 500 106 c 0
 499 103 496 97 493 92 c 0
 490 87 482 78 476 71 c 0
 470 65 466 59 466 58 c 0
 466 57 462 53 457 50 c 0
 452 46 445 41 442 38 c 0
 439 35 435 33 434 34 c 0
 433 35 430 33 427 31 c 0
 424 29 417 27 412 26 c 1
 407 26 399 23 394 20 c 0
 389 17 383 14 380 13 c 1
 377 11 375 11 371 12 c 0
 368 13 362 14 359 13 c 2
 356 13 350 10 346 8 c 1
 342.667 5.33301 340.667 4.44434 338.223 4.44434 c 0
 337 4.44434 335.667 4.66699 334 5 c 0
 330 6 319 7 310 6 c 0
 294 6 291 6 285 9 c 0
 280 12 275 13 259 13 c 0
 242 13 239 14 234 17 c 1
 232 19 227 21 224 21 c 0
 221 21 217 23 213 27 c 0
 209 31 204 34 202 34 c 0
 200 34 195 36 192 37 c 0
 188 38 184 40 182 41 c 0
 180 42 175 44 171 46 c 0
 168 48 162 51 160 53 c 0
 158 55 154 56 153 56 c 0
 151 56 147 58 144 61 c 0
 141 63 137 68 136 72 c 1
 134 76 130 82 127 85 c 0
 124 88 120 91 117 91 c 1
 115 92 114 93 114 95 c 0
 114 96 114 99 115 100 c 1
 116 102 115 104 113 107 c 1
 111 108 108 112 105 115 c 0
 102 119 99 124 98 131 c 1
 96 137 92 146 89 151 c 0
 86 156 82 164 82 168 c 1
 81 171 80 176 78 178 c 1
 77 180 76 185 75 189 c 1
 75 193 73 199 72 204 c 0
 71 208 70 215 69 218 c 0
 67 222 67 229 67 233 c 2
 67 247 l 1
 68 252 67 260 67 266 c 0
 67 272 65 279 63 282 c 0
 60 286 60 292 60 327 c 0
 60 348 59 371 58 377 c 0
 57 384 56 391 55 393 c 0
 54 396 53 409 53 422 c 0
 53 435 54 450 54 454 c 1
 55 458 57 463 58 467 c 0
 60 472 60 473 57 480 c 0
 53 489 53 489 57 497 c 0
 61 505 62 508 61 518 c 0
 61 527 61 531 65 538 c 0
 67 543 69 549 69 555 c 0
 69 560 70 566 71 568 c 1
 73 570 74 576 74 582 c 0
 74 592 75 595 78 599 c 0
 81 602 83 605 83 607 c 0
 83 608 84 612 86 617 c 0
 88 621 91 626 92 627 c 1
 94 628 96 633 98 639 c 0
 100 645 103 650 106 653 c 0
 109 655 111 658 111 659 c 0
 111 660 113 664 116 667 c 0
 119 671 121 674 121 675 c 0
 121 676 126 682 132 687 c 2
 153 707 l 2
 159 712 165 716 167 716 c 0
 168 716 172 718 174 721 c 0
 176 723 179 725 180 725 c 0
 182 725 185 727 187 730 c 0
 189 733 192 734 196 734 c 0
 199 734 202 735 203 736 c 1
 205 737 209 738 213 738 c 0
 218 738 223 739 228 742 c 0
 232 745 236 746 237 745 c 1
 238 745 242 746 247 748 c 0
 251 750 258 752 262 752 c 0
 267 753 279 752 289 752 c 1
 303 750 308 750 315 752 c 0
EndSplineSet
Validated: 33
EndChar
StartChar: uni0031
Encoding: 49 49 18
Width: 589
GlyphClass: 2
Flags: W
LayerCount: 2
Fore
SplineSet
315 724 m 0
 318.292 726.469 320.906 728.26 323.4 728.26 c 0
 323.938 728.26 324.469 728.177 325 728 c 0
 327 727 331 725 334 724 c 0
 336 723 339 720 339 719 c 1
 340 717 342 713 345 711 c 1
 349 706 349 706 350 669 c 0
 350 648 351 625 351 617 c 0
 350 606 351 601 353 598 c 0
 355 595 356 588 357 568 c 0
 357 543 357 541 353 534 c 0
 350 529 349 526 350 522 c 0
 351 519 352 514 354 511 c 1
 356 506 357 500 357 485 c 0
 357.293 482.071 357.414 478.542 357.414 474.764 c 0
 357.414 465.643 356.707 455.071 356 448 c 0
 355 438 353 427 351 425 c 1
 350 422 349 418 349 416 c 0
 349 415 351 411 353 409 c 0
 357 406 357 405 356 386 c 0
 356 373 355 363 352 357 c 1
 350 350 349 343 349 319 c 2
 349 287 l 1
 349 262 l 2
 350 246 350 240 353 236 c 0
 355 234 356 229 356 226 c 2
 356 121 l 2
 356.25 96.25 356.438 77.6875 356.438 63.6406 c 0
 356.438 21.5 354.75 20 348 14 c 0
 342.194 8.91992 340.075 7.52637 335.91 7.52637 c 0
 334.336 7.52637 332.469 7.72559 330 8 c 0
 326 8 317 9 311 10 c 0
 305 11 295 13 290 13 c 1
 284 14 278 15 277 16 c 0
 276 17 275 20 275 24 c 0
 275 27 274 32 273 34 c 0
 272 37 271 52 271 67 c 0
 270 83 270 100 270 105 c 0
 270 111 269 116 267 118 c 0
 265 120 264 125 264 132 c 2
 263 138 263 145 263 148 c 2
 263 261 l 2
 264 364 264 368 267 372 c 0
 270 375 270 379 271 400 c 0
 271 422 271 424 268 430 c 0
 264 436 264 438 264 503 c 0
 263 540 263 572 262 574 c 0
 261 577 262 582 263 586 c 0
 264 591 264 595 262 601 c 0
 261 606 258 609 256 611 c 1
 253 612 247 612 240 612 c 0
 231 611 228 610 225 607 c 0
 223 605 219 601 216 599 c 0
 213 597 209 595 208 595 c 0
 207 595 202 591 197 587 c 0
 192 582 186 577 183 576 c 0
 180 575 175 572 172 569 c 0
 169 567 164 563 161 561 c 0
 157 559 151 556 146 554 c 1
 141 553 135 551 133 551 c 0
 130 551 128 552 126 555 c 0
 123 559 123 562 123 581 c 0
 124 603 124 603 136 614 c 0
 142 620 149 625 152 626 c 1
 156 626 158 628 159 631 c 0
 160 634 163 637 165 638 c 0
 168 639 171 642 173 645 c 0
 175 649 180 653 187 656 c 0
 194 659 202 665 205 669 c 1
 209 673 213 676 215 676 c 0
 216 676 219 678 222 680 c 0
 225 682 230 683 234 684 c 1
 240 684 241 685 244 691 c 2
 252 703 l 1
 256 707 258 708 268 709 c 0
 276 710 282 712 285 715 c 0
 288 717 292 718 299 718 c 0
 307 718 310 719 315 724 c 0
EndSplineSet
Validated: 33
EndChar
StartChar: uni0036
Encoding: 54 54 23
Width: 574
GlyphClass: 2
Flags: W
LayerCount: 2
Fore
SplineSet
290 415 m 1
 287 417 281 417.999 275 418.999 c 0
 272.75 419.249 270.875 419.374 269.219 419.374 c 0
 264.25 419.374 261.25 418.249 256 415.999 c 0
 252 413.999 242 409.999 234 406.999 c 0
 226 403.999 218 401.999 215 401.999 c 0
 211 401.999 208 399.999 201 391.999 c 2
 191 379.999 l 1
 191 378.999 189 375.999 185 373.999 c 1
 182 370.999 179 368.999 179 367.999 c 1
 175 361.999 l 2
 172 358.999 169 354.999 167 351.999 c 1
 166 348.999 163 345.999 161 343.999 c 0
 159 341.999 157 336.999 156 326.999 c 0
 155 319.999 152 310.999 151 308.999 c 1
 149 306.999 148 302.999 148 300.999 c 0
 148 298.999 146 295.999 144 293.999 c 0
 142 291.999 141 289.999 141 287.999 c 0
 141 286.999 142 282.999 144 278.999 c 0
 146 275.999 148 269.999 149 266.999 c 0
 150 262.999 150 255.999 149 250.999 c 0
 148 245.999 148 238.999 149 234.999 c 2
 149 231.999 151 226.999 153 224.999 c 0
 155 221.999 156 218.999 155 203.999 c 0
 154 188.999 154 186.999 158 181.999 c 0
 160 179.999 162 175.999 162 173.999 c 0
 162 171.999 163 167.999 165 164.999 c 0
 167 161.999 170 154.999 171 148.999 c 0
 172 143.999 174 136.999 175 134.999 c 0
 176 132.999 180 127.999 183 124.999 c 0
 187 121.999 190 115.999 191 112.999 c 1
 193 109.999 195 106.999 197 105.999 c 0
 199 104.999 203 101.999 207 98.999 c 0
 211 95.999 216 92.999 218 92.999 c 0
 220 92.999 225 89.999 229 85.999 c 0
 236 78.999 236 78.999 245 79.999 c 0
 252 80.999 254 79.999 260 75.999 c 0
 266 70.999 266 70.999 299 69.999 c 0
 316 69.999 333 69.999 335 70.999 c 2
 337 70.999 342 74.999 346 77.999 c 0
 350 80.999 355 83.999 358 83.999 c 0
 360 83.999 363 85.999 365 87.999 c 1
 367 88.999 372 92.999 376 94.999 c 0
 379 95.999 386 101.999 390 106.999 c 0
 394 111.999 398 115.999 399 115.999 c 0
 400 115.999 403 117.999 406 119.999 c 0
 408 121.999 413 127.999 416 133.999 c 0
 419 138.999 422 144.999 422 146.999 c 0
 422 148.999 423 153.999 425 156.999 c 0
 428 162.999 428 166.999 428 177.999 c 0
 427 190.999 427 191.999 432 196.999 c 1
 436 202.999 436 202.999 435 221.999 c 0
 434 240.999 434 241.999 438 245.999 c 0
 441.056 248.291 442.36 249.999 442.36 252.461 c 0
 442.36 255.169 439.33 262.504 437 266 c 0
 435 270 434 274 435 281 c 1
 435 289 435 291 431 295 c 0
 428 298 428 301 428 314 c 0
 428 328 427 330 423 336 c 2
 416 350 l 1
 415 354 413 359 413 361 c 1
 411 364 410 365 405 365 c 0
 402 365 398 366 396 368 c 2
 393 369 392 371 392 372 c 0
 392 374 386 381 379 388 c 0
 372 396 363 404 359 406 c 0
 355 408 350 410 348 412 c 1
 344 414 339 414 319 414 c 0
 301 413 293 414 290 415 c 1
260 748.999 m 0
 263 751.999 267 751.999 294 751.999 c 0
 311 751.999 329 750.999 335 749.999 c 0
 340 748.999 348 746.999 351 745.999 c 0
 356 743.999 358 743.999 363 746.999 c 0
 368 749.999 370 749.999 373 747.999 c 1
 376 746.999 379 746.999 380 746.999 c 1
 382 747.999 384 745.999 385 742.999 c 1
 387 739.999 389 737.999 391 736.999 c 1
 392 735.999 396 736.999 399 737.999 c 0
 404 738.999 405 737.999 411 732.999 c 0
 416 727.999 419 726.999 425 726.999 c 0
 429 726.999 433 725.999 434 723.999 c 1
 436 721.999 437 718.999 438 715.999 c 0
 439 712.999 440 710.999 442 710.999 c 0
 444 710.999 447 709.999 449 707.999 c 1
 450 705.999 454 702.999 458 701.999 c 0
 461 700.999 464 698.999 465 696.999 c 1
 465 693.999 469 689.999 473 685.999 c 0
 477 681.999 480 677.999 480 674.999 c 0
 480 671.999 482 666.999 487 661.999 c 0
 492 655.999 494 651.999 494 647.999 c 0
 494 643.999 495 639.999 496 638.999 c 1
 498 637.999 499 633.999 499 630.999 c 0
 499 626.999 501 619.999 503 614.999 c 1
 506 610.999 508 603.999 508 599.999 c 0
 508 593.999 506 591.999 500 585.999 c 0
 495 580.999 490 577.999 486 576.999 c 1
 483 576.999 474 575.999 465 574.999 c 0
 451 574.999 449 574.999 444 578.999 c 0
 439 581.999 437 582.999 431 581.999 c 1
 425 581.999 424 581.999 418 588.999 c 0
 415 592.999 413 597.999 413 598.999 c 0
 413 600.999 412 602.999 410 603.999 c 1
 409 604.999 408 607.999 408 608.999 c 0
 408 610.999 406 613.999 404 616.999 c 0
 402 619.999 399 626.999 397 633.999 c 0
 395 640.999 392 647.999 390 650.999 c 0
 388 653.999 382 658.999 377 661.999 c 0
 372 664.999 366 668.999 364 670.999 c 0
 362 672.999 358 675.999 354 677.999 c 0
 351 679.999 347 680.999 345 680.999 c 0
 343 680.999 340 682.999 338 684.999 c 0
 335 686.999 331 687.999 324 687.999 c 0
 319 687.999 313 687.999 311 686.999 c 0
 308 685.999 301 685.999 293 686.999 c 0
 282 687.999 278 687.999 264 684.999 c 0
 256 682.999 246 678.999 242 677.999 c 1
 239 675.999 233 672.999 229 670.999 c 1
 225 669.999 220 667.999 218 666.999 c 0
 215 664.999 209 659.999 205 654.999 c 0
 200 649.999 197 644.999 197 644.999 c 1
 197 643.999 195 641.999 192 640.999 c 0
 190 639.999 185 632.999 181 623.999 c 0
 177 615.999 171 606.999 167 602.999 c 0
 164 599.999 159 595.999 158 593.999 c 1
 156 592.999 155 588.999 155 586.999 c 0
 155 584.999 153 579.999 151 576.999 c 0
 148 571.999 147 568.999 148 561.999 c 0
 149 554.999 149 551.999 146 546.999 c 0
 144 543.999 142 537.999 141 532.999 c 1
 141 527.999 139 521.999 137 518.999 c 1
 136 515.999 135 507.999 134 497.999 c 0
 134 487.999 133 477.999 131 472.999 c 0
 128 465.999 128 457.999 127 431.999 c 0
 127 405.999 127 399.999 129 397.999 c 0
 131 395.999 136 394.999 142 394.999 c 0
 149 394.999 154 395.999 160 398.999 c 0
 165 401.999 168 404.999 168 406.999 c 1
 169 408.999 171 412.999 174 414.999 c 2
 176 417.999 180 420.999 183 421.999 c 0
 186 422.999 189 425.999 191 428.999 c 0
 194 432.999 198 436.999 205 439.999 c 0
 211 442.999 219 449.999 224 454.999 c 0
 229 458.999 234 463.999 235 463.999 c 0
 236 463.999 239 464.999 241 466.999 c 0
 244 468.999 249 470.999 253 471.999 c 1
 257 471.999 267 472.999 274 471.999 c 1
 282 471.999 288 472.999 291 474.999 c 1
 294 475.999 299 477.999 301 477.999 c 0
 304 477.999 310 479.999 316 481.999 c 1
 324 485.999 326 486.999 329 484.999 c 0
 331 482.999 335 480.999 338 479.999 c 0
 342 477.999 347 476.999 359 477.999 c 0
 375 479.999 375 478.999 379 474.999 c 0
 382 471.999 385 470.999 391 470.999 c 0
 395 470.999 399 469.999 400 468.999 c 0
 401 467.999 403 465.999 404 462.999 c 1
 406 459.999 410 457.999 414 456.999 c 0
 418 455.999 422 453.999 424 451.999 c 1
 426 450.999 428 449.999 430 450.999 c 1
 436 450.999 l 1
 439 449.999 444 446.999 447 443.999 c 0
 451 440.999 455 434.999 457 431.999 c 0
 459 427.999 462 424.999 463 424.999 c 0
 465 424.999 468 422.999 470 420.999 c 0
 472 418.999 477 411.999 480 405.999 c 2
 484 400.999 487 394.999 487 392.999 c 0
 487 391.999 489 387.999 492 384.999 c 0
 495 381.999 498 376.999 498 373.999 c 1
 502 365.999 l 1
 504 363.999 506 359.999 506 355.999 c 1
 507 351.999 511 344.999 514 339.999 c 0
 521 329.999 521 329.999 521 310.999 c 0
 520 293.999 520 291.999 524 284.999 c 0
 528 278.999 528 276.999 528 244.999 c 0
 527 212.999 527 209.999 523 203.999 c 0
 520 198.999 520 195.999 520 183.999 c 0
 521 171.999 521 169.999 518 167.999 c 0
 516 166.999 514 163.999 514 159.999 c 1
 513 155.999 512 150.999 510 148.999 c 1
 509 145.999 508 140.999 508 137.999 c 0
 508 133.999 506 128.999 504 126.999 c 1
 503 123.999 501 119.999 500 117.999 c 0
 499 115.999 497 112.999 494 110.999 c 0
 492 108.999 489 104.999 488 100.999 c 0
 487 97.999 482 91.999 478 86.999 c 0
 473 81.999 469 75.999 468 72.999 c 1
 468 69.999 465 67.999 463 66.999 c 0
 461 65.999 451 56.999 441 46.999 c 0
 431 36.999 420 27.999 414 24.999 c 0
 409 22.999 404 20.999 402 20.999 c 0
 399 20.999 396 18.999 393 15.999 c 0
 391 13.999 388 11.999 386 12.999 c 1
 385 12.999 380 12.999 375 10.999 c 2
 370 9.99902 363 6.99902 358 5.99902 c 0
 354 4.99902 347 4.99902 343 4.99902 c 0
 338 5.99902 327 5.99902 318 5.99902 c 0
 303 5.99902 300 4.99902 297 1.99902 c 0
 294 -0.000976562 291 -1.00098 282 -1.00098 c 0
 274 -1.00098 270 -0.000976562 266 2.99902 c 0
 263 4.99902 257 6.99902 251 6.99902 c 1
 246 7.99902 238 8.99902 234 10.999 c 0
 229 12.999 224 14.999 223 16.999 c 1
 221 17.999 217 19.999 213 19.999 c 0
 209 19.999 203 21.999 199 23.999 c 0
 196 25.999 191 27.999 189 27.999 c 0
 187 27.999 184 28.999 182 30.999 c 1
 180 31.999 177 32.999 175 32.999 c 0
 173 32.999 169 34.999 168 36.999 c 1
 166 38.999 161 41.999 156 44.999 c 0
 152 46.999 145 49.999 141 51.999 c 0
 136 54.999 133 57.999 132 60.999 c 0
 131 63.999 128 67.999 126 70.999 c 0
 124 72.999 120 78.999 118 84.999 c 0
 115 91.999 112 95.999 108 97.999 c 0
 105 98.999 100 102.999 97 105.999 c 0
 93 109.999 91 112.999 91 117.999 c 0
 91 120.999 89 127.999 87 133.999 c 0
 85 138.999 81 144.999 78 146.999 c 1
 76 149.999 74 152.999 74 155.999 c 0
 74 158.999 73 161.999 71 162.999 c 1
 70 163.999 67 168.999 65 172.999 c 0
 62 178.999 62 181.999 63 185.999 c 1
 65 189.999 64 194.999 63 200.999 c 0
 62 205.999 60 210.999 59 212.999 c 0
 58 214.999 57 223.999 56 232.999 c 0
 55 240.999 54 250.999 54 253.999 c 1
 55 257.999 55 270.999 54 283.999 c 0
 54 301.999 54 308.999 51 312.999 c 1
 49 317.999 49 324.999 48 352.999 c 0
 48 386.999 48 387.999 52 391.999 c 0
 54 393.999 56 397.999 56 399.999 c 0
 56 401.999 54 407.999 51 413.999 c 0
 47.5449 420.218 46.4775 423.095 46.4775 427.248 c 0
 46.4775 429.105 46.6914 431.218 47 433.999 c 0
 48 440.999 50 445.999 53 448.999 c 0
 56 451.999 56 453.999 55 458.999 c 0
 54 462.999 54 475.999 55 489.999 c 0
 55 507.999 57 514.999 59 519.999 c 0
 61 523.999 62 529.999 62 538.999 c 0
 62 546.999 63 551.999 65 553.999 c 0
 67 555.999 69 560.999 71 564.999 c 1
 72 569.999 74 574.999 74 575.999 c 0
 74 577.999 76 580.999 78 582.999 c 0
 80 584.999 83 589.999 83 592.999 c 1
 84 596.999 86 601.999 88 604.999 c 0
 90 607.999 91 611.999 91 612.999 c 0
 91 613.999 93 616.999 95 619.999 c 0
 97 622.999 98 626.999 98 633.999 c 0
 98 641.999 99 642.999 103 645.999 c 1
 106 646.999 110 652.999 114 660.999 c 0
 120 671.999 121 672.999 127 673.999 c 0
 130 674.999 135 676.999 138 678.999 c 0
 141 680.999 144 684.999 145 687.999 c 0
 146 690.999 149 695.999 153 699.999 c 2
 156 703.999 162 709.999 165 712.999 c 0
 169 715.999 175 721.999 179 724.999 c 0
 185 729.999 187 730.999 196 730.999 c 0
 201 730.999 208 731.999 213 733.999 c 0
 217 735.999 223 736.999 227 736.999 c 1
 231 737.999 237 739.999 242 741.999 c 0
 247 743.999 252 745.999 254 745.999 c 0
 256 745.999 259 747.999 260 748.999 c 0
EndSplineSet
Validated: 33
EndChar
StartChar: uni0038
Encoding: 56 56 25
Width: 579
GlyphClass: 2
Flags: W
LayerCount: 2
Fore
SplineSet
286 357 m 1
 285 358 280 360 277 360 c 0
 275.828 360.293 274.57 360.414 273.328 360.414 c 0
 270.328 360.414 267.414 359.707 266 359 c 0
 264 358 254 358 244 357 c 2
 222 357 l 1
 221 356 216 354 212 351 c 1
 208 347 202 344 195 342 c 0
 188 341 183 338 179 334 c 1
 175 331 170 327 167 326 c 1
 164 324 161 321 160 320 c 1
 160 318 159 315 160 314 c 1
 160 314 159 311 156 309 c 1
 154 306 151 302 149 300 c 1
 148 297 147 293 147 290 c 0
 147 288 144 280 140 273 c 0
 134 264 132 258 132 251 c 1
 131 244 130 240 127 238 c 1
 125 235 124 232 124 223 c 0
 124 213 125 209 128 204 c 0
 131 199 133 194 134 185 c 0
 134 178 136 171 138 168 c 1
 139 164 140 160 139 155 c 1
 139 150 139 146 142 141 c 0
 144 138 145 132 145 129 c 0
 145 124 147 121 152 116 c 0
 155 113 162 108 167 106 c 0
 172 104 179 99 184 95 c 0
 188 91 195 86 200 84 c 2
 204 81 209 79 211 79 c 0
 212 79 216 77 219 74 c 1
 223 72 227 70 231 70 c 0
 234 70 239 69 241 68 c 0
 245 66 255 65 280 65 c 0
 289.5 64.5 300 64.25 309.125 64.25 c 0
 318.25 64.25 326 64.5 330 65 c 0
 342 65 347 66 350 69 c 1
 352 70 355 72 357 72 c 0
 358 72 362 73 364 75 c 0
 367 77 370 79 371 79 c 0
 372 79 376 81 378 83 c 1
 389 90 l 1
 392 91 400 98 406 105 c 2
 413 111 421 121 423 125 c 0
 426 130 430 137 432 141 c 0
 434 145 436 152 437 156 c 0
 438 160 439 169 440 174 c 1
 440 180 442 187 444 190 c 1
 445.464 193.66 446.392 196.784 446.392 204.08 c 0
 446.392 206.751 446.268 209.98 446 214 c 0
 446 224 445 236 444 240 c 0
 443 243 441 251 440 255 c 1
 440 260 438 267 436 271 c 0
 434 275 432 280 431 283 c 1
 429 285 427 289 426 291 c 0
 425 294 423 297 422 299 c 2
 416 311 l 2
 413 316 410 320 408 321 c 1
 405 321 402 321 400 320 c 1
 398 320 396 320 394 323 c 2
 386 331 l 1
 382 333 377 335 374 335 c 0
 370 335 368 337 366 339 c 0
 364 342 362 343 351 344 c 0
 342 344 335 345 331 348 c 0
 327 350 322 351 320 351 c 0
 318 351 313 352 309 354 c 0
 305 356 300 356 296 356 c 1
 292 355 288 356 286 357 c 1
297 700 m 0
 294 701 290 702 289 702 c 0
 287 702 286 702 285 701 c 1
 285 701 281 700 277 700 c 2
 274 699 266 698 261 697 c 0
 256 696 246 695 238 694 c 0
 230 694 221 692 214 689 c 0
 207 686 199 682 194 679 c 0
 190 676 182 669 176 664 c 1
 171 658 165 651 164 647 c 1
 162 644 159 640 158 639 c 1
 156 638 154 636 153 633 c 0
 152 631 149 624 146 617 c 0
 143 610 140 601 139 595 c 0
 138 590 136 584 134 581 c 0
 131 577 131 575 132 567 c 0
 133 562 135 557 136 556 c 0
 139 553 140 551 139 545 c 0
 138 539 139 536 143 528 c 0
 145 523 148 518 150 516 c 0
 151 515 152 511 152 508 c 0
 152 505 154 501 157 497 c 0
 160 494 164 489 167 486 c 0
 169 483 173 477 174 473 c 0
 175 469 176 465 177 464 c 0
 178 463 182 461 186 460 c 0
 190 459 195 457 197 455 c 0
 199 453 201 450 202 448 c 0
 203 445 206 443 215 441 c 0
 222 439 228 437 230 437 c 0
 231 437 236 436 241 434 c 0
 246 432 258 430 272 428 c 0
 284 427 300 426 307 426 c 0
 315 425 322 426 324 428 c 1
 327 429 335 432 344 434 c 0
 354 437 360 439 364 443 c 0
 367 446 371 451 373 454 c 1
 374 457 378 462 381 464 c 0
 384 467 390 473 393 477 c 0
 397 482 401 489 403 493 c 0
 405 498 410 504 413 508 c 1
 417 512 419 516 419 519 c 0
 419 522 421 526 423 529 c 0
 426 533 426 535 426 567 c 0
 425 597 424 601 421 605 c 0
 419 608 418 611 419 612 c 1
 419 613 415 623 410 634 c 0
 404 645 397 658 393 663 c 0
 389 667 384 672 381 674 c 0
 379 675 374 679 371 682 c 0
 368 686 364 688 362 688 c 0
 361 688 357 690 354 692 c 0
 350 695 347 696 340 695 c 0
 335 694 325 695 317 695 c 1
 310 696 301 698 297 700 c 0
324 761 m 0
 324.5 761.5 325.499 761.749 326.624 761.749 c 0
 327.749 761.749 328.999 761.499 329.999 760.999 c 1
 332.999 760.999 339.999 759.999 344.999 758.999 c 0
 350.999 757.999 357.999 755.999 361.999 753.999 c 0
 364.999 752.999 371.999 751.999 375.999 751.999 c 0
 380.999 751.999 386.979 748.953 397.999 743.999 c 0
 406.982 739.961 413.999 734.999 416.999 730.999 c 0
 419.999 726.999 422.999 724.999 425.999 724.999 c 0
 428.999 724.999 431.999 723.999 433.999 721.999 c 0
 435.999 719.999 438.999 717.999 440.999 717.999 c 0
 442.999 717.999 446.999 714.999 450.999 710.999 c 0
 453.999 707.999 459.999 702.999 463.999 700.999 c 0
 466.999 699.999 473.999 694.999 477.999 690.999 c 0
 481.999 686.999 485.999 681.999 485.999 680.999 c 0
 485.999 678.999 486.999 675.999 488.999 673.999 c 0
 490.999 671.999 493.999 665.999 494.999 659.999 c 2
 496.999 654.999 497.999 647.999 497.999 643.999 c 0
 497.999 638.999 498.999 635.999 501.999 631.999 c 1
 504.999 629.999 506.999 625.999 506.999 623.999 c 0
 506.999 622.999 509.999 614.999 512.999 607.999 c 0
 518.999 594.999 518.999 593.999 517.999 583.999 c 0
 517.999 577.999 516.999 572.999 516.999 571.999 c 1
 517.999 570.999 517.999 565.999 517.999 560.999 c 1
 518.999 554.999 517.999 550.999 515.999 547.999 c 0
 513.999 545.999 511.999 540.999 511.999 535.999 c 0
 511.999 530.999 510.999 526.999 507.999 522.999 c 0
 504.999 518.999 503.999 513.999 503.999 511.999 c 0
 503.999 509.999 501.999 504.999 500.999 500.999 c 1
 498.999 496.999 490.999 486.999 480.999 476.999 c 2
 457.999 453.999 l 2
 453.999 449.999 447.999 443.999 442.999 439.999 c 0
 438.999 436.999 433.999 433.999 432.999 433.999 c 0
 431.999 433.999 424.999 427.999 417.999 419.999 c 0
 406.999 408.999 404.999 405.999 404.999 400.999 c 0
 404.999 397.999 406.999 392.999 408.999 388.999 c 0
 411.999 383.999 414.999 380.999 418.999 379.999 c 0
 421.999 378.999 425.999 376.999 427.999 374.999 c 0
 428.999 373.999 431.999 371.999 432.999 371.999 c 0
 433.999 371.999 436.999 368.999 439.999 365.999 c 1
 441.999 361.999 445.999 359.999 447.999 359.999 c 0
 449.999 359.999 454.999 357.999 457.999 354.999 c 0
 460.999 352.999 464.999 350.999 467.999 350.999 c 0
 469.999 350.999 471.999 349.999 472.999 348.999 c 0
 473.999 347.999 474.999 345.999 474.999 344.999 c 0
 474.999 342.999 480.999 336.999 486.999 329.999 c 0
 493.999 322.999 499.999 314.999 500.999 310.999 c 0
 501.999 307.999 502.999 302.999 502.999 301.999 c 1
 503.999 300.999 506.999 295.999 511.999 290.999 c 0
 517.999 284.999 521.999 278.999 522.999 273.999 c 0
 523.999 268.999 527.999 262.999 529.999 259.999 c 0
 533.416 256.582 534.965 255.033 534.965 251.842 c 0
 534.965 250.363 534.633 248.532 534 245.999 c 0
 533 241.999 533 228.999 533 217.999 c 0
 531.545 201.991 534.393 192.729 534.393 190.746 c 0
 534.393 188.784 533.464 186.928 532 184 c 0
 530 181 528 174 526 161 c 0
 525 150 523 141 522 140 c 1
 520 139 519 136 519 133 c 0
 519 131 518 127 516 125 c 1
 514 124 512 121 512 119 c 0
 512 117 510 111 506 105 c 2
 503 98 498 92 496 90 c 0
 495 89 493 85 493 83 c 0
 493 80 491 78 488 76 c 0
 485 74 481 70 479 67 c 1
 478 64 472 58 466 54 c 0
 461 50 455 47 454 47 c 0
 453 47 449 44 444 39 c 0
 440 35 435 31 434 31 c 0
 432 31 426 29 420 26 c 0
 413 23 407 21 402 21 c 0
 396 21 394 20 391 16 c 1
 387 12 386 12 376 12 c 0
 369 12 363 11 357 9 c 1
 350 5 346 5 333 5 c 0
 319 6 317 5 314 2 c 0
 311 -1 309 -1 276 -1 c 0
 242 -1 240 -1 236 3 c 0
 233 6 230 7 221 7 c 0
 216 7 209 8 207 9 c 0
 204 11 197 12 190 12 c 0
 180 12 177 13 174 16 c 0
 172 18 169 19 167 19 c 0
 164 19 160 21 157 24 c 0
 154 26 150 28 148 28 c 0
 146 28 140 30 134 32 c 1
 129 35 123 39 121 41 c 0
 119 44 117 47 117 49 c 0
 117 51 115 55 111 58 c 0
 108 61 102 66 98 69 c 0
 94 72 90 76 89 78 c 0
 88 80 87 84 86 86 c 1
 86 89 84 92 82 92 c 1
 80 93 76 97 73 104 c 0
 70 110 67 118 65 121 c 0
 63 124 60 131 58 136 c 0
 56 140 54 147 54 152 c 0
 54 156 52 163 50 168 c 0
 48 173 47 180 47 188 c 0
 47 195 46 202 45 204 c 0
 44 205.5 43.5 207 43.5 209 c 0
 43.5 211 44 213.5 45 217 c 0
 46 223 48 230 50 233 c 1
 52 238 53 243 53 252 c 1
 52 259 53 267 54 270 c 0
 55 273 59 278 63 281 c 0
 67 284 72 290 75 298 c 0
 78 304 81 312 81 315 c 1
 82 318 83 323 84 327 c 0
 85 331 87 334 88 334 c 1
 88 334 92 336 95 339 c 0
 98 342 102 344 103 344 c 0
 104 344 109 348 115 353 c 1
 120 359 128 364 131 366 c 0
 135 368 142 374 148 380 c 0
 154 387 158 393 158 395 c 0
 158 398 157 402 157 405 c 0
 157 408 154 413 150 418 c 0
 146 422 138 429 133 435 c 0
 128 440 119 446 115 448 c 0
 109 451 103 456 97 464 c 0
 92 470 87 476 87 477 c 0
 87 478 84 483 80 487 c 0
 76 492 73 496 73 498 c 0
 73 499 71 503 69 506 c 0
 64 511 64 512 66 518 c 0
 68 524 68 526 64 538 c 0
 60 549 59 554 60 562 c 0
 60 567 61 573 61 575 c 0
 61 577 61 585 60 594 c 0
 60 602 61 609 62 611 c 2
 62 612 64 617 65 621 c 1
 65 626 68 635 71 641 c 0
 74 648 77 654 77 657 c 0
 77 659 79 665 82 670 c 0
 85 675 94 686 102 694 c 0
 110 702 119 711 122 713 c 0
 127 717 130 718 136 718 c 0
 142 718 144 718 146 721 c 0
 148 724 150 725 152 725 c 0
 154 725 159 728 162 731 c 0
 166 734 175 740 183 743 c 2
 190 747 200 750 204 751 c 0
 208 752 218 752 227 752 c 0
 240 751 243 752 249 755 c 0
 256 759 260 759 290 759 c 0
 308 760 323 760 324 761 c 0
EndSplineSet
Validated: 33
EndChar
StartChar: uni003A
Encoding: 58 58 27
Width: 376
GlyphClass: 2
Flags: W
LayerCount: 2
Fore
SplineSet
170 130 m 0
 172 132 176 133 185 133 c 0
 192 133 199 132 201 131 c 1
 203 131 208 129 213 129 c 1
 219 128 225 127 227 125 c 0
 230 123 233 118 234 114 c 0
 235 110 237 103 239 100 c 0
 241 96 241 89 241 77 c 0
 241 67 240 59 239 56 c 1
 237 54 235 50 233 49 c 1
 232 48 229 43 227 39 c 0
 225 35 222 31 220 30 c 0
 218 29 205 27 191 27 c 0
 169 27 164 27 158 30 c 2
 154 31 148 36 145 39 c 0
 141 44 139 47 140 50 c 1
 140 52 141 61 142 69 c 0
 143 79 142 87 141 90 c 0
 140 93 140 98 140 102 c 1
 141 106 144 111 149 116 c 0
 154 121 159 125 162 126 c 1
 165 126 168 128 170 130 c 0
181 513 m 0
 197 513 212 514 213 514 c 0
 214 514 219 512 224 508 c 0
 233 502 234 502 234 493 c 1
 235 487 237 482 239 478 c 1
 241.343 475.071 242.313 473.515 242.313 471.521 c 0
 242.313 470.112 241.828 468.485 241 466 c 0
 240 462 238 458 237 457 c 0
 235 455 234 451 235 443 c 0
 235 432 234 430 230 424 c 0
 227 420 223 417 218 416 c 1
 213 414 202 414 188 414 c 0
 168 415 166 415 162 419 c 0
 160 421 155 424 151 424 c 1
 148 425 144 427 143 428 c 1
 142 430 141 436 141 443 c 0
 141 453 140 457 138 461 c 0
 136 464 134 469 134 473 c 0
 134 478 135 481 138 484 c 0
 140 486 142 490 142 492 c 0
 142 494 142 498 143 500 c 2
 143 502 145 506 147 508 c 0
 152 513 152 513 181 513 c 0
EndSplineSet
Validated: 33
EndChar
StartChar: uni004B
Encoding: 75 75 44
Width: 735
GlyphClass: 2
Flags: W
LayerCount: 2
Fore
SplineSet
177 730 m 0
 178.5 730.5 180.25 730.749 181.75 730.749 c 0
 183.25 730.749 184.5 730.499 185 729.999 c 1
 187 728.999 189 726.999 190 725.999 c 0
 192 723.999 194 722.999 197 722.999 c 0
 199 722.999 203 720.999 206 716.999 c 0
 209 713.999 211 709.999 211 707.999 c 0
 211 706.999 213 703.999 214 701.999 c 0
 216 697.999 217 686.999 217 630.999 c 0
 217 576.999 218 563.999 220 559.999 c 0
 221 557.999 222 555.999 221 552.999 c 1
 220 551.999 219 541.999 219 531.999 c 0
 219 521.999 218 511.999 217 510.999 c 1
 216 508.999 216 500.999 217 492.999 c 0
 218 484.999 218 475.999 217 471.999 c 0
 216 467.999 217 465.999 221 461.999 c 1
 225 458.999 225 456.999 224 453.999 c 1
 224 451.999 223 443.999 223 436.999 c 0
 224 426.999 225 422.999 227 421.999 c 1
 228 419.999 232 418.999 235 418.999 c 0
 240 418.999 242 420.999 245 423.999 c 0
 247 426.999 250 429.999 251 431.999 c 1
 253 433.999 256 434.999 258 434.999 c 0
 261 434.999 266 437.999 270 441.999 c 0
 274 445.999 279 448.999 280 448.999 c 0
 282 448.999 286 451.999 290 454.999 c 1
 302 466.999 l 2
 305 468.999 310 472.999 312 473.999 c 0
 314 474.999 319 477.999 322 480.999 c 0
 325 483.999 330 485.999 334 486.999 c 0
 338 487.999 341 489.999 345 496.999 c 0
 349 502.999 353 506.999 359 509.999 c 0
 363 511.999 371 516.999 375 520.999 c 0
 379 525.999 384 531.999 386 535.999 c 0
 388 539.999 391 544.999 394 545.999 c 0
 396 546.999 399 547.999 401 547.999 c 0
 403 547.999 407 549.999 409 553.999 c 0
 412 557.999 417 563.999 422 565.999 c 1
 426 568.999 429 571.999 429 572.999 c 1
 429 572.999 431 575.999 434 577.999 c 0
 437 580.999 440 582.999 441 582.999 c 0
 443 582.999 447 585.999 450 588.999 c 0
 453 591.999 457 594.999 458 594.999 c 0
 459 594.999 461 598.999 463 602.999 c 0
 465 607.999 468 612.999 469 614.999 c 1
 471 615.999 475 618.999 479 621.999 c 0
 483 623.999 489 627.999 493 631.999 c 0
 496 634.999 504 642.999 511 648.999 c 0
 517 653.999 525 659.999 527 659.999 c 1
 530 660.999 534 663.999 537 665.999 c 1
 539 668.999 542 672.999 542 674.999 c 0
 542 676.999 544 680.999 546 683.999 c 0
 549 686.999 554 690.999 558 692.999 c 0
 565 695.999 566 697.999 567 702.999 c 0
 568 707.999 570 710.999 576 714.999 c 0
 581 718.999 585 721.999 587 721.999 c 0
 588 721.999 591 722.999 594 724.999 c 0
 597 726.999 602 728.999 605 729.999 c 1
 610 729.999 614 729.999 620 725.999 c 0
 629 720.999 629 720.999 639 723.999 c 0
 645 724.999 653 727.999 657 728.999 c 0
 663 729.999 665 729.999 670 728.999 c 1
 673 726.999 676 724.999 677 722.999 c 0
 678 720.999 678 717.999 677 713.999 c 0
 676 710.999 675 705.999 675 702.999 c 0
 675 698.999 674 695.999 670 691.999 c 1
 666 688.999 662 683.999 660 680.999 c 0
 657 677.999 651 672.999 646 670.999 c 0
 641 668.999 637 665.999 637 665.999 c 1
 637 664.999 634 660.999 631 656.999 c 0
 628 651.999 624 646.999 622 644.999 c 1
 621 641.999 617 638.999 613 637.999 c 0
 610 636.999 600 630.999 591 624.999 c 0
 582 617.999 573 611.999 572 609.999 c 0
 571 607.999 569 603.999 567 600.999 c 0
 564 596.999 561 594.999 556 593.999 c 0
 553 592.999 546 590.999 542 587.999 c 0
 537 584.999 534 580.999 531 575.999 c 1
 529 570.999 526 565.999 524 563.999 c 0
 522 561.999 516 555.999 510 551.999 c 0
 505 547.999 499 541.999 498 538.999 c 1
 496 535.999 493 532.999 491 531.999 c 0
 489 530.999 486 529.999 484 529.999 c 0
 482 529.999 478 527.999 475 525.999 c 0
 472 523.999 466 518.999 461 515.999 c 0
 455 511.999 452 507.999 449 501.999 c 0
 446 495.999 443 492.999 439 489.999 c 1
 435 488.999 422 476.999 410 464.999 c 0
 398 452.999 386 442.999 384 441.999 c 0
 381 440.999 376 438.999 372 438.999 c 0
 366 437.999 365 436.999 362 430.999 c 0
 358 423.999 358 419.999 358 401.999 c 0
 358 381.999 358 381.999 368 371.999 c 0
 373 365.999 378 360.999 379 360.999 c 1
 379 360.999 384 357.999 388 352.999 c 0
 393 347.999 398 341.999 399 338.999 c 0
 400 335.999 404 330.999 407 328.999 c 2
 410 324.999 415 322.999 419 321.999 c 1
 423 321.999 428 318.999 430 316.999 c 0
 432 314.999 436 309.999 437 305.999 c 0
 439 299.999 442 296.999 447 293.999 c 0
 451 291.999 455 288.999 456 286.999 c 0
 457 283.999 461 281.999 464 280.999 c 1
 467 278.999 471 276.999 473 273.999 c 0
 475 271.999 477 267.999 477 266.999 c 0
 477 264.999 478 261.999 480 258.999 c 0
 482 256.999 484 252.999 484 250.999 c 0
 484 248.999 485 246.999 486 245.999 c 1
 488 244.999 492 241.999 496 239.999 c 0
 501 236.999 508 232.999 514 229.999 c 0
 519 226.999 526 220.999 530 216.999 c 0
 534 212.999 539 209.999 541 209.999 c 0
 543 209.999 546 208.999 547 207.999 c 0
 548 206.999 549 203.999 549 201.999 c 0
 549 198.999 551 196.999 553 196.999 c 1
 555 195.999 563 189.999 571 182.999 c 0
 580 175.999 587 167.999 589 165.999 c 1
 590 163.999 596 156.999 603 151.999 c 0
 610 145.999 615 140.999 615 139.999 c 0
 615 138.999 621 131.999 628 124.999 c 0
 636 116.999 643 110.999 646 110.999 c 1
 650 109.999 652 107.999 653 103.999 c 0
 654 100.999 659 94.999 663 90.999 c 0
 668 86.999 672 83.999 673 83.999 c 0
 675 83.999 679 80.999 684 75.999 c 0
 689 71.999 698 63.999 704 58.999 c 0
 710 52.999 717 44.999 719 40.999 c 0
 722 36.999 724 32.999 724 30.999 c 0
 724 28.999 726 26.999 727 25.999 c 0
 728 24.999 730 21.999 730 18.999 c 0
 730 14.999 728 12.999 722 8.99902 c 0
 717 4.99902 713 3.99902 705 3.99902 c 2
 700 2.99902 692 2.99902 688 2.99902 c 0
 683 2.99902 671 2.99902 659 3.99902 c 0
 648 3.99902 638 2.99902 636 1.99902 c 1
 634 1.99902 631 2.99902 627 6.99902 c 1
 623 9.99902 616 14.999 611 16.999 c 0
 604 20.999 601 22.999 598 29.999 c 0
 595 34.999 592 41.999 589 45.999 c 0
 587 48.999 585 51.999 584 51.999 c 0
 583 51.999 579 54.999 575 57.999 c 0
 570 61.999 566 65.999 566 68.999 c 0
 566 70.999 564 71.999 561 71.999 c 0
 559 71.999 557 72.999 555 75.999 c 0
 553 78.999 550 81.999 547 82.999 c 0
 544 83.999 541 88.999 539 92.999 c 0
 537 97.999 534 100.999 529 102.999 c 0
 525 104.999 522 107.999 522 107.999 c 1
 522 108.999 517 114.999 511 120.999 c 0
 505 126.999 497 133.999 493 134.999 c 2
 489 136.999 484 137.999 482 137.999 c 0
 479 137.999 476 138.999 475 140.999 c 1
 474 141.999 473 144.999 473 146.999 c 1
 472 149.999 469 154.999 466 157.999 c 0
 463 160.999 461 164.999 461 166.999 c 0
 461 167.999 457 172.999 453 177.999 c 0
 449 181.999 442 186.999 439 188.999 c 1
 434 190.999 425 197.999 417 206.999 c 0
 410 214.999 404 221.999 404 222.999 c 0
 404 223.999 404 225.999 402 228.999 c 0
 401 230.999 397 233.999 394 234.999 c 0
 391 235.999 385 239.999 382 241.999 c 0
 378 244.999 374 250.999 371 255.999 c 1
 369 261.999 365 265.999 361 268.999 c 0
 357 271.999 352 276.999 350 280.999 c 0
 348 284.999 344 290.999 342 292.999 c 0
 339 295.999 337 297.999 336 297.999 c 0
 335 297.999 330 301.999 325 307.999 c 2
 319 312.999 315 318.999 315 319.999 c 0
 315 321.999 311 327.999 305 332.999 c 0
 299 337.999 294 341.999 293 341.999 c 0
 291 341.999 289 344.999 287 347.999 c 0
 284 351.999 282 353.999 279 353.999 c 0
 276 353.999 272 357.999 266 364.999 c 0
 257 376.999 257 376.999 245 376.999 c 0
 236 376.999 232 375.999 229 373.999 c 0
 227 371.999 225 366.999 224 361.999 c 2
 222 356.999 222 349.999 222 345.999 c 0
 222 342.999 223 334.999 224 328.999 c 0
 226 319.999 226 318.999 223 314.999 c 0
 221 311.999 219 304.999 218 296.999 c 0
 217 287.999 218 283.999 220 279.999 c 0
 222 276.999 224 270.999 225 266.999 c 0
 226 261.999 227 257.999 227 256.999 c 1
 223 250.999 l 2
 221 248.999 218 242.999 218 238.999 c 0
 217 232.999 217 229.999 220 222.999 c 0
 224 214.999 224 211.999 225 153.999 c 2
 225 86.999 l 1
 225 63.999 l 1
 225 34.999 l 2
 225 27.999 225 20.999 224 17.999 c 0
 222 13.999 219 10.999 214 7.99902 c 0
 208 3.99902 206 3.99902 182 3.99902 c 0
 167 3.99902 155 4.99902 153 5.99902 c 0
 151 6.99902 147 9.99902 145 12.999 c 1
 141 15.999 140 19.999 138 32.999 c 0
 137 43.999 137 50.999 138 53.999 c 0
 139 55.999 139 67.999 138 81.999 c 0
 138 94.999 137 112.999 137 120.999 c 0
 138 128.999 138 141.999 138 148.999 c 0
 138 160.999 138 162.999 134 166.999 c 1
 131 170.999 130 172.999 131 180.999 c 0
 132 186.999 131 192.999 130 194.999 c 0
 129 197.999 129 200.999 131 205.999 c 0
 133 209.999 134 212.999 133 213.999 c 0
 132 214.999 132 235.999 131 258.999 c 2
 131 344.999 l 1
 131 391.999 l 1
 130 394.999 130 400.999 130 404.999 c 0
 130 409.999 131 423.999 131 437.999 c 0
 132 457.999 132 462.999 129 466.999 c 0
 128 468.499 127.5 469.499 127.5 470.624 c 0
 127.5 471.749 128 472.999 129 474.999 c 0
 130.902 477.535 131.599 481.679 131.599 495.584 c 0
 131.599 503.612 131.366 514.895 131 531 c 0
 131 559 130 585 130 588 c 0
 130 591 130 604 131 617 c 0
 131 630 132 641 133 642 c 1
 134 644 136 649 137 655 c 0
 138 661 139 671 138 676 c 2
 138 683 136 689 134 691 c 0
 132 694 131 697 131 699 c 0
 131 700 132 704 134 706 c 0
 136 709 138 712 138 714 c 0
 138 716 141 720 144 724 c 1
 150 730 150 730 161 729 c 0
 167 729 175 729 177 730 c 0
EndSplineSet
Validated: 33
EndChar
StartChar: uni004E
Encoding: 78 78 47
Width: 779
GlyphClass: 2
Flags: W
LayerCount: 2
Fore
SplineSet
128 731 m 2
 158.001 730.997 l 2
 173.001 730.997 177.001 729.997 181.001 726.997 c 0
 185.001 723.997 188.001 723.997 197.001 723.997 c 0
 205.001 723.997 210.001 722.997 216.001 719.997 c 0
 221.001 717.997 225.001 716.997 227.001 716.997 c 1
 228.001 717.997 230.001 717.997 233.001 716.997 c 1
 235.001 716.997 240.001 712.997 243.001 707.997 c 2
 247.001 703.997 249.001 697.997 249.001 694.997 c 0
 249.001 692.997 254.001 680.997 260.001 669.997 c 0
 266.001 658.997 270.001 647.997 270.001 646.997 c 0
 270.001 644.997 273.001 640.997 276.001 637.997 c 0
 278.001 635.997 282.001 629.997 284.001 625.997 c 0
 286.001 621.997 289.001 617.997 290.001 615.997 c 1
 292.001 614.997 293.001 612.997 293.001 611.997 c 0
 293.001 610.997 295.001 607.997 298.001 605.997 c 1
 300.001 602.997 304.001 598.997 305.001 595.997 c 1
 307.001 592.997 309.001 588.997 311.001 586.997 c 0
 314.001 583.997 314.001 581.997 314.001 576.997 c 1
 312.001 570.997 313.001 569.997 323.001 559.997 c 0
 331.001 550.997 334.001 547.997 334.001 542.997 c 0
 334.001 539.997 336.001 534.997 338.001 531.997 c 0
 340.001 528.997 342.001 524.997 342.001 523.997 c 0
 342.001 522.997 346.001 518.997 349.001 515.997 c 0
 353.001 511.997 356.001 507.997 356.001 505.997 c 0
 356.001 504.997 358.001 500.997 360.001 498.997 c 0
 363.001 494.997 363.001 490.997 363.001 484.997 c 0
 363.001 475.997 363.001 474.997 372.001 466.997 c 0
 378.001 460.997 381.001 456.997 382.001 452.997 c 1
 382.001 448.997 385.001 443.997 390.001 439.997 c 1
 395.001 433.997 397.001 431.997 397.001 426.997 c 0
 397.001 422.997 398.001 417.997 400.001 415.997 c 0
 402.001 413.997 405.001 409.997 407.001 408.997 c 1
 409.001 406.997 411.001 403.997 411.001 402.997 c 0
 411.001 401.997 414.001 395.997 419.001 389.997 c 0
 423.001 383.997 430.001 372.997 434.001 365.997 c 0
 439.001 356.997 441.001 350.997 441.001 346.997 c 1
 440.001 343.997 441.001 339.997 441.001 337.997 c 1
 442.001 335.997 445.001 332.997 448.001 330.997 c 1
 453.001 328.997 455.001 325.997 459.001 314.997 c 0
 462.001 305.997 466.001 299.997 470.001 295.997 c 1
 474.001 292.997 480.001 285.997 484.001 278.997 c 0
 487.001 272.997 490.001 266.997 490.001 264.997 c 0
 490.001 262.997 491.001 260.997 493.001 259.997 c 1
 494.001 258.997 495.001 255.997 495.001 252.997 c 0
 495.001 250.997 497.001 247.997 500.001 245.997 c 0
 503.001 243.997 504.001 241.997 504.001 238.997 c 0
 504.001 235.997 505.001 232.997 507.001 230.997 c 1
 509.001 229.997 512.001 223.997 514.001 217.997 c 0
 516.001 211.997 519.001 204.997 521.001 202.997 c 0
 523.001 199.997 525.001 196.997 525.001 195.997 c 0
 525.001 194.997 527.001 191.997 529.001 189.997 c 0
 531.001 186.997 532.001 183.997 531.001 182.997 c 1
 531.001 181.997 531.001 178.997 532.001 176.997 c 1
 533.001 175.997 536.001 173.997 538.001 172.997 c 0
 541.001 171.997 543.001 169.997 544.001 164.997 c 1
 546.001 160.997 548.001 155.997 550.001 153.997 c 0
 552.001 151.997 553.001 149.997 553.001 148.997 c 0
 553.001 147.997 556.001 141.997 559.001 135.997 c 0
 563.001 129.997 567.001 123.997 569.001 123.997 c 1
 571.001 122.997 577.001 121.997 581.001 121.997 c 0
 586.001 121.997 591.001 123.997 594.001 124.997 c 1
 598.001 127.997 599.001 129.997 600.001 141.997 c 0
 601.001 148.997 601.001 158.997 600.001 164.997 c 0
 599.001 169.997 599.001 175.997 599.001 177.997 c 2
 599.001 231.997 l 2
 599.367 249.2 599.6 260.643 599.6 268.433 c 0
 599.6 281.926 598.903 284.462 597.001 286.998 c 0
 594.001 290.998 594.001 290.998 597.001 298.998 c 0
 600.001 305.998 600.001 307.998 599.001 313.998 c 0
 598.001 317.998 598.001 320.998 599.001 323.998 c 1
 601.001 326.998 601.001 331.998 601.001 338.998 c 1
 600.001 344.998 600.001 373.998 600.001 401.998 c 0
 600.001 430.998 601.001 454.998 601.001 455.998 c 0
 601.001 456.998 600.001 463.998 600.001 470.998 c 0
 600.001 480.998 599.001 486.998 597.001 489.998 c 0
 595.001 492.998 594.001 497.998 594.001 504.998 c 0
 594.001 511.998 595.001 516.998 598.001 522.998 c 0
 601.001 530.998 601.001 530.998 597.001 536.998 c 1
 594.001 543.998 594.001 543.998 596.001 550.998 c 0
 599.001 557.998 599.001 558.998 597.001 561.998 c 0
 595.001 564.998 594.001 573.998 593.001 590.998 c 0
 592.001 612.998 592.001 614.998 588.001 618.998 c 1
 584.001 621.998 584.001 623.998 585.001 632.998 c 0
 585.001 638.998 586.001 660.998 586.001 681.998 c 0
 585.692 693.741 585.479 701.855 585.479 707.551 c 0
 585.479 720.285 586.546 720.926 590.001 722.999 c 0
 592.001 723.999 597.001 725.999 600.001 725.999 c 0
 604.001 725.999 608.001 726.999 610.001 727.999 c 0
 612.001 728.999 619.001 730.999 626.001 730.999 c 0
 630.001 731.666 632.778 731.999 634.927 731.999 c 0
 639.223 731.999 641 730.666 645 727.999 c 0
 649 725.999 653 722.999 654 722.999 c 0
 656 722.999 661 718.999 666 713.999 c 0
 676 704.999 676 704.999 674 692.999 c 0
 673 685.999 672 643.999 672 598.999 c 0
 671.707 583.472 671.586 569.84 671.586 558.242 c 0
 671.586 530.242 672.293 514.121 673 512 c 0
 674 510 676 507 676 507 c 1
 677 507 678 503 678 497 c 0
 678 492 679 486 680 485 c 0
 680.5 484.5 680.75 483.25 680.75 481.5 c 0
 680.75 479.75 680.5 477.5 680 475 c 0
 680 470 678 466 676 464 c 0
 672 461 672 459 672 430 c 0
 672 405 673 398 675 394 c 0
 677 391 678 387 678 385 c 0
 678 383 676 379 674 377 c 0
 671 373 671 370 671 357 c 0
 671 344 671 340 674 337 c 0
 677 334 678 329 678 325 c 0
 678 320 677 318 674 316 c 0
 672 315 671 312 671 307 c 0
 671 303 672 296 674 292 c 0
 677 286 678 279 679 252 c 0
 679.309 241.803 679.522 234.757 679.522 229.622 c 0
 679.522 218.141 678.455 216.219 675 210 c 0
 671 201 671 201 672 180 c 2
 672 156 l 1
 672 105 l 2
 672 67 671 56 669 53 c 1
 668 50 666 42 666 35 c 1
 665 28 663 21 662 20 c 0
 660 18 658 14 658 10 c 1
 657 7 655 3 654 2 c 0
 652 -1 646 -1 613 -1 c 0
 591 0 570 0 566 0 c 0
 561 1 559 2 556 6 c 0
 554 9 548 16 543 22 c 0
 537 29 534 35 534 38 c 0
 534 40 532 44 529 47 c 0
 526 50 522 57 519 64 c 0
 517 70 515 76 516 77 c 1
 516 78 511 84 505 90 c 0
 499 96 493 103 493 104 c 0
 493 106 491 110 488 114 c 1
 484 118 481 124 481 128 c 1
 480 131 478 136 476 138 c 0
 474 140 470 146 467 152 c 0
 464 158 461 163 460 164 c 0
 459 165 459 166 460 168 c 1
 460 169 457 175 453 181 c 0
 450 186 446 193 445 195 c 1
 445 197 442 203 440 208 c 1
 437 213 433 220 429 222 c 1
 425 226 423 229 423 232 c 0
 423 234 423 237 422 238 c 0
 421 239 419 240 417 241 c 1
 415 241 413 243 411 246 c 0
 410 248 409 253 409 257 c 0
 409 261 408 266 404 271 c 0
 401 275 399 279 399 280 c 0
 399 282 396 285 393 288 c 0
 390 291 388 295 388 297 c 0
 388 300 387 306 386 310 c 0
 384 317 382 320 374 326 c 0
 369 330 363 336 362 338 c 0
 361 340 360 345 360 349 c 0
 360 355 359 357 355 360 c 0
 351 362 347 368 344 376 c 0
 341 382 337 389 336 391 c 1
 334 393 331 399 328 406 c 0
 326 412 321 420 318 424 c 1
 314 428 311 434 311 436 c 0
 311 438 308 442 304 446 c 1
 300 449 296 455 295 458 c 0
 294 461 292 466 290 469 c 0
 288 471 285 478 283 483 c 0
 280 490 277 495 272 499 c 0
 268 503 264 507 263 511 c 1
 263 514 261 519 261 522 c 1
 260 525 257 530 253 534 c 0
 250 537 246 542 244 545 c 1
 243 548 242 552 242 555 c 0
 242 557 240 565 236 572 c 0
 233 579 226 588 220 593 c 1
 215 599 211 604 211 605 c 0
 211 606 209 608 208 609 c 0
 206 611 206 613 206 619 c 1
 207 626 207 627 202 632 c 0
 198 636 195 637 190 637 c 0
 186 637 182 637 182 636 c 1
 181 635 180 630 180 624 c 1
 179 618 177 612 175 609 c 0
 172 605 172 601 172 583 c 2
 172 519 l 2
 172.5 507.5 172.75 495 172.75 484.25 c 0
 172.75 473.5 172.5 464.5 172 460 c 0
 172 451 173 437 173 430 c 1
 174 423 176 415 177 413 c 1
 180 411 180 395 180 305 c 0
 180 247 181 196 182 192 c 0
 183 188 182 181 180 172 c 0
 177.105 158.976 177 158 179 151 c 1
 182 146 182 142 181 134 c 0
 180 128 180 100 180 72 c 0
 180 33 180 19 178 15 c 0
 177 12 173 7 170 4 c 0
 166 0 163 -1 155 -2 c 0
 149 -2 141 -3 137 -3 c 0
 135.66 -3.26758 134.464 -3.3916 133.373 -3.3916 c 0
 130.393 -3.3916 128.196 -2.46387 126 -1 c 2
 123 0 119 5 116 8 c 1
 114 12 110 16 108 17 c 1
 106 17 104 20 103 23 c 0
 101 27 101 40 101 72 c 0
 101 95 102 122 102 130 c 0
 101 138 101 198 101 264 c 0
 100 330 100 387 100 391 c 0
 100 394 100 403 101 409 c 1
 101 415 102 441 102 465 c 0
 102 490 101 511 101 513 c 1
 100 515 102 520 104 525 c 1
 107 530 109 536 109 539 c 0
 109 542 107 545 104 548 c 0
 100 552 100 553 100 565 c 2
 100 630 l 2
 101 658 101 685 101 690 c 0
 101 695 100 701 100 703 c 1
 99 706 100 710 107 719 c 0
 116 730 116 730 128 731 c 2
EndSplineSet
Validated: 33
EndChar
StartChar: uni004F
Encoding: 79 79 48
Width: 792
GlyphClass: 2
Flags: W
LayerCount: 2
Fore
SplineSet
371 684 m 1
 368 683 363 683 360 683 c 0
 357 683 351 684 348 684 c 1
 345 685 342 685 342 684 c 1
 341 683 337 682 333 683 c 0
 325 684 324 684 318 677 c 0
 314 673 310 670 308 670 c 0
 306 670 303 668 300 667 c 0
 298 666 293 664 289 663 c 0
 284 661 281 659 279 656 c 0
 278 654 275 651 273 650 c 0
 270 649 266 648 264 648 c 0
 261 648 259 647 257 642 c 0
 255 637 254 636 248 636 c 0
 242 636 240 635 236 630 c 0
 234 627 229 623 226 621 c 0
 223 619 219 614 217 610 c 0
 215 605 212 600 210 598 c 0
 208 596 203 587 199 578 c 0
 194 566 191 561 188 560 c 1
 185 558 182 555 182 553 c 1
 181 551 181 547 181 545 c 0
 181 542 180 539 178 538 c 1
 177 537 175 533 175 528 c 0
 175 523 174 519 172 516 c 0
 169 512 168 508 167 498 c 0
 167 488 166 484 164 481 c 1
 161 479 161 474 161 461 c 0
 160 449 160 442 157 438 c 1
 156 435 154 432 155 431 c 1
 155 430 154 421 153 410 c 0
 153 398 153 389 154 385 c 0
 155 382 156 374 156 368 c 0
 156 363 156 353 155 346 c 0
 154 340 153 334 152 333 c 1
 152 332 153 327 156 323 c 1
 159 316 160 311 160 299 c 0
 161 291 160 282 159 279 c 0
 158 275 159 272 162 267 c 0
 165 262 167 257 167 254 c 0
 167 251 169 245 171 239 c 1
 174 233 175 227 175 221 c 0
 175 216 177 210 178 208 c 1
 179 207 181 203 181 201 c 0
 181 199 182 194 184 190 c 0
 186 186 188 180 189 178 c 0
 190 175 194 170 197 166 c 0
 199 162 202 157 202 155 c 0
 202 152 204 148 206 145 c 0
 208 142 211 138 211 135 c 1
 212 133 215 128 218 126 c 0
 221 123 226 119 229 117 c 0
 231 115 234 112 234 110 c 0
 234 109 238 104 243 100 c 0
 248 97 252 93 253 93 c 1
 253 93 258 90 262 86 c 0
 267 82 274 78 277 76 c 1
 281 75 285 73 286 72 c 0
 288 70 292 69 295 68 c 0
 299 67 305 65 308 63 c 1
 311 62 316 60 320 60 c 0
 323 60 327 59 327 58 c 1
 328 57 332 57 335 57 c 0
 339 57 343 56 343 55 c 1
 344 54 346 53 348 53 c 0
 350 53 354 51 358 50 c 2
 362 48 368 46 372 46 c 0
 375 46 381 47 385 49 c 0
 389 52 396 53 411 54 c 0
 426 54 432 56 436 58 c 0
 440 61 445 61 458 61 c 0
 471 61 475 62 480 65 c 0
 484 68 489 69 494 69 c 0
 500 69 502 70 510 79 c 0
 516 85 521 88 524 88 c 0
 526 88 529 89 530 90 c 1
 531 92 531 94 531 96 c 1
 530 100 532 101 540 105 c 0
 548 109 551 111 552 116 c 1
 554 119 557 122 559 124 c 1
 561 125 567 130 572 134 c 0
 577 139 581 144 581 145 c 0
 581 147 584 151 588 155 c 0
 593 161 594 164 594 170 c 1
 595 175 596 179 599 182 c 1
 601 186 602 189 601 192 c 1
 601 195 601 200 602 204 c 0
 603 207 607 212 610 215 c 0
 614 219 616 221 616 229 c 1
 617 234 619 241 620 244 c 0
 621 248 624 254 626 258 c 0
 628 262 630 269 630 278 c 0
 630 285 630 294 629 297 c 0
 628 301 628 306 629 309 c 0
 630 312 630 324 630 336 c 0
 630 348 630 361 631 365 c 1
 631 375 l 2
 631 377 630 387 630 397 c 0
 629 411 628 416 626 419 c 0
 623 422 623 426 622 450 c 0
 622 473 621 479 619 482 c 0
 617 484 616 488 616 497 c 0
 616 507 615 510 612 517 c 1
 609 521 606 529 605 534 c 0
 603 540 600 547 598 550 c 0
 594 556 593 558 594 564 c 0
 595 570 595 571 592 572 c 1
 591 573 588 574 587 575 c 1
 585 575 583 577 582 579 c 0
 581 581 578 586 576 590 c 0
 574 594 569 600 565 603 c 1
 559 609 558 610 559 616 c 0
 560 619 560 624 559 626 c 1
 559 627 556 630 553 631 c 0
 551 632 547 635 546 637 c 0
 545 640 542 642 539 643 c 0
 534 644 532 647 527 654 c 0
 524 659 520 665 519 666 c 0
 516 669 511 669 498 670 c 0
 482 670 480 671 473 675 c 0
 467 679 465 680 462 679 c 0
 460 678 456 677 452 678 c 2
 448 678 442 680 438 682 c 0
 432.75 684.25 429.75 685.375 423.938 685.375 c 0
 422 685.375 419.75 685.25 417 685 c 0
 410 684 398 684 391 684 c 2
 371 684 l 1
333 746 m 0
 337 747 340.999 748 342.999 748 c 1
 344.999 749 350.999 747 355.999 745 c 0
 362.999 743 368.999 742 379.999 742 c 0
 391.999 742 394.999 742 398.999 745 c 0
 401.999 747 405.999 749 410.999 749 c 0
 414.999 749 419.999 747 422.999 745 c 0
 426.999 742 429.999 742 432.999 742 c 1
 435.999 743 440.999 743 442.999 742 c 0
 446.999 740 449.999 740 452.999 742 c 1
 456.999 743 460.999 743 468.999 742 c 1
 474.999 740 484.999 739 490.999 738 c 0
 498.999 737 501.999 736 504.999 732 c 0
 506.999 729 509.999 728 513.999 728 c 0
 517.999 728 522.999 727 526.999 725 c 2
 530.999 724 536.999 722 539.999 719 c 0
 541.999 717 546.999 715 549.999 715 c 0
 552.999 715 557.999 713 561.999 711 c 0
 564.999 709 571.999 706 576.999 704 c 0
 581.999 702 587.999 699 590.999 697 c 0
 592.999 695 594.999 693 594.999 692 c 0
 594.999 690 603.049 682.056 611.999 674 c 0
 621.999 665 632.999 655 636.999 650 c 0
 640.999 646 644.999 640 645.999 638 c 1
 645.999 636 648.999 631 652.999 628 c 0
 655.999 625 658.999 621 658.999 618 c 0
 658.999 616 660.999 611 662.999 608 c 0
 664.999 604 666.999 601 666.999 600 c 0
 666.999 599 669.999 595 673.999 591 c 1
 676.999 586 680.999 579 682.999 575 c 0
 684.999 571 686.999 565 686.999 563 c 0
 686.999 561 688.999 555 690.999 550 c 1
 693.999 545 697.999 538 698.999 536 c 0
 700.999 533 701.999 528 701.999 523 c 0
 701.999 519 702.999 513 703.999 511 c 1
 705.999 509 708.999 503 710.999 497 c 0
 712.999 491 714.999 484 714.999 479 c 0
 714.999 475 715.999 464 715.999 454 c 0
 716.999 438 716.999 435 720.999 431 c 0
 723.342 428.071 724.312 426.858 724.312 421.732 c 0
 724.312 418.108 723.827 412.527 722.999 403 c 0
 722.999 391 721.999 369 721.999 355 c 0
 722.999 341 721.999 328 721.999 326 c 1
 720.999 324 720.999 319 722.999 314 c 0
 723.898 310.404 724.394 308.223 724.394 306.365 c 0
 724.394 304.091 723.651 302.303 722 299 c 0
 720 295 718 286 717 276 c 0
 716 266 715 256 715 252 c 0
 715 249 713 244 711 241 c 0
 709 239 708 234 708 230 c 0
 708 227 706 219 704 214 c 0
 702 208 701 202 701 200 c 1
 702 198 699 194 694 188 c 0
 689 182 687 178 687 174 c 0
 687 171 684 164 681 157 c 0
 677 150 673 144 672 143 c 0
 670 141 667 137 666 134 c 1
 664 131 661 126 659 124 c 1
 657 123 655 119 655 117 c 0
 655 115 653 112 652 110 c 1
 650 108 648 105 648 103 c 0
 648 100 645 96 640 91 c 0
 635 87 628 80 624 76 c 0
 620 72 612 63 605 56 c 0
 597 48 592 44 589 44 c 0
 587 44 583 42 580 40 c 0
 577 37 572 34 569 33 c 0
 565 32 561 29 560 28 c 1
 559 26 556 25 554 25 c 0
 552 25 548 22 544 19 c 1
 540 15 535 12 530 11 c 0
 526 10 521 8 519 6 c 0
 517 4 514 3 509 4 c 1
 503 4 500 3 497 0 c 0
 494 -2 489 -3 485 -3 c 0
 481 -3 475 -5 472 -7 c 0
 468 -9 463 -10 461 -10 c 0
 459 -10 453 -10 447 -11 c 0
 441 -12 435 -12 433 -12 c 0
 431 -12 413 -11 394 -11 c 0
 365 -10 356 -10 348 -7 c 0
 340 -4 335 -4 323 -4 c 0
 313 -5 307 -4 304 -3 c 0
 302 -2 293 4 283 8 c 0
 269 16 264 18 255 18 c 0
 247 19 240 21 235 24 c 1
 230 26 225 28 224 28 c 0
 223 28 218 32 212 37 c 0
 207 42 200 46 196 48 c 0
 193 49 189 51 189 53 c 1
 188 55 183 60 177 65 c 0
 171 70 166 74 165 74 c 0
 164 74 161 77 158 81 c 0
 156 85 152 91 151 93 c 0
 150 96 147 100 145 102 c 0
 142 105 140 109 139 112 c 1
 137 115 135 119 132 121 c 0
 130 122 127 126 125 130 c 0
 123 134 120 139 118 143 c 0
 117 146 112 152 108 155 c 1
 103 160 102 163 102 167 c 0
 102 170 100 176 97 180 c 0
 95 184 92 193 91 199 c 0
 90 206 87 212 85 215 c 0
 82 218 81 220 81 221 c 1
 82 222 81 226 79 229 c 1
 77 235 77 237 79 242 c 0
 80 246 81 252 81 254 c 0
 81 258 79 261 76 264 c 0
 74 266 71 270 70 271 c 1
 69 274 69 276 72 280 c 0
 74 284 75 289 75 292 c 0
 75 295 74 301 72 304 c 0
 69 309 68 313 68 324 c 2
 68 402 l 2
 69 456 69 466 71 469 c 0
 73 472 75 479 75 488 c 0
 76 496 77 504 78 505 c 1
 80 506 81 510 81 514 c 0
 81 518 82 522 85 526 c 0
 87 528 90 533 92 536 c 0
 94 540 95 544 95 545 c 0
 95 547 97 551 99 554 c 0
 103 559 104 561 103 569 c 0
 102 575 103 578 105 581 c 0
 106 583 107 586 107 588 c 0
 107 590 109 594 111 596 c 0
 114 598 116 601 116 601 c 1
 116 602 119 608 124 613 c 1
 128 619 132 627 133 631 c 1
 135 634 139 641 142 645 c 1
 146 649 150 654 151 655 c 2
 165 669 l 2
 172 676 179 682 181 682 c 0
 183 682 190 686 196 692 c 0
 201 698 209 703 213 704 c 1
 227 711 l 2
 230 713 235 715 237 715 c 0
 240 715 248 717 255 719 c 0
 266 721 270 723 273 727 c 0
 275 729 278 732 281 734 c 1
 284 735 290 736 295 736 c 0
 301 736 305 737 309 741 c 1
 313 744 317 745 320 744 c 1
 323 744 329 745 333 746 c 0
EndSplineSet
Validated: 33
EndChar
StartChar: uni005D
Encoding: 93 93 62
Width: 387
GlyphClass: 2
Flags: W
LayerCount: 2
Fore
SplineSet
88 807 m 0
 94 815 94.001 815 134.001 815 c 0
 174.001 814 174.001 814 185.001 809 c 0
 191.001 806 198.001 803 200.001 803 c 2
 202.001 802 206.001 803 211.001 805 c 1
 217.001 809 220.001 809 229.001 808 c 0
 235.001 807 243.001 805 246.001 804 c 1
 249.001 802 252.001 797 254.001 792 c 0
 257.001 786 257.001 783 256.001 777 c 0
 255.001 772 254.001 767 255.001 766 c 1
 256.001 764 256.001 737 256.001 707 c 0
 255.635 687.967 255.402 675.498 255.402 666.995 c 0
 255.402 652.268 256.099 649.438 258.001 645 c 0
 260.001 642 262.001 636 262.001 633 c 0
 262.001 630 260.001 625 258.001 621 c 0
 256.001 616 255.001 612 256.001 609 c 1
 256.001 607 258.001 604 260.001 603 c 0
 263.001 602 264.001 600 263.001 586 c 0
 262.001 578 261.001 568 259.001 565 c 1
 258.001 561 257.001 555 256.001 550 c 0
 255.001 544 255.001 541 258.001 535 c 0
 260.001 531 262.001 523 263.001 512 c 0
 264.001 497 264.001 494 261.001 493 c 1
 260.001 493 258.001 491 258.001 489 c 2
 257.001 487 256.001 480 256.001 472 c 0
 255.001 460 256.001 458 259.001 454 c 0
 263.001 449 263.001 448 263.001 407 c 0
 263.001 376 262.001 364 261.001 362 c 1
 259.001 361 258.001 356 258.001 350 c 0
 258.001 343 259.001 339 262.001 336 c 1
 263.001 334 265.001 329 265.001 326 c 0
 265.001 322 264.001 318 261.001 315 c 0
 258.001 312 257.001 308 256.001 298 c 0
 255.001 286 255.001 285 260.001 276 c 0
 265.001 268 265.001 266 263.001 257 c 0
 262.001 251 262.001 242 264.001 229 c 0
 266.001 213 266.001 210 263.001 205 c 0
 261.001 201 261.001 198 262.001 195 c 0
 263.001 193 263.001 180 263.001 166 c 0
 264.001 152 264.001 129 264.001 116 c 2
 264.001 85 l 1
 264.001 36 l 2
 263.733 26.0859 263.609 18.3262 263.609 12.1816 c 0
 263.609 -4.60645 264.537 -9.33887 266.001 -12.999 c 1
 268.001 -15.999 269.001 -20.999 269.001 -22.999 c 0
 269.001 -25.999 268.001 -30.999 266.001 -34.999 c 1
 265.001 -38.999 264.001 -46.999 264.001 -54.999 c 0
 264.001 -61.999 264.001 -69.999 265.001 -70.999 c 0
 267.001 -72.999 266.001 -74.999 265.001 -76.999 c 0
 264.001 -78.999 262.001 -83.999 261.001 -86.999 c 1
 261.001 -89.999 257.001 -95.999 253.001 -99.999 c 0
 246.001 -106.999 246.001 -106.999 201.001 -107.999 c 2
 148.001 -107.999 l 2
 143.001 -107.999 131.001 -107.999 119.001 -106.999 c 0
 99.001 -105.999 99.001 -105.999 92.001 -98.999 c 1
 89.001 -94.999 86.001 -90.999 86.001 -88.999 c 0
 86.001 -87.999 86.001 -82.999 85.001 -79.999 c 0
 84.001 -73.999 85.001 -72.999 89.001 -68.999 c 0
 92.001 -65.999 97.001 -62.999 101.001 -61.999 c 2
 105.001 -59.999 111.001 -57.999 115.001 -56.999 c 2
 119.001 -54.999 124.001 -53.999 127.001 -53.999 c 0
 129.001 -53.999 135.001 -55.999 139.001 -58.999 c 0
 143.001 -61.999 148.001 -63.999 149.001 -63.999 c 0
 151.001 -63.999 158.001 -61.999 166.001 -59.999 c 1
 173.001 -56.999 183.001 -54.999 187.001 -54.999 c 0
 195.001 -54.999 195.001 -54.999 200.001 -43.999 c 0
 205.001 -32.999 206.001 -30.999 205.001 -22.999 c 0
 204.001 -17.999 204.001 -12.999 204.001 -10.999 c 2
 204.001 17.001 l 1
 204.001 46.001 l 2
 204.001 48.001 204.001 67.001 205.001 89.001 c 0
 205.001 110.001 204.001 134.001 204.001 142.001 c 0
 203.001 150.001 201.001 158.001 200.001 160.001 c 0
 198.001 163.001 197.001 169.001 197.001 185.001 c 0
 197.001 204.001 197.001 206.001 201.001 212.001 c 0
 204.001 217.001 206.001 222.001 206.001 227.001 c 0
 206.001 230.001 205.001 236.001 204.001 240.001 c 0
 203.001 243.001 201.001 250.001 200.001 254.001 c 0
 199.001 262.001 199.001 264.001 202.001 269.001 c 0
 204.001 273.001 206.001 278.001 206.001 283.001 c 0
 206.001 288.001 204.001 297.001 203.001 304.001 c 0
 201.001 311.001 200.001 323.001 199.001 332.001 c 0
 199.001 345.001 199.001 348.001 202.001 351.001 c 0
 205.001 355.001 205.001 357.001 205.001 409.001 c 0
 205.001 439.001 204.001 464.001 204.001 465.001 c 1
 204.001 465.001 202.001 468.001 201.001 470.001 c 1
 198.001 473.001 197.001 476.001 198.001 482.001 c 1
 198.001 487.001 200.001 495.001 201.001 500.001 c 0
 204.001 510.001 204.001 510.001 201.001 516.001 c 1
 197.001 521.001 197.001 524.001 197.001 610.001 c 2
 197.001 723.001 l 2
 196.001 747.001 196.001 748.001 192.001 751.001 c 0
 189.001 753.001 185.001 755.001 182.001 756.001 c 0
 178.001 757.001 170.001 758.001 160.001 757.001 c 0
 151.001 756.001 141.001 756.001 137.001 756.001 c 0
 134.001 756.001 123.001 756.001 113.001 757.001 c 0
 97.001 757.001 95.001 757.001 91.001 761.001 c 0
 88.001 764.001 86.001 768.001 85.001 771.001 c 0
 84.001 774.001 82.001 780.001 80.001 785.001 c 0
 78.7646 789.327 77.9102 791.361 77.9102 792.992 c 0
 77.9102 794 78.2363 794.854 79 796 c 0
 81 798 85 803 88 807 c 0
EndSplineSet
Validated: 33
EndChar
StartChar: uni0062
Encoding: 98 98 67
Width: 575
GlyphClass: 2
Flags: W
LayerCount: 2
Fore
SplineSet
308 450 m 1
 306 452 304 453 303 453 c 2
 303 453 300 453 298 452 c 0
 296 451 289 450 284 451 c 0
 276 452 271 451 263 448 c 0
 257 446 250 445 248 445 c 0
 245 445 241 443 239 442 c 0
 236 440 232 439 228 439 c 0
 223 439 220 439 216 434 c 0
 214 431 210 429 209 429 c 0
 208 429 203 425 198 421 c 0
 193 417 187 412 186 411 c 2
 184 410 180 405 176 400 c 0
 173 395 170 390 170 389 c 1
 170 389 168 383 165 377 c 2
 163 371 159 363 157 359 c 0
 155 355 154 350 155 349 c 1
 155 348 154 344 152 342 c 0
 148 337 148 335 148 319 c 0
 148 305 147 300 144 296 c 0
 142 292 141 286 140 253 c 2
 140 212 l 2
 140 210 140 202 141 194 c 0
 141 187 143 178 144 174 c 1
 146 171 147 165 148 160 c 0
 148 156 150 150 152 147 c 0
 154 144 156 140 156 138 c 0
 156 136 157 132 159 128 c 0
 161 124 162 119 162 115 c 1
 161 111 162 106 163 104 c 0
 164 102 166 100 167 100 c 0
 168 100 172 98 176 94 c 2
 180 91 188 83 195 78 c 0
 202 73 208 68 210 66 c 1
 211 64 215 62 219 61 c 1
 223 61 227 58 230 56 c 1
 232 53 236 50 239 48 c 0
 241 47 248 46 254 46 c 0
 259 46 266 45 269 43 c 0
 273 41 280 41 297 41 c 0
 314 41 320 41 322 43 c 1
 324 44 328 46 332 47 c 1
 336 47 341 50 344 52 c 0
 348 54 350 55 355 54 c 0
 360 53 362 54 365 57 c 0
 368 60 370 62 371 62 c 0
 372 62 376 65 381 68 c 0
 385 71 390 74 392 74 c 1
 394 75 398 79 401 85 c 0
 404 90 408 97 409 100 c 1
 411 103 414 108 417 111 c 0
 419 114 422 120 424 122 c 1
 425 125 427 130 427 134 c 1
 426 137 428 142 430 145 c 0
 432 149 432.91 155.008 434 167 c 0
 435 178 437 186 438 189 c 1
 441 194 441 201 441 246 c 0
 441 295 441 299 437 309 c 0
 435 314 433 321 433 323 c 0
 433 325 432 333 430 341 c 0
 428 348 424 360 421 368 c 1
 417 375 414 383 413 386 c 0
 412 389 410 393 410 396 c 1
 409 399 406 402 402 404 c 0
 398 406 394 409 393 411 c 1
 391 413 387 416 382 418 c 1
 377 422 374 424 373 429 c 0
 372 432 369 436 367 437 c 1
 365 439 360 439 346 438 c 0
 329 437 327 438 323 441 c 0
 320 443 316 445 314 445 c 1
 312 446 309 448 308 450 c 1
97 718 m 0
 101 720 105 722 107 722 c 0
 108 722 111 720 113 718 c 1
 114 715 117 714 118 714 c 1
 120 715 123 714 126 713 c 1
 129 711 131 709 131 708 c 0
 131 707 133 704 136 701 c 0
 141 696 141 696 141 662 c 0
 141 630 141 628 145 621 c 0
 149 613 149 613 145 605 c 0
 142 598 141 594 141 576 c 0
 140 556 140 555 145 546 c 0
 149 538 149 538 145 526 c 0
 141.545 518.399 140.478 514.618 140.478 506.079 c 0
 140.478 502.26 140.691 497.489 141 491 c 0
 141 472 142 467 144 463 c 0
 146 460 149 456 152 454 c 0
 155 452 159 450 162 450 c 0
 166 450 173 452 179 454 c 0
 185 456 196 461 203 466 c 0
 210 471 216 475 217 475 c 0
 219 475 220 476 221 477 c 0
 223 479 229 482 236 485 c 0
 242 487 251 489 254 490 c 1
 257 490 264 493 269 495 c 0
 274 497 279 499 280 499 c 0
 282 499 286 500 290 502 c 1
 294 503 302 504 308 504 c 1
 314 503 321 504 325 505 c 0
 330 506 332 506 341 502 c 0
 347 499 354 498 359 498 c 0
 362 498 370 497 375 497 c 1
 380 496 385 494 386 493 c 1
 387 491 389 490 391 490 c 0
 393 490 397 489 400 486 c 1
 404 484 410 481 415 479 c 1
 420 478 428 474 433 470 c 0
 438 466 443 461 444 458 c 0
 445 455 448 453 451 453 c 1
 455 452 461 447 469 439 c 0
 475 433 481 425 481 423 c 1
 482 420 486 416 490 413 c 0
 497 408 498 406 499 400 c 0
 500 394 502 391 504 389 c 1
 506 388 509 385 510 382 c 0
 511 380 512 373 512 367 c 0
 512 359 513 354 517 348 c 1
 519 343 521 336 521 332 c 0
 521 326 522 323 524 321 c 0
 526.667 319 527.556 317.444 527.556 299.148 c 0
 527.556 290 527.328 276.667 527 257 c 0
 525.983 196 526 196 521 187 c 0
 517 179 517 177 519 170 c 0
 520 166 520 159 519 154 c 2
 519 149 517 142 515 137 c 0
 514 133 511 127 509 123 c 0
 507 120 505 115 505 114 c 0
 505 113 503 109 499 106 c 1
 496 102 493 97 492 94 c 0
 491 91 489 86 486 81 c 0
 484 77 480 73 478 72 c 0
 476 71 474 69 474 68 c 0
 474 67 468 60 461 52 c 0
 453 45 446 39 444 39 c 0
 442 39 438 37 434 34 c 0
 431 31 426 28 425 28 c 0
 424 28 420 26 416 22 c 1
 412 19 408 16 407 16 c 0
 405 16 401 14 397 11 c 0
 393 8 386 5 382 5 c 1
 378 4 371 2 367 0 c 0
 360 -3 354 -3 327 -4 c 0
 310 -4 293 -5 291 -6 c 0
 289.17 -6.73242 287.876 -7.19629 286.726 -7.19629 c 0
 284.732 -7.19629 283.17 -5.80371 280 -2 c 0
 276 2 273 4 265 5 c 0
 260 5 253 7 250 8 c 0
 246 10 241 11 239 11 c 0
 235 11 232 13 228 17 c 1
 224 20 218 24 213 26 c 0
 209 28 204 30 204 32 c 1
 203 33 202 35 201 36 c 0
 200 37 197 37 194 37 c 0
 190 37 187 39 183 44 c 0
 177 50 176 50 164 51 c 0
 151 52 151 52 148 45 c 0
 146 41 144 35 143 30 c 0
 142 26 139 20 135 16 c 2
 132 12 127 7 125 6 c 0
 123 5 117 4 111 4 c 0
 105 4 97 4 93 5 c 0
 88 6 82 8 79 10 c 0
 76 13 73 17 72 19 c 0
 70 22 69 44 69 104 c 0
 68 149 68 188 68 192 c 2
 68 238 l 1
 68 284 l 2
 68 287 68 313 69 343 c 0
 69 372 70 405 70 416 c 0
 70 427 69 438 68 440 c 0
 67.5 441.5 67.25 443.25 67.25 445 c 0
 67.25 446.75 67.5 448.5 68 450 c 0
 69 453 69 485 69 522 c 0
 68 558 68 590 68 593 c 0
 68 596 69 608 69 620 c 0
 69 632 68 648 68 656 c 0
 68 663 68 675 69 683 c 0
 69 690 70 700 72 703 c 2
 73 706 75 710 76 711 c 1
 76 712 80 713 83 713 c 0
 87 713 93 715 97 718 c 0
EndSplineSet
Validated: 33
EndChar
StartChar: uni0063
Encoding: 99 99 68
Width: 486
GlyphClass: 2
Flags: W
LayerCount: 2
Fore
SplineSet
244 505 m 1
 249 505 255.001 505.999 258.001 505.999 c 0
 261.001 505.999 267.001 504.999 271.001 502.999 c 0
 276.001 499.999 283.001 498.999 308.001 498.999 c 0
 338.001 497.999 338.001 497.999 349.001 490.999 c 0
 358.001 484.999 362.001 483.999 366.001 484.999 c 1
 368.001 484.999 372.001 484.999 374.001 483.999 c 0
 376.001 482.999 378.001 479.999 379.001 478.999 c 1
 379.001 476.999 384.001 472.999 388.001 469.999 c 0
 393.001 466.999 398.001 463.999 399.001 463.999 c 0
 400.001 463.999 403.001 461.999 407.001 457.999 c 0
 410.001 454.999 415.001 450.999 418.001 448.999 c 0
 422.001 445.999 424.001 442.999 425.001 438.999 c 1
 425.001 434.999 428.001 430.999 431.001 427.999 c 0
 434.001 425.999 437.001 420.999 439.001 414.999 c 0
 440.001 409.999 443.001 402.999 445.001 399.999 c 0
 448.001 394.999 447.93 392.003 447.001 373.999 c 0
 445.918 353.003 446.001 352.999 437.001 347.999 c 0
 430.001 343.999 426.001 342.999 410.001 341.999 c 0
 394.001 340.999 389.001 341.999 385.001 343.999 c 0
 382.001 344.999 379.001 347.999 377.001 349.999 c 1
 376.001 352.999 375.001 355.999 375.001 357.999 c 0
 375.001 359.999 372.001 364.999 368.001 369.999 c 0
 365.001 374.999 362.001 380.999 362.001 382.999 c 0
 362.001 384.999 361.001 389.999 360.001 392.999 c 0
 358.001 396.999 355.001 401.999 353.001 404.999 c 0
 351.001 407.999 348.001 411.999 348.001 413.999 c 0
 348.001 415.999 345.001 418.999 340.001 419.999 c 1
 336.001 421.999 330.001 425.999 326.001 430.999 c 0
 320.001 437.999 317.001 438.999 311.001 439.999 c 0
 307.001 440.999 302.001 442.999 300.001 443.999 c 0
 298.001 444.999 291.001 446.999 285.001 446.999 c 1
 279.001 447.999 272.001 449.999 271.001 450.999 c 0
 268.001 453.999 265.001 453.999 258.001 452.999 c 1
 253.001 452.999 244.001 449.999 238.001 446.999 c 1
 231.001 444.999 223.001 441.999 218.001 441.999 c 0
 212.001 441.999 208.001 440.999 203.001 437.999 c 0
 199.001 434.999 194.001 432.999 192.001 431.999 c 0
 189.001 430.999 187.001 428.999 186.001 424.999 c 1
 184.001 420.999 183.001 418.999 178.001 417.999 c 0
 175.001 417.999 170.001 413.999 166.001 409.999 c 0
 162.001 404.999 159.001 399.999 159.001 397.999 c 0
 159.001 395.999 157.001 392.999 156.001 391.999 c 1
 154.001 390.999 153.001 387.999 153.001 385.999 c 0
 153.001 383.999 152.001 379.999 149.001 376.999 c 0
 147.001 373.999 145.001 368.999 145.001 364.999 c 0
 145.001 359.999 144.001 355.999 142.001 353.999 c 0
 140.001 350.999 139.001 345.999 138.001 336.999 c 0
 138.001 328.999 137.001 318.999 135.001 313.999 c 0
 133.001 308.999 132.001 297.999 132.001 284.999 c 2
 132.001 257.999 l 1
 132.001 218.999 l 2
 132.001 188.999 133.001 185.999 136.001 180.999 c 0
 138.001 177.999 139.001 173.999 139.001 163.999 c 0
 139.001 154.999 140.001 149.999 143.001 146.999 c 1
 144.001 143.999 146.001 137.999 147.001 132.999 c 0
 148.001 128.999 149.001 122.999 150.001 120.999 c 0
 151.001 118.999 155.001 111.999 158.001 105.999 c 0
 161.001 99.999 166.001 91.999 169.001 86.999 c 0
 172.001 81.999 176.001 76.999 178.001 76.999 c 1
 180.001 75.999 183.001 72.999 186.001 69.999 c 0
 189.001 65.999 194.001 61.999 198.001 58.999 c 0
 202.001 56.999 207.001 54.999 208.001 55.999 c 0
 209.001 56.999 212.001 54.999 215.001 52.999 c 0
 218.001 50.999 223.001 48.999 227.001 47.999 c 1
 230.001 47.999 235.001 45.999 237.001 43.999 c 0
 240.001 40.999 243.001 40.999 256.001 41.999 c 0
 265.001 41.999 273.001 42.999 275.001 42.999 c 2
 289.001 42.999 l 2
 295.001 42.999 304.001 43.999 308.001 45.999 c 2
 312.001 46.999 317.001 49.999 319.001 50.999 c 1
 321.001 52.999 326.001 55.999 329.001 57.999 c 0
 333.001 59.999 340.001 66.999 345.001 73.999 c 0
 350.001 79.999 357.001 87.999 359.001 91.999 c 0
 362.001 95.999 365.001 100.999 366.001 101.999 c 0
 368.001 103.999 370.001 106.999 370.001 108.999 c 1
 371.001 111.999 374.001 116.999 377.001 120.999 c 0
 380.001 124.999 385.001 130.999 390.001 133.999 c 2
 397.001 139.999 399.001 140.999 406.001 140.999 c 0
 410.001 140.999 420.001 139.999 427.001 137.999 c 0
 434.001 136.999 440.001 134.999 442.001 134.999 c 1
 443.001 133.999 446.001 130.999 447.001 127.999 c 0
 448.465 125.071 449.393 122.144 449.393 118.431 c 0
 449.393 112.953 447.757 111.028 445 100 c 1
 443 96 441 89 441 84 c 0
 441 75 441 74 436 71 c 1
 433 70 428 65 425 60 c 2
 421 56 419 51 419 49 c 0
 419 48 415 44 411 42 c 0
 407 39 401 35 398 32 c 0
 395 29 391 27 390 27 c 0
 389 27 386 25 384 23 c 0
 381 21 378 20 376 20 c 0
 375 20 370 16 367 12 c 0
 361 5 359 4 354 4 c 0
 350 4 345 3 341 1 c 0
 337 -1 330 -3 322 -4 c 0
 315 -5 307 -6 305 -7 c 0
 303 -8 288 -9 265 -10 c 2
 224 -10 l 1
 213 -10 l 2
 210 -10 203 -8 198 -5 c 2
 193 -3 187 0 186 2 c 0
 184 5 181 5 176 5 c 1
 171 4 168 4 166 6 c 0
 164 8 159 11 154 13 c 0
 148 15 143 19 141 23 c 0
 139 26 135 30 132 31 c 1
 129 33 126 36 124 38 c 0
 122 41 117 45 112 48 c 0
 108 51 104 54 102 56 c 1
 101 58 99 62 98 65 c 0
 97 69 94 73 89 77 c 0
 85 81 81 86 80 88 c 1
 80 91 78 95 76 97 c 0
 74 100 72 103 72 105 c 0
 72 106 70 109 68 111 c 0
 64 115 64 117 64 123 c 1
 65 128 64 133 62 139 c 0
 60 144 58 150 58 152 c 0
 58 155 57 159 55 163 c 0
 53 166 51 170 51 173 c 0
 51 175 50 179 48 181 c 1
 46 185 45 192 45 246 c 0
 44.6914 264.85 44.4775 277.875 44.4775 287.111 c 0
 44.4775 307.764 45.5449 309.472 49 315 c 0
 53 321 53 324 52 332 c 0
 52 340 52 343 54 345 c 0
 55 346 57 350 58 353 c 1
 58 357 61 362 63 365 c 0
 67 369 67 371 66 378 c 0
 65 384 66 385 69 387 c 0
 70 388 73 392 75 396 c 0
 77 401 79 405 81 405 c 1
 83 406 87 409 89 412 c 0
 92 415 94 419 94 422 c 0
 94 425 95 428 99 432 c 0
 102 434 105 436 106 436 c 0
 107 436 108 438 109 441 c 1
 109 443 112 447 115 449 c 0
 118 451 122 454 124 455 c 2
 125 456 134.932 462.095 146 470 c 0
 160 480 166 484 170 484 c 0
 173 484 178 484 181 485 c 0
 184 486 187 488 187 490 c 1
 188 492 191 492 198 492 c 0
 203 492 209 493 210 495 c 1
 212 496 219 499 224 500 c 0
 230 502 239 504 244 505 c 1
EndSplineSet
Validated: 33
EndChar
StartChar: uni0069
Encoding: 105 105 74
Width: 324
GlyphClass: 2
Flags: W
LayerCount: 2
Fore
SplineSet
148 496 m 0
 153 500 157 502 158 502 c 0
 159 502 163 501 168 499 c 0
 172 497 177 495 179 495 c 0
 182 495 185 495 187 494 c 0
 189 493 192 490 193 487 c 0
 194 484 196 476 196 468 c 0
 197 457 196 453 194 450 c 1
 192 449 191 444 190 441 c 0
 189 436 190 432 192 428 c 0
 194 425 196 415 197 406 c 0
 199 398 200 387 200 383 c 1
 201 379 202 374 203 373 c 0
 204 372 204 368 204 364 c 1
 203 361 201 354 199 350 c 0
 197 343 197 337 197 315 c 0
 197 301 198 286 198 282 c 1
 199 278 200 272 202 267 c 0
 203 263 205 258 205 256 c 0
 205 254 203 250 200 248 c 0
 196 244 196 242 196 232 c 1
 197 226 198 218 200 215 c 0
 202 211 203 205 203 199 c 0
 203 192 202 186 200 183 c 0
 198 179 197 170 197 149 c 0
 196 133 195 120 195 119 c 1
 194 118 195 116 196 114 c 0
 197 112 199 108 201 107 c 1
 203 104 204 101 203 93 c 0
 203 86 202 81 200 78 c 1
 197 76 197 71 197 44 c 0
 197 21 196 12 194 10 c 0
 193 9 188 6 184 5 c 0
 179 4 172 3 168 3 c 0
 162 3 157 4 150 8 c 0
 141 12 139 14 135 22 c 0
 132 29 131 34 131 47 c 2
 131 66 l 2
 131 68 131 75 132 82 c 0
 133 92 132 97 130 102 c 0
 128.5 105 127.75 106.75 127.75 108.25 c 0
 127.75 109.75 128.5 111 130 113 c 0
 132 116 132 122 132 153 c 0
 131 173 131 192 131 195 c 0
 131 198 131 209 132 218 c 0
 133 233 133 236 130 240 c 0
 127.856 242.144 126.861 243.426 126.861 245.231 c 0
 126.861 246.795 127.607 248.751 129 252 c 0
 131 258 131 267 131 293 c 2
 131 335 l 1
 131 355 l 1
 131 378 l 1
 131 433 l 2
 132 469 132 477 135 479 c 1
 136 481 138 484 139 486 c 1
 139 488 144 493 148 496 c 0
179 725 m 0
 182 726 185.999 727 187.999 727 c 0
 189.999 727 192.999 726 194.999 724 c 0
 196.999 722 199.999 720 202.999 720 c 0
 205.999 720 207.999 719 210.999 714 c 0
 212.463 710.34 213.391 707.751 213.391 703.488 c 0
 213.391 701.928 213.267 700.144 212.999 698 c 0
 211.999 692 210.999 685 210.999 682 c 0
 210.999 679 211.999 673 211.999 668 c 0
 211.999 662 210.999 660 207.999 656 c 0
 204.999 653 202.999 649 202.999 647 c 0
 202.999 645 199.999 642 193.999 639 c 0
 188.999 637 180.999 634 176.999 633 c 1
 171.999 633 167.999 633 161.999 637 c 0
 153.999 641 151.999 641 141.999 640 c 0
 129.999 639 129.999 639 123.999 646 c 1
 116.999 652 116.999 653 116.999 662 c 0
 116.999 667 114.999 674 112.999 678 c 0
 111.348 681.854 110.605 683.889 110.605 685.607 c 0
 110.605 687.011 111.101 688.202 112 690 c 1
 114 691 117 696 118 701 c 1
 121 707 124 709 134 714 c 0
 143 718 148 719 154 719 c 0
 159 719 166 720 169 721 c 0
 171 722 176 724 179 725 c 0
EndSplineSet
Validated: 33
EndChar
StartChar: uni006F
Encoding: 111 111 80
Width: 577
GlyphClass: 2
Flags: W
LayerCount: 2
Fore
SplineSet
321 459 m 0
 313 461 305 463 302 463 c 0
 299 463 294 462 291 461 c 0
 287 459 274 458 257 457 c 0
 234 455 228 454 220 451 c 1
 215 448 209 445 207 443 c 0
 205 441 202 439 200 439 c 0
 197 439 196 438 196 437 c 1
 196 437 190 431 184 426 c 0
 177 420 171 415 170 414 c 1
 168 413 167 410 167 408 c 0
 167 404 165 400 160 395 c 0
 154 388 152 385 152 381 c 0
 152 378 149 369 145 361 c 0
 141 353 138 345 139 343 c 1
 139 342 138 338 135 335 c 0
 131 330 131 330 131 298 c 0
 132 280 132 265 132 263 c 2
 132 238 l 2
 132 217 132 215 135 211 c 0
 138 207 139 204 139 186 c 0
 139 166 139 165 143 160 c 0
 147 156 148 153 148 149 c 0
 148 145 149 142 150 141 c 1
 151 141 152 136 152 132 c 0
 152 126 153 122 155 119 c 0
 157 117 159 113 159 111 c 1
 160 109 164 104 169 101 c 1
 173 97 180 91 183 88 c 0
 186 85 191 81 194 80 c 0
 197 79 202 75 205 71 c 0
 208 67 211 65 214 65 c 0
 216 65 220 63 222 62 c 0
 225 60 231 59 239 58 c 0
 249 58 255 56 262 53 c 0
 267 51 274 49 279 49 c 0
 286 49 289 50 291 53 c 1
 294 55 297 56 303 56 c 0
 309 56 315 58 320 60 c 0
 326 63 332 64 344 64 c 0
 355 64 362 65 366 67 c 0
 370 69 377 75 382 82 c 0
 387 88 393 95 394 97 c 1
 395 98 397 100 399 100 c 0
 400 100 402 102 403 106 c 0
 404 109 409 115 413 119 c 0
 419 125 422 129 422 131 c 0
 422 134 425 138 427 141 c 0
 431 146 433 149 433 154 c 0
 433 157 434 163 436 167 c 0
 440 174 440 176 439 191 c 0
 438 206 438 209 442 216 c 1
 444 223 445 228 445 243 c 0
 445 253 445 263 446 267 c 2
 446 270 447 280 447 289 c 0
 447 303 446 305 442 309 c 0
 438 314 438 315 439 326 c 0
 440 337 440 338 436 342 c 1
 432 345 431 348 431 354 c 0
 431 358 430 362 429 363 c 1
 428 363 425 368 423 373 c 0
 421 378 417 383 415 385 c 0
 413 387 410 391 409 394 c 1
 407 397 404 402 402 406 c 2
 395 417 l 2
 393 420 389 424 386 427 c 0
 383 430 377 434 373 436 c 0
 369 438 364 441 362 442 c 1
 360 444 355 447 351 448 c 0
 347 449 342 451 340 452 c 0
 337 453 329 456 321 459 c 0
269 507 m 0
 275 514 275 513.999 298 513.999 c 0
 318 513.999 322 512.999 326 509.999 c 0
 330 507.999 336 505.999 346 505.999 c 0
 355 504.999 366 502.999 370 500.999 c 2
 375 499.999 380 496.999 382 496.999 c 1
 383 495.999 386 493.999 389 492.999 c 0
 391 491.999 394 490.999 396 489.999 c 1
 397 488.999 400 486.999 403 485.999 c 0
 405 484.999 409 481.999 412 480.999 c 2
 415 478.999 418 477.999 419 477.999 c 1
 420 478.999 423 477.999 425 475.999 c 0
 428 473.999 432 471.999 435 471.999 c 0
 440 471.999 442 470.999 445 466.999 c 0
 447 462.999 452 457.999 455 453.999 c 0
 458 450.999 461 447.999 462 447.999 c 0
 463 447.999 467 443.999 472 437.999 c 0
 476 432.999 482 424.999 485 418.999 c 0
 488 413.999 491 407.999 491 406.999 c 0
 491 404.999 492 402.999 494 401.999 c 1
 495 399.999 498 394.999 501 390.999 c 1
 503 385.999 505 379.999 505 376.999 c 0
 505 374.999 506 370.999 508 367.999 c 0
 510 363.999 511 360.999 511 356.999 c 1
 510 352.999 511 349.999 513 345.999 c 1
 516 342.999 517 337.999 517 333.999 c 0
 517 327.999 518 325.999 521 323.999 c 0
 525 320.999 526 317.999 528 302.999 c 0
 529 292.999 530 277.999 531 268.999 c 0
 531.828 262.786 532.313 258.804 532.313 255.914 c 0
 532.313 251.828 531.343 249.929 529 247 c 0
 526 243 526 239 525 214 c 0
 525 192 524 184 522 179 c 1
 520 176 519 172 519 170 c 0
 519 169 517 164 514 161 c 0
 510 157 510 155 511 149 c 0
 511 145 511 141 509 138 c 0
 507 135 505 129 504 125 c 0
 503 121 499 116 496 113 c 0
 493 110 491 107 491 104 c 0
 491 101 488 97 485 93 c 1
 481 90 478 86 478 85 c 0
 478 84 474 77 468 71 c 0
 462 64 456 58 454 58 c 1
 452 57 450 55 448 53 c 0
 447 52 442 49 438 47 c 0
 434 45 428 42 426 39 c 1
 423 37 415 32 408 28 c 0
 400 24 393 21 391 21 c 0
 390 21 386 19 382 16 c 0
 379 13 375 10 374 10 c 0
 373 10 371 9 369 8 c 1
 368 6 365 5 360 6 c 1
 355 6 350 5 343 2 c 0
 335 -1 330 -2 311 -2 c 2
 283 -2 l 1
 262 -2 l 2
 252 -1 246 0 242 2 c 0
 238 4 231 6 226 6 c 0
 220 6 215 8 212 10 c 0
 209 12 205 14 202 14 c 0
 199 14 195 15 193 17 c 1
 191 18 186 19 181 19 c 0
 174 19 171 20 166 24 c 0
 163 26 159 28 157 28 c 0
 156 28 151 30 148 33 c 2
 144 35 140 40 139 43 c 1
 137 45 134 48 131 49 c 0
 129 50 126 53 124 57 c 0
 122 60 119 64 117 64 c 1
 115 65 109 71 103 78 c 0
 97 85 90 93 87 97 c 0
 84 101 81 107 81 110 c 1
 80 113 78 117 76 118 c 1
 74 120 73 124 73 126 c 0
 73 129 72 134 70 138 c 2
 69 142 67 146 67 148 c 0
 67 150 66 154 64 158 c 0
 62 162 60 167 60 169 c 0
 60 171 59 176 57 179 c 0
 55 183 53 189 53 193 c 0
 53 198 52 204 49 208 c 1
 46 215 46 217 46 252 c 2
 46 298 l 2
 46 304 48 308 50 310 c 0
 52 312 53 316 53 329 c 0
 53 343 54 348 57 352 c 0
 59 355 60 360 60 364 c 0
 60 368 62 371 64 373 c 0
 66 375 67 378 67 379 c 0
 67 381 69 383 70 385 c 1
 72 387 72 391 72 393 c 1
 71 397 72 399 78 404 c 0
 82 408 85 412 85 414 c 0
 85 415 94 425 104 436 c 0
 114 447 124 457 124 459 c 1
 128 463 l 1
 130 464 135 468 140 472 c 0
 145 476 150 479 152 480 c 1
 158 480 l 2
 159 480 162 481 165 482 c 0
 168 483 173 485 177 486 c 1
 181 486 186 487 188 487 c 0
 190 487 194 489 196 491 c 0
 198 493 204 496 209 498 c 0
 214 500 219 502 221 504 c 0
 225 508 225 508 230 503 c 0
 233 500 235 499 237 499 c 1
 239 500 245 500 251 500 c 0
 263 500 263 501 269 507 c 0
EndSplineSet
Validated: 33
EndChar
StartChar: uni0078
Encoding: 120 120 89
Width: 515
GlyphClass: 2
Flags: W
LayerCount: 2
Fore
SplineSet
418 518 m 1
 420 520 424 521 429 521 c 0
 433 521 439 520 442 518 c 0
 446 516 452 514 457 514 c 0
 463 514 465 513 472 508 c 1
 478 502 479 500 479 494 c 0
 479 489 478 486 475 484 c 0
 473 482 472 480 472 478 c 0
 472 477 469 472 465 468 c 2
 462 463 455 456 451 451 c 0
 447 447 444 442 444 441 c 0
 444 440 441 436 438 433 c 0
 435 429 430 423 428 419 c 0
 426 415 423 411 420 409 c 0
 418 408 414 407 413 407 c 0
 412 407 410 406 408 404 c 0
 407 403 405 398 404 395 c 0
 402 391 398 386 395 382 c 1
 391 379 388 375 388 373 c 0
 388 372 386 367 383 363 c 0
 381 359 374 351 368 345 c 0
 362 340 356 334 355 333 c 2
 353 332 349 326 345 319 c 0
 341 313 338 306 338 303 c 0
 338 299 335 295 330 290 c 0
 323 283 322 282 323 277 c 0
 324 274 325 265 326 258 c 0
 327 246 327 246 344 229 c 0
 353 221 363 212 365 210 c 1
 367 209 370 204 372 201 c 1
 373 197 375 192 377 189 c 0
 379 187 381 183 381 182 c 0
 381 180 382 178 385 176 c 0
 387 175 390 171 391 167 c 0
 392 163 397 157 401 153 c 2
 404 149 410 143 413 139 c 0
 416 135 420 130 423 129 c 1
 426 127 428 124 430 120 c 1
 431 116 435 109 441 103 c 2
 457 87 l 1
 460 83 463 78 464 76 c 1
 464 74 466 72 468 71 c 0
 470 70 475 66 480 61 c 0
 485 56 491 48 493 44 c 0
 496 40 498 35 498 34 c 0
 498 32 496 27 494 21 c 1
 490 13 489 12 484 12 c 0
 482 12 478 11 476 9 c 0
 474 7 472 5 470 6 c 1
 469 6 464 5 460 3 c 0
 456.5 1.5 454.5 0.75 452.75 0.75 c 0
 451 0.75 449.5 1.5 447 3 c 0
 443 5 435 6 421 7 c 0
 402 8 402 8 385 24 c 2
 365 45 l 2
 364 46 363 50 363 53 c 0
 363 57 361 60 358 64 c 0
 355 67 352 72 351 76 c 0
 349 81 347 83 342 86 c 1
 339 87 334 90 331 92 c 0
 328 94 326 97 326 99 c 0
 326 102 323 107 317 113 c 0
 310 121 309 123 309 129 c 0
 309 135 307 137 300 144 c 0
 293 151 292 152 293 159 c 0
 295 166 294 166 289 170 c 0
 286 172 281 176 278 179 c 0
 275 182 267 187 260 191 c 1
 252 194 244 197 242 197 c 0
 239 197 235 196 232 195 c 0
 230 194 226 191 225 187 c 1
 223 184 218 178 213 173 c 0
 209 168 205 163 205 162 c 0
 205 160 201 156 197 152 c 0
 191 146 190 143 190 140 c 1
 191 138 190 135 188 133 c 0
 186 131 183 127 182 124 c 1
 180 121 178 118 175 117 c 1
 173 115 168 109 163 99 c 0
 159 90 154 82 153 82 c 0
 152 82 149 80 146 77 c 2
 133 64 l 1
 126 59 126 57 126 49 c 0
 126 41 126 41 113 29 c 0
 107 23 99 17 96 17 c 1
 94 16 88 15 83 14 c 0
 77 13 73 11 70 8 c 0
 67 5 65 3 63 4 c 0
 61 5 54 6 47 6 c 0
 35 7 35 7 26 17 c 0
 20 23 17 27 18 29 c 1
 18 30 20 36 21 41 c 1
 23 46 26 52 29 55 c 0
 33 59 34 62 34 65 c 0
 34 68 36 72 37 74 c 1
 39 76 41 77 42 77 c 0
 43 77 47 80 51 83 c 0
 56 87 62 91 65 92 c 0
 68 93 73 96 75 99 c 2
 78 101 81 105 82 107 c 0
 83 109 84 113 84 117 c 0
 84 123 85 126 90 132 c 0
 94 136 99 141 101 142 c 1
 103 144 107 148 108 152 c 1
 110 156 116 164 122 170 c 0
 127 176 133 183 135 184 c 1
 136 185 138 188 139 191 c 0
 140 194 142 199 145 202 c 0
 147 205 150 207 152 207 c 0
 154 207 157 210 159 214 c 0
 161 217 165 224 168 229 c 0
 170 233 174 238 177 240 c 0
 179 241 180 244 180 245 c 1
 179 247 181 253 185 258 c 1
 190 267 191 270 190 276 c 0
 189 281 187 284 183 287 c 0
 179 290 177 293 177 294 c 0
 177 295 172 302 165 310 c 0
 159 318 148 330 140 337 c 0
 133 344 126 352 125 353 c 1
 125 355 122 357 120 358 c 0
 117 360 115 363 114 367 c 1
 112 371 109 376 106 379 c 0
 102 382 99 384 98 384 c 0
 97 384 94 388 91 393 c 1
 87 397 79 406 73 413 c 0
 66 420 61 427 61 429 c 0
 61 431 59 435 57 436 c 1
 55 438 54 441 54 444 c 0
 54 446 52 449 50 451 c 0
 48 453 45 457 43 460 c 0
 41 462 40 466 40 468 c 0
 40 471 37 474 34 477 c 0
 28 481 27 482 27 489 c 0
 27 496 28 498 35 505 c 0
 41 511.75 42.5 513.438 58.9062 513.438 c 0
 64.375 513.438 71.5 513.25 81 513 c 0
 106 513 121 512 124 511 c 1
 127 509 134 503 139 497 c 0
 148 486 149 485 149 476 c 0
 149 469 150 465 153 460 c 0
 155 457 165 445 176 434 c 0
 188 422 197 412 197 409 c 1
 198 407 199 403 201 402 c 1
 202 400 204 397 205 394 c 1
 205 391 208 388 212 385 c 1
 216 384 220 380 221 377 c 1
 223 374 225 370 226 368 c 1
 228 366 231 361 234 357 c 0
 238 350 241 348 247 346 c 0
 252 345 258 344 262 345 c 0
 266 346 271 348 273 351 c 0
 276 354 279 356 281 357 c 0
 283 358 285 361 287 364 c 1
 288 368 291 374 294 378 c 0
 296 381 301 386 305 388 c 0
 309 390 312 393 312 394 c 0
 312 395 316 400 321 405 c 1
 327 409 332 415 333 418 c 0
 334 421 335 425 334 427 c 1
 334 431 335 433 341 438 c 1
 344 442 348 447 350 450 c 1
 351 453 355 459 358 462 c 0
 363 467 365 470 365 474 c 0
 365 477 367 481 370 485 c 0
 373 488 379 494 383 499 c 0
 387 503 393 508 397 510 c 2
 409 514 l 1
 413 514 417 516 418 518 c 1
EndSplineSet
Validated: 33
EndChar
StartChar: uni00A1
Encoding: 161 161 97
Width: 449
GlyphClass: 2
Flags: W
LayerCount: 2
Fore
SplineSet
203 533 m 0
 207.5 539.75 208.625 541.438 216.922 541.438 c 0
 219.688 541.438 223.25 541.25 228 541 c 0
 239 541 249 540 251 540 c 1
 253 539 256 537 257 535 c 0
 259 532 260 529 258 521 c 0
 257 515 256 508 254 506 c 1
 253 503 251 498 250 494 c 0
 247 487 248 486 252 481 c 1
 255 479 257 475 257 474 c 0
 257 472 255 468 253 464 c 0
 251 460 250 455 250 452 c 0
 250 450 252 443 255 437 c 0
 259 427 260 424 259 415 c 0
 258 408 257 403 254 400 c 0
 252 397 250 394 250 393 c 0
 250 391 251 389 252 387 c 1
 254 385 255 380 256 375 c 0
 257 370 256 366 255 364 c 1
 253 362 253 360 256 353 c 1
 257 347 258 336 258 313 c 0
 258 285 258 280 261 277 c 0
 264 274 264 269 265 228 c 0
 265 189 264 180 262 171 c 0
 260 165 258 156 258 152 c 0
 257 145 258 141 260 137 c 0
 263 133 264 128 264 118 c 2
 264 101 l 1
 264 76 l 2
 265 57 265 54 269 50 c 0
 271 48 273 45 273 43 c 0
 273 42 271 39 269 37 c 0
 266 35 265 33 266 25 c 0
 267 16 267 15 262 13 c 0
 257 11 250 11 236 11 c 0
 225 12 213 12 210 12 c 2
 195 12 l 2
 187 11 184 12 181 15 c 0
 179 17 178 19 179 27 c 0
 179 32 180 40 179 44 c 1
 179 49 181 55 182 58 c 0
 184 62 185 66 184 70 c 0
 183 73 182 82 181 89 c 0
 180 99 180 104 182 107 c 0
 184 110 185 115 185 118 c 0
 185 122 183 129 182 135 c 0
 181 140 179 149 178 155 c 0
 177.775 157.022 177.651 158.641 177.651 160.037 c 0
 177.651 164.854 179.124 167.022 183 174 c 0
 186 179 190 187 191 194 c 0
 193 205 193 206 190 211 c 1
 186 215 186 219 186 235 c 0
 185 247 186 256 187 259 c 0
 189 263 189 268 189 272 c 1
 188 275 187 280 186 281 c 1
 185 283 186 285 189 287 c 0
 193 290 193 290 193 385 c 0
 193 453 193 485 195 496 c 0
 196 505 197 515 197 518 c 0
 197 522 199 527 203 533 c 0
191 705 m 1
 191 707 192.999 708 194.999 708 c 0
 196.999 708 199.999 706 201.999 705 c 0
 204.999 703 208.999 702 219.999 703 c 0
 231.999 703 237.999 702 248.999 699 c 0
 258.999 696 262.999 694 263.999 691 c 1
 263.999 689 266.999 682 268.999 675 c 0
 271.999 666 272.999 661 271.999 657 c 1
 270.999 655 269.999 647 270.999 641 c 1
 270.999 633 269.999 627 267.999 623 c 0
 265.999 619 263.999 616 259.999 616 c 1
 257.999 615 251.999 615 245.999 616 c 0
 240.999 617 233.999 618 229.999 618 c 0
 225.999 618 220.999 619 218.999 621 c 1
 216.999 622 213.999 623 212.999 623 c 0
 210.999 623 205.999 621 200.999 619 c 0
 195.999 617 190.999 615 189.999 615 c 0
 188.999 615 187.999 616 187.999 617 c 1
 186.999 619 185.999 627 185.999 636 c 0
 185.999 645 185.999 661 184.999 672 c 0
 184.585 678.628 184.343 683.368 184.343 687.003 c 0
 184.343 692.143 184.828 695.071 186 698 c 1
 188 701 190 704 191 705 c 1
EndSplineSet
Validated: 33
EndChar
StartChar: uni00A2
Encoding: 162 162 98
Width: 528
GlyphClass: 2
Flags: W
LayerCount: 2
Fore
SplineSet
291 447 m 0
 287 447 273 448 260 449 c 0
 238 449 235 449 228 446 c 0
 224 444 216 437 210 432 c 1
 205 426 200 421 199 421 c 0
 198 421 192 417 186 411 c 0
 180 404 175 398 174 395 c 1
 174 392 171 387 167 383 c 0
 164 380 161 375 160 373 c 0
 159 371 158 366 158 363 c 0
 158 359 156 354 155 352 c 0
 153 349 152 343 152 335 c 2
 152 307 l 2
 153 296 152 290 150 283 c 0
 147 275 147 272 149 264 c 0
 150 259 151 253 150 252 c 1
 150 250 148 246 147 242 c 2
 145.5 239 144.75 237.25 144.75 235.75 c 0
 144.75 234.25 145.5 233 147 231 c 0
 149 227 150 218 150 203 c 0
 151 186 152 180 155 178 c 1
 156 176 159 171 161 166 c 0
 164 160 165 152 166 144 c 0
 166 137 167 128 169 125 c 2
 170 121 174 114 178 109 c 0
 182 104 185 97 186 93 c 0
 187 87 187 87 200 85 c 0
 204 84.5 207.75 84.25 210.625 84.25 c 0
 213.5 84.25 215.5 84.5 216 85 c 1
 218 85 219 88 219 90 c 0
 219 93 221 97 224 100 c 1
 227 105 228 107 227 112 c 0
 227 116 227 119 230 122 c 0
 232 125 234 130 235 136 c 1
 235 141 237 146 238 148 c 0
 239 150 240 155 240 159 c 0
 240 163 243 173 248 185 c 0
 254 199 256 207 256 213 c 0
 256 219 257 223 258 224 c 0
 260 226 261 231 262 238 c 1
 262 246 264 251 267 256 c 0
 270 260 272 264 272 266 c 0
 272 267 274 271 276 274 c 0
 280 278 281 280 280 285 c 0
 279 288 279 292 279 293 c 0
 279 295 281 302 283 311 c 0
 285 319 288 327 289 329 c 0
 290 332 291 337 291 341 c 0
 291 345 292 350 294 352 c 1
 295 354 296 357 296 359 c 0
 296 360 297 364 299 367 c 1
 300 370 302 378 303 384 c 0
 305 391 308 401 312 408 c 0
 316 417 318 422 317 428 c 1
 317 433 317 437 316 438 c 2
 316 440 312 442 307 443 c 0
 303 444 296 446 291 447 c 0
383 618 m 1
 384 619 386 620 388 620 c 0
 390 620 393 619 395 618 c 0
 398 616 398 615 397 601 c 0
 396 587 395 584 388 569 c 0
 384 560 380 549 379 545 c 1
 379 540 377 537 374 534 c 0
 369 530 369 530 369 507 c 0
 370 494 370 483 371 481 c 1
 377 475 l 1
 380 474 385 472 388 472 c 0
 391 472 394 471 396 468 c 0
 398 465 404 457 410 450 c 0
 416 442 423 435 425 433 c 0
 428 431 430 428 431 425 c 0
 432 423 435 418 439 414 c 0
 445 409 446 407 446 401 c 0
 446 396 447 393 450 390 c 0
 453 387 455 384 455 381 c 0
 455 378 456 374 458 372 c 0
 460 369 462 366 462 364 c 0
 462 362 460 357 457 353 c 0
 455 350 452 346 451 345 c 1
 449 345 445 344 442 344 c 0
 438 344 433 345 431 346 c 0
 429 347 423 349 418 350 c 0
 411 352 407 352 403 351 c 0
 398 349 395 349 391 352 c 1
 386 354 384 357 379 368 c 0
 376 375 374 383 374 385 c 0
 374 387 373 392 371 395 c 1
 370 399 369 403 368 403 c 1
 367 404 363 405 358 406 c 0
 352 407 349 406 345 404 c 0
 342 403 338 399 336 396 c 1
 335 392 333 388 333 385 c 0
 333 383 332 378 331 375 c 0
 329 371 328 366 328 363 c 0
 328 360 327 356 326 354 c 1
 324 352 321 345 319 340 c 0
 317 334 315 326 314 322 c 0
 313 318 311 312 309 308 c 0
 306 303 305 299 305 290 c 0
 305 284 305 278 304 277 c 0
 303 276 300 271 297 266 c 0
 293 258 293 255 293 243 c 0
 293 235 292 227 290 221 c 0
 289 216 286 212 285 211 c 1
 284 209 282 206 282 204 c 0
 282 201 281 197 280 196 c 0
 278 193 277 188 277 181 c 0
 277 174 276 168 274 164 c 0
 272 160 269 153 267 149 c 0
 265 144 263 138 263 135 c 0
 263 132 262 127 260 124 c 1
 259 120 258 116 258 113 c 0
 258 111 255 106 253 102 c 0
 249 95 247 92 247 85 c 0
 247 80 249 73 251 69 c 0
 253 65 255 61 257 60 c 0
 259 59 269 58 279 57 c 0
 296 56 299 56 306 59 c 0
 311 61 316 63 318 63 c 0
 320 63 324 65 326 67 c 1
 329 68 332 70 333 70 c 1
 339 74 l 2
 341 75 345 77 347 77 c 0
 349 77 352 80 355 83 c 0
 357 86 363 92 368 97 c 0
 375 104 376 106 375 111 c 0
 374 114 375 118 378 124 c 1
 381 128 383 133 383 135 c 0
 383 137 384 139 386 141 c 0
 388 143 390 147 390 152 c 0
 390 161 390 161 399 160 c 2
 412 160 l 1
 424 160 l 1
 428 161 433 162 433 162 c 1
 434 163 438 162 442 160 c 0
 445 158 449 156 451 156 c 0
 452 156 454 155 456 153 c 0
 458 151 460 147 460 145 c 0
 460 143 459 140 457 138 c 0
 455 136 454 132 454 127 c 0
 454 121 453 118 448 111 c 0
 445 106 441 101 439 98 c 0
 437 95 434 91 433 88 c 0
 432 86 428 79 425 74 c 0
 422 70 418 64 417 62 c 0
 416 60 412 57 408 55 c 0
 404 53 395 47 388 41 c 0
 382 35 371 27 364 24 c 0
 357 21 351 19 348 20 c 1
 345 20 339 19 334 17 c 0
 329 15 323 13 320 11 c 1
 317 10 309 8 303 7 c 0
 298.333 7 289.222 6.55566 279.814 6.55566 c 0
 275.11 6.55566 270.333 6.66699 266 7 c 0
 244 7 240 7 238 4 c 0
 237 2 233 -2 230 -5 c 0
 227 -8 222 -14 220 -19 c 2
 216 -25 215 -30 215 -39 c 0
 215 -46 214 -52 212 -56 c 2
 211 -60 207 -66 205 -70 c 0
 203 -75 202 -81 202 -84 c 0
 202 -87 200 -90 198 -92 c 1
 196 -93 193 -99 192 -105 c 1
 190 -111 188 -116 187 -117 c 1
 186 -119 182 -120 179 -120 c 0
 175 -120 171 -118 170 -117 c 0
 168 -115 168 -113 170 -106 c 0
 171 -100 172 -92 171 -84 c 0
 170 -75 170 -71 172 -68 c 0
 174 -65 175 -63 175 -62 c 0
 175 -61 177 -57 180 -54 c 1
 182 -50 184 -43 185 -38 c 0
 186 -33 188 -25 189 -20 c 1
 192 -13 192 -7 191 3 c 0
 191 17 191 18 185 21 c 0
 182 23 178 26 178 28 c 1
 177 30 175 32 172 33 c 1
 169 33 164 36 162 40 c 1
 159 43 154 48 149 51 c 0
 144 55 138 61 135 66 c 0
 132 71 127 76 123 78 c 0
 120 80 117 83 116 84 c 1
 116 86 112 91 108 94 c 0
 102 99 100 103 100 106 c 0
 100 108 98 112 96 114 c 0
 93 118 93 122 93 132 c 0
 93 142 92 146 90 148 c 1
 88 149 85 152 82 155 c 0
 77 159 77 160 78 167 c 0
 79 172 78 176 76 180 c 2
 75 184 73 190 71 195 c 0
 69 202 69 204 71 211 c 0
 72 215 73 222 73 226 c 0
 73 231 72 236 69 240 c 1
 67.5 243.5 66.75 245.25 66.75 246.75 c 0
 66.75 248.25 67.5 249.5 69 252 c 2
 70 255 72 259 72 260 c 0
 72 261 73 264 75 266 c 0
 77 269 79 273 79 276 c 0
 79 279 77 286 76 290 c 0
 75 295 73 303 73 307 c 0
 73 312 75 317 76 319 c 0
 78 322 79 328 80 339 c 0
 80 353 81 357 85 364 c 0
 87 369 90 374 91 375 c 0
 92 376 93 378 93 379 c 0
 93 380 95 384 97 387 c 1
 100 389 102 393 102 394 c 0
 102 396 104 399 107 403 c 0
 110 406 114 409 116 410 c 1
 120 411 121 412 121 419 c 0
 121 424 122 428 127 434 c 0
 130 438 135 443 137 444 c 2
 139 446 145 448 149 450 c 0
 154 452 158 454 160 456 c 0
 161 457 162 461 163 464 c 0
 164 469 165 470 172 471 c 0
 176 472 185 475 192 479 c 0
 199 483 206 486 208 486 c 0
 209 486 216 488 222 490 c 0
 229 492 237 495 241 497 c 0
 246 499 254 500 267 500 c 2
 293 500 l 1
 313 500 l 2
 320 500 328 501 331 502 c 0
 335 503 337 505 339 513 c 0
 341 518 343 523 344 524 c 0
 345 525 346 531 347 537 c 1
 347 542 349 548 350 549 c 1
 350 550 352 554 352 557 c 1
 353 560 354 565 356 569 c 0
 358 572 360 580 360 587 c 1
 361 593 362 600 364 603 c 1
 365 606 369 610 374 612 c 0
 379 614 383 617 383 618 c 1
EndSplineSet
Validated: 33
EndChar
StartChar: uni00BA
Encoding: 186 186 121
Width: 326
GlyphClass: 2
Flags: W
LayerCount: 2
Fore
SplineSet
167 702 m 0
 158 702 147.999 702 142.999 703 c 0
 140.836 703.309 139.246 703.522 137.904 703.522 c 0
 134.904 703.522 133.146 702.455 129 699 c 0
 124 695 121 694 118 695 c 1
 116 695 112 695 110 694 c 0
 108 693 104 688 102 684 c 0
 99 679 95 675 92 673 c 1
 88 672 86 669 84 664 c 0
 83 661 81 656 81 653 c 1
 80 651 79 648 77 646 c 0
 76 645 73 640 70 635 c 0
 66 627 66 623 65 608 c 0
 64 595 63 587 60 582 c 1
 59 577 57 573 57 571 c 0
 57 569 59 565 61 561 c 0
 64 556 65 550 65 541 c 0
 66 530 67 527 72 518 c 0
 75 513 78 506 79 503 c 0
 80 500 82 496 85 493 c 0
 87 490 92 486 95 485 c 0
 97 484 102 481 106 478 c 0
 109 475 115 472 118 471 c 1
 122 471 128 469 132 467 c 0
 136 464 141 463 145 464 c 0
 150 465 153 464 155 462 c 0
 157 459 160 458 162 459 c 1
 165 459 170 458 174 458 c 2
 176.333 457.333 178.11 457 179.666 457 c 0
 182.777 457 185 458.333 189 461 c 0
 194 464 198 468 199 470 c 1
 201 471 204 472 208 472 c 0
 214 472 216 474 221 478 c 0
 224 481 229 487 233 492 c 0
 237 497 242 503 245 505 c 0
 248 507 251 511 252 513 c 0
 253 516 254 522 254 527 c 0
 254 533 255 537 258 541 c 0
 261 545 261 547 261 589 c 0
 260 631 260 633 256 638 c 0
 254 641 252 647 251 651 c 1
 251 655 248 661 246 666 c 0
 243 672 241 674 232 678 c 0
 227 681 222 685 221 686 c 1
 220 688 219 691 217 692 c 1
 215 695 214 695 211 693 c 0
 209 692 206 692 200 694 c 0
 195 695 190 697 187 698 c 1
 184 701 178 701 167 702 c 0
142.999 730 m 0
 147.999 731 162.999 731 176.999 731 c 0
 195.999 731 203.999 730 203.999 729 c 1
 204.999 728 208.999 725 213.999 723 c 2
 218.999 720 224.999 718 226.999 718 c 0
 228.999 718 231.999 717 232.999 715 c 0
 233.999 713 237.999 709 241.999 707 c 0
 244.999 705 248.999 702 249.999 701 c 0
 250.999 700 255.999 698 259.999 697 c 0
 264.999 696 269.999 694 271.999 692 c 0
 273.999 690 274.999 686 274.999 684 c 0
 274.999 682 276.999 678 278.999 674 c 1
 281.999 671 283.999 667 283.999 666 c 0
 283.999 665 288.999 659 294.999 653 c 0
 304.999 643 304.999 642 303.999 636 c 0
 302.999 632 302.999 626 302.999 622 c 0
 302.999 618 303.999 611 305.999 607 c 2
 306.999 603 308.999 597 309.999 594 c 0
 311.999 590 311.999 585 311.999 581 c 2
 311.999 562 l 2
 311.999 552 310.999 549 307.999 548 c 0
 305.999 547 304.999 544 304.999 540 c 0
 304.999 537 303.999 533 301.999 532 c 1
 300.999 531 299.999 528 299.999 527 c 0
 299.999 525 297.999 519 295.999 515 c 2
 294.999 510 289.999 503 286.999 500 c 0
 282.999 496 279.999 490 277.999 486 c 1
 276.999 481 274.999 478 270.999 476 c 0
 267.999 475 262.999 473 260.999 471 c 2
 257.999 470 253.999 466 252.999 463 c 0
 251.999 461 248.999 458 246.999 457 c 2
 245.999 456 240.999 455 236.999 454 c 0
 233.999 453 226.999 451 222.999 448 c 0
 218.999 446 212.999 442 208.999 439 c 0
 201.999 435 201.999 435 167.999 435 c 0
 142.999 435 131.999 436 127.999 438 c 0
 124.999 440 119.999 441 116.999 441 c 0
 113.999 441 108.999 443 105.999 445 c 0
 101.999 447 96.999 449 93.999 449 c 0
 91.999 449 87.999 451 85.999 452 c 0
 83.999 453 80.999 455 78.999 455 c 0
 76.999 455 72.999 458 68.999 461 c 1
 65.999 465 62.999 469 61.999 471 c 1
 61.999 473 59.999 475 57.999 475 c 1
 55.999 476 49.999 480 44.999 485 c 0
 39.999 491 35.999 496 35.999 498 c 0
 35.999 500 33.999 504 30.999 506 c 0
 28.999 508 25.999 512 23.999 516 c 0
 22.999 519 21.999 524 21.999 526 c 0
 21.999 527 19.999 531 17.999 534 c 0
 14.999 538 14.999 542 14.999 565 c 0
 14.999 585 14.999 592 16.999 596 c 0
 18.999 599 20.999 609 21.999 618 c 0
 22.999 626 24.999 636 26.999 640 c 0
 27.999 643 30.999 647 32.999 650 c 0
 34.999 653 35.999 658 35.999 662 c 0
 35.999 667 36.999 670 39.999 672 c 0
 42.999 674 45.999 678 46.999 682 c 0
 48.999 687 51.999 689 64.999 696 c 0
 75.999 701 81.999 705 84.999 709 c 0
 87.999 713 91.999 718 94.999 721 c 0
 100.999 725 101.999 726 110.999 725 c 0
 117.999 724 121.999 724 127.999 726 c 0
 131.999 728 138.999 730 142.999 730 c 0
EndSplineSet
Validated: 33
EndChar
StartChar: uni00C5
Encoding: 197 197 132
Width: 662
GlyphClass: 2
Flags: W
LayerCount: 2
Fore
SplineSet
339 597 m 0
 336 601 331 604 330 604 c 0
 328 604 325 603 322 601 c 0
 319 599 315 597 313 596 c 1
 312 595 310 592 310 588 c 1
 309 585 307 579 305 575 c 0
 302 571 299 567 298 566 c 1
 297 566 297 562 297 558 c 0
 297 552 296 549 293 547 c 0
 291 545 290 542 290 536 c 0
 290 530 289 528 286 527 c 0
 284 526 283 523 283 522 c 0
 283 520 281 516 279 512 c 1
 276 509 273 504 272 500 c 2
 270 497 268 491 268 487 c 1
 267 484 266 479 264 478 c 1
 263 476 261 472 261 468 c 2
 260 464 259 459 260 457 c 1
 260 454 259 451 257 448 c 0
 256 446 254 443 254 442 c 0
 254 440 253 438 252 437 c 1
 250 436 247 431 244 426 c 0
 241 421 238 412 237 407 c 0
 235 400 233 396 231 394 c 0
 228 392 226 389 226 383 c 1
 225 378 223 371 221 367 c 0
 218 362 218 359 219 350 c 0
 220 341 219 338 217 336 c 1
 216 334 213 330 211 327 c 1
 210 323 206 318 202 315 c 1
 198 311 196 308 196 303 c 0
 196 300 195 295 192 291 c 0
 189 286 189 283 189 275 c 1
 190 269 191 264 193 263 c 1
 194 261 202 261 218 260 c 0
 237 260 243 259 246 257 c 0
 248.5 255.5 249.75 254.75 251.5 254.75 c 0
 253.25 254.75 255.5 255.5 260 257 c 0
 267 260 276 260 296 261 c 0
 318 261 323 260 331 257 c 0
 335.5 255.5 338 254.75 340 254.75 c 0
 342 254.75 343.5 255.5 346 257 c 0
 351 259 358 260 391 260 c 0
 413 260 437 260 445 261 c 0
 458 262 459 262 462 267 c 0
 464 270 465 275 465 278 c 0
 465 280 462 287 457 294 c 0
 453 300 449 307 449 309 c 0
 449 311 448 315 446 317 c 0
 444 320 442 325 442 328 c 1
 441 331 439 338 437 343 c 1
 434 348 432 356 431 361 c 0
 430 366 428 373 426 377 c 0
 423 382 421 388 421 391 c 0
 421 394 420 401 417 407 c 0
 415 412 412 419 410 421 c 1
 409 423 407 428 407 431 c 0
 407 435 406 439 403 442 c 0
 401 445 397 451 395 456 c 0
 393 462 389 467 388 469 c 1
 385 471 384 474 384 480 c 0
 384 485 383 490 378 498 c 0
 375 504 371 511 371 515 c 1
 370 519 368 524 367 526 c 0
 365 529 364 532 364 536 c 1
 365 539 364 544 361 550 c 0
 358 556 356 562 356 565 c 0
 356 568 354 574 351 579 c 2
 349 585 343 592 339 597 c 0
350 697 m 0
 353 698 356 699 358 699 c 0
 359 699 362 698 366 696 c 0
 369 695 373 692 376 689 c 0
 378 686 382 680 384 674 c 1
 387 669 391 662 394 659 c 0
 399 655 400 652 401 644 c 0
 402 639 404 631 406 625 c 0
 407 620 409 615 409 613 c 0
 409 611 411 607 413 605 c 0
 415 602 419 594 422 588 c 1
 424 581 427 574 427 572 c 0
 427 570 428 566 430 562 c 0
 432 559 436 553 439 551 c 1
 443 546 444 544 444 537 c 0
 444 531 445 528 448 526 c 1
 449 524 451 520 452 516 c 0
 453 511 455 506 458 503 c 0
 462 499 463 495 463 491 c 0
 463 487 465 480 466 475 c 1
 468 470 470 465 471 464 c 1
 471 464 472 460 472 456 c 0
 472 452 474 447 476 443 c 0
 479 439 482 435 483 434 c 1
 485 433 486 430 486 429 c 0
 486 428 487 425 489 423 c 1
 490 420 492 415 492 411 c 1
 493 407 498 394 504 383 c 0
 510 372 514 361 514 359 c 0
 514 357 516 354 517 352 c 0
 518 350 520 347 520 345 c 0
 520 343 521 339 523 337 c 0
 525 334 527 329 527 326 c 0
 527 323 528 317 530 313 c 0
 533 309 534 304 534 301 c 0
 534 297 535 294 538 290 c 0
 540 287 543 284 544 282 c 0
 545 280 546 275 547 272 c 1
 547 269 550 264 553 261 c 0
 556 258 558 253 559 250 c 0
 560 247 561 242 561 239 c 1
 562 236 564 232 566 231 c 0
 569 229 571 226 571 224 c 0
 571 222 572 215 574 210 c 0
 576 204 579 198 581 196 c 0
 583 194 585 188 585 182 c 1
 586 176 587 170 588 168 c 1
 589 167 590 164 590 162 c 0
 590 160 592 157 594 155 c 0
 597 153 599 151 599 147 c 0
 599 145 600 141 602 139 c 1
 604 138 606 134 606 131 c 0
 606 128 608 120 610 113 c 0
 613 106 616 98 617 94 c 2
 619 90 621 85 622 83 c 1
 624 81 625 78 625 76 c 0
 625 75 628 71 631 67 c 1
 636 63 638 59 639 54 c 0
 640 50 643 42 647 37 c 0
 650 32 653 25 654 22 c 0
 654.5 20.5 654.75 19 654.75 17.875 c 0
 654.75 16.75 654.5 16 654 16 c 1
 653 15 636 14 615 14 c 0
 603.875 13.6914 596.093 13.4775 590.413 13.4775 c 0
 577.713 13.4775 575.527 14.5449 569.999 18 c 0
 560.999 22 560.999 22 559.999 31 c 0
 558.999 35 557.999 42 555.999 45 c 0
 553.999 47 552.999 51 552.999 53 c 0
 552.999 55 550.999 59 548.999 64 c 0
 546.999 68 543.999 73 542.999 75 c 0
 540.999 78 536.999 86 533.999 93 c 0
 529.999 100 527.999 109 527.999 114 c 1
 526.999 120 525.999 123 520.999 127 c 0
 517.999 130 513.999 134 512.999 136 c 0
 511.999 138 510.999 144 510.999 149 c 0
 510.999 155 509.999 158 506.999 161 c 0
 504.999 163 503.999 165 503.999 168 c 1
 504.999 171 503.999 175 502.999 178 c 1
 500.999 181 498.999 184 497.999 185 c 1
 496.999 185 493.999 186 491.999 186 c 0
 489.999 186 485.999 188 483.999 191 c 0
 478.999 196 478.999 196 435.999 196 c 2
 350.999 196 l 1
 303.999 196 l 1
 274.999 196 l 2
 258.999 197 247.999 198 244.999 199 c 0
 240.999 201 236.999 202 233.999 202 c 0
 231.999 202 226.999 200 221.999 198 c 0
 215.999 195 211.999 195 201.999 196 c 0
 194.999 197 188.999 198 186.999 199 c 1
 185.999 201 181.999 202 177.999 202 c 0
 173.999 202 169.999 201 167.999 199 c 0
 165.999 197 162.999 195 160.999 194 c 0
 157.999 193 154.999 187 150.999 178 c 0
 147.999 170 143.999 163 142.999 162 c 1
 140.999 162 137.999 160 136.999 160 c 1
 134.999 159 133.999 155 133.999 147 c 0
 133.999 136 133.999 135 126.999 126 c 0
 120.999 119 118.999 115 118.999 111 c 0
 118.999 108 117.999 103 115.999 100 c 0
 113.999 96 111.999 91 111.999 88 c 0
 111.999 85 109.999 80 106.999 76 c 0
 104.999 72 100.999 65 97.999 60 c 0
 94.999 55 92.999 47 91.999 41 c 0
 90.999 35 88.999 27 86.999 22 c 1
 83.999 17 80.999 14 77.999 13 c 1
 60.999 13 l 2
 53.999 13 46.999 14 44.999 14 c 0
 43.999 14 36.999 14 29.999 13 c 0
 27.6562 12.707 25.4844 12.5859 23.5098 12.5859 c 0
 18.7422 12.5859 15.1211 13.293 13 14 c 0
 9 15 8 16 9 20 c 1
 10 22 11 28 12 33 c 0
 13 38 14 45 15 47 c 0
 16 50 20 56 24 61 c 0
 28 66 31 71 31 73 c 0
 31 74 34 78 37 81 c 0
 41 85 42 87 41 91 c 0
 40 94 41 99 44 106 c 0
 47 111 50 121 51 126 c 0
 53 132 54 141 54 145 c 0
 54 151 55 154 59 158 c 0
 61 161 63 165 63 167 c 0
 63 169 65 173 66 177 c 2
 68 181 70 185 70 186 c 0
 70 187 72 193 75 199 c 0
 78 205 83 211 86 214 c 0
 89 216 92 220 93 223 c 0
 94 226 95 233 95 237 c 0
 96 243 98 246 103 251 c 0
 107 255 109 257 108 260 c 0
 107 262 108 266 111 271 c 0
 114 275 117 283 118 291 c 0
 120 299 121 305 121 305 c 1
 121 305 123 306 126 307 c 0
 130 309 132 311 133 314 c 1
 133 316 133 321 132 325 c 0
 130 330 130 333 132 336 c 1
 133 339 135 344 138 348 c 0
 141 352 145 356 148 357 c 1
 150 359 153 362 154 364 c 1
 154 367 154 371 153 373 c 0
 152 376 152 378 153 382 c 1
 155 385 159 390 163 392 c 0
 169 396 170 399 172 405 c 0
 173 410 174 418 175 423 c 1
 175 428 177 436 178 439 c 0
 179 442 181 447 184 450 c 0
 186 453 188 456 188 461 c 0
 188 467 189 469 195 475 c 0
 202 483 203 483 203 494 c 0
 203 503 204 506 207 510 c 0
 209 513 211 518 211 522 c 0
 212 528 214 532 219 536 c 0
 223 540 228 543 230 543 c 1
 233 544 235 547 237 552 c 1
 238 557 238 563 238 567 c 0
 237 572 238 576 240 583 c 0
 242 588 244 594 244 596 c 0
 244 597 246 601 248 603 c 0
 250 606 254 612 256 616 c 0
 258 621 260 627 260 629 c 1
 261 632 263 637 265 639 c 0
 267 642 270 650 271 657 c 0
 273 664 275 671 276 672 c 0
 277 673 278 677 280 681 c 1
 281 686 284 690 287 693 c 0
 291 696 294 696 318 696 c 0
 333 696 347 696 350 697 c 0
358 888 m 0
 354 892 353 892 340 892 c 0
 329 892 324 891 319 888 c 0
 315 886 307 884 301 884 c 0
 293 883 289 882 286 878 c 1
 283 876 281 873 281 872 c 1
 275 862 l 2
 270 855 269 852 268 839 c 0
 267 831 267 822 268 819 c 2
 268 816 270 811 272 809 c 0
 274 807 276 802 277 799 c 0
 278 796 283 789 289 784 c 0
 294 779 298 774 298 772 c 0
 298 771 301 769 304 768 c 0
 307 767 318 766 328 766 c 0
 345 766 348 766 350 769 c 0
 352 771 356 774 359 775 c 0
 362 776 369 783 375 789 c 0
 385 800 385 800 385 822 c 0
 385 840 385 845 382 848 c 1
 381 851 379 855 379 858 c 0
 379 861 378 866 376 869 c 2
 371 879 l 1
 370 880 368 882 366 883 c 1
 364 883 360 886 358 888 c 0
304 916 m 0
 311.102 920.261 314.167 921.496 319.287 921.496 c 0
 321.378 921.496 323.811 921.29 326.999 921 c 0
 336.999 921 341.999 919 354.999 913 c 0
 363.999 908 374.999 901 378.999 898 c 1
 382.999 894 387.999 889 390.999 887 c 0
 393.999 884 397.999 880 398.999 878 c 0
 400.999 875 401.999 871 401.999 870 c 0
 401.999 868 403.999 865 405.999 863 c 0
 407.999 861 409.999 857 411.999 855 c 1
 412.999 852 413.999 844 413.999 830 c 0
 413.999 813 413.999 808 410.999 803 c 0
 408.999 799 406.999 795 406.999 793 c 0
 406.999 792 403.999 786 399.999 782 c 0
 395.999 777 389.999 770 385.999 766 c 2
 382.999 762 378.999 758 375.999 758 c 1
 372.999 757 368.999 756 364.999 754 c 0
 361.999 753 357.999 752 356.999 752 c 0
 354.999 752 351.999 750 348.999 748 c 0
 346.999 746 339.999 744 331.999 744 c 0
 328.271 743.586 325.401 743.343 323.034 743.343 c 0
 319.686 743.343 317.343 743.828 315 745 c 0
 312 747 305 749 299 751 c 0
 291 753 287 755 284 759 c 0
 281 763 277 765 272 766 c 0
 265 768 264 769 262 775 c 0
 261 779 259 783 257 784 c 1
 256 785 253 791 251 796 c 0
 249 802 246 812 246 818 c 1
 245 824 244 830 243 830 c 1
 243 831 244 837 245 843 c 0
 246 849 247 855 246 856 c 1
 246 858 246 860 247 861 c 0
 249 863 251 864 253 864 c 0
 255 864 256 865 257 866 c 0
 258 867 258 869 259 871 c 1
 259 874 264 879 269 885 c 0
 274 890 279 894 281 894 c 0
 283 894 286 896 289 898 c 0
 293 901 295 904 294 907 c 1
 294 910 296 912 304 916 c 0
EndSplineSet
Validated: 33
EndChar
StartChar: uni00C7
Encoding: 199 199 134
Width: 629
GlyphClass: 2
Flags: W
LayerCount: 2
Fore
SplineSet
312 731 m 1
 315 731 319 732 321 732 c 0
 323 732 331 731 338 730 c 0
 346 728 356 726 361 725 c 0
 366 724 381 724 395 724 c 0
 417 724 420 724 428 720 c 0
 433 718 438 715 439 715 c 1
 441 714 445 713 448 712 c 0
 451 711 456 710 458 708 c 1
 461 707 464 706 466 706 c 0
 467 706 472 704 475 701 c 0
 478 698 486 695 492 693 c 0
 500 690 504 688 508 683 c 0
 511 678 515 676 519 675 c 0
 524 674 528 672 534 663 c 0
 539 657 543 650 544 648 c 0
 545 645 549 639 555 634 c 0
 563 626 564 625 563 620 c 0
 563 616 563 614 568 611 c 0
 571 609 573 606 573 603 c 0
 573 601 574 598 575 596 c 1
 577 595 578 590 579 586 c 0
 580 582 581 578 582 576 c 1
 583 575 584 568 585 562 c 1
 585 553 584 549 582 548 c 1
 580 546 578 546 572 547 c 1
 567 549 563 549 557 547 c 0
 553 546 544 545 538 545 c 0
 531 545 524 544 521 544 c 1
 517 542 515 543 507 550 c 0
 499 557 497 560 495 569 c 0
 493 575 492 583 491 587 c 1
 491 591 489 594 485 597 c 0
 482 599 480 602 480 603 c 0
 480 605 476 612 471 619 c 0
 466 626 459 634 455 637 c 0
 451 640 445 643 443 644 c 0
 440 645 435 649 430 652 c 0
 422 658 420 658 410 658 c 0
 401 658 397 659 391 663 c 0
 385.472 666.455 383.764 667.522 370.369 667.522 c 0
 364.379 667.522 356.052 667.309 344 667 c 0
 309 666 304 665 298 662 c 0
 294 660 287 658 284 658 c 0
 281 658 274 657 270 655 c 0
 265 653 257 649 251 647 c 1
 246 644 239 639 235 636 c 1
 231 632 225 628 221 625 c 0
 218 623 214 619 213 616 c 0
 212 613 208 607 204 604 c 0
 200 601 195 594 192 589 c 1
 190 584 186 578 185 576 c 1
 183 574 180 567 178 561 c 0
 176 555 174 549 175 548 c 1
 176 546 174 543 172 541 c 1
 170 540 167 536 166 534 c 1
 164 532 164 529 164 526 c 1
 163 524 162 521 161 519 c 1
 159 517 158 513 158 509 c 0
 158 505 157 501 154 498 c 1
 151 493 150 491 150 473 c 0
 150 453 150 453 145 449 c 0
 141 446 141 444 142 441 c 1
 143 440 144 431 144 422 c 0
 144 410 143 405 141 401 c 0
 138 396 138 394 139 387 c 0
 140 382 142 373 143 366 c 1
 143 351 l 1
 142 348 142 345 143 343 c 1
 143 341 144 325 144 307 c 0
 144 281 144 273 147 267 c 1
 148 262 149 257 149 254 c 0
 149 252 151 248 154 246 c 0
 158 242 158 240 158 233 c 1
 157 229 157 223 158 219 c 2
 162 207 l 2
 163 204 167 197 171 193 c 1
 174 189 178 183 180 179 c 0
 182 176 183 171 183 167 c 0
 183 160 184 159 193 152 c 0
 199 147 204 142 205 139 c 0
 206 136 209 131 212 127 c 0
 214 124 219 120 223 119 c 1
 227 117 231 114 231 112 c 1
 232 110 235 108 238 107 c 0
 241 106 246 105 248 106 c 1
 251 106 255 104 257 102 c 0
 260 99 264 98 268 98 c 0
 272 98 278 97 281 96 c 1
 283 94 294 93 304 92 c 0
 314.99 90.9014 324 90 326 88 c 0
 329 86 334 86 344 86 c 0
 353 87 359 88 361 90 c 1
 363 91 369 92 377 92 c 0
 385 92 394 94 403 97 c 0
 410 99 419 103 422 104 c 0
 426 106 430 107 431 106 c 0
 432 105 435 106 438 107 c 0
 442 108 445 110 446 112 c 1
 446 114 449 117 452 118 c 1
 463 129 l 1
 466 134 469 139 470 141 c 0
 471 143 476 150 482 156 c 0
 487 162 493 169 493 172 c 2
 494 174 493 178 492 182 c 0
 491 186 491 189 494 194 c 0
 497 201 498 202 506 203 c 1
 512 205 520 205 526 205 c 2
 550 205 l 2
 560 206 567 205 570 203 c 1
 574 202 576 199 577 194 c 1
 579 189 579 184 578 179 c 0
 577 175 575 170 573 168 c 1
 572 166 571 163 571 162 c 0
 571 160 569 157 568 155 c 0
 566 152 564 148 564 145 c 0
 564 143 563 137 561 134 c 1
 560 130 559 126 559 125 c 0
 559 124 557 120 555 118 c 0
 553 116 552 112 552 111 c 0
 552 109 550 106 549 105 c 0
 547 103 541 99 535 96 c 0
 529 93 521 89 518 89 c 1
 514 88 511 86 511 85 c 1
 510 83 510 81 510 79 c 0
 510 77 508 74 507 73 c 0
 505 71 502 70 499 70 c 0
 496 70 491 67 485 63 c 0
 480 59 475 56 474 56 c 0
 473 56 470 54 467 52 c 0
 463 48 460 47 454 47 c 0
 450 47 443 46 438 44 c 0
 434 43 428 40 426 38 c 0
 423 35 420 35 413 36 c 0
 406 37 404 36 398 33 c 1
 393 29 389 28 374 27 c 0
 357.009 25.8672 357 26 348 18 c 0
 343 13 339 8 337 2 c 0
 335 -2 334 -11 334 -17 c 0
 333 -26 334 -29 336 -31 c 0
 339 -34 343 -34 360 -34 c 0
 376 -34 382 -35 384 -37 c 0
 386 -39 391 -42 395 -44 c 1
 398 -47 404 -50 407 -51 c 0
 410 -52 413 -54 413 -56 c 0
 413 -57 415 -60 418 -63 c 0
 420 -66 423 -69 424 -69 c 0
 425 -69 428 -70 429 -72 c 1
 432 -74 432 -77 431 -87 c 0
 431 -94 429 -101 428 -103 c 1
 426 -105 425 -111 424 -116 c 0
 423 -122 422 -126 419 -129 c 0
 417 -131 415 -134 415 -135 c 0
 415 -136 412 -138 410 -140 c 1
 407 -141 403 -142 402 -142 c 0
 401 -142 397 -145 395 -148 c 2
 392 -150 389 -155 388 -157 c 0
 386 -160 384 -161 375 -162 c 0
 369 -162 362 -164 359 -166 c 0
 355 -169 351 -170 334 -170 c 0
 322 -170 314 -171 312 -172 c 1
 311 -173 309 -174 307 -174 c 0
 306 -174 304 -173 302 -171 c 0
 301 -170 297 -169 293 -169 c 0
 289 -169 284 -170 282 -172 c 1
 280 -173 278 -174 277 -174 c 0
 275 -174 272 -172 268 -170 c 1
 265 -167 258 -164 253 -163 c 1
 248 -161 244 -158 243 -156 c 2
 242 -155 241 -151 241 -149 c 0
 241 -147 242 -144 244 -142 c 0
 245 -141 251 -139 256 -139 c 2
 262 -138 268 -138 270 -140 c 1
 272 -141 276 -142 279 -144 c 1
 283 -145 290 -145 297 -145 c 0
 305 -144 309 -144 310 -146 c 1
 311 -147 314 -148 318 -148 c 0
 321 -148 326 -146 328 -144 c 0
 331 -142 338 -141 345 -140 c 0
 357 -139 358 -138 364 -131 c 0
 368 -127 371 -122 372 -120 c 0
 373 -117 373 -108 373 -99 c 0
 373 -85 373 -83 369 -78 c 0
 366 -75 364 -71 364 -70 c 0
 364 -69 361 -66 359 -64 c 0
 356 -62 349 -59 344 -58 c 0
 339 -57 329 -56 320 -56 c 0
 312 -56 303 -57 300 -59 c 1
 297 -60 293 -61 292 -60 c 1
 290 -60 288 -58 286 -57 c 1
 284 -55 283 -52 283 -50 c 0
 283 -47 285 -43 288 -40 c 0
 290 -37 295 -33 297 -30 c 1
 300 -28 302 -24 302 -22 c 0
 302 -20 305 -15 308 -12 c 0
 311 -8 316 -3 319 1 c 0
 322 4 325 8 325 10 c 0
 325 11 322 16 317 20 c 0
 309 28 309 28 298 27 c 0
 290 27 286 27 283 30 c 0
 280 32 273 33 264 34 c 0
 253 35 248 36 237 42 c 0
 226 49 223 49 216 48 c 1
 209 48 207 48 203 51 c 0
 201 53 198 54 197 54 c 0
 195 54 193 55 191 57 c 2
 189 58 186 62 185 66 c 0
 184 71 181 75 178 77 c 0
 175 79 170 81 167 82 c 0
 162 83 157 87 145 99 c 0
 137 107 128 118 127 121 c 0
 125 125 122 129 120 130 c 0
 118 131 115 135 112 138 c 0
 109 142 108 145 108 147 c 1
 109 150 107 154 101 161 c 0
 95 170 93 174 93 180 c 0
 93 186 92 188 89 191 c 0
 86 193 85 196 85 202 c 0
 85 207 84 212 82 215 c 0
 81 217 79 221 79 222 c 0
 79 224 77 229 75 233 c 0
 72 237 71 242 71 246 c 1
 70 249 69 254 67 257 c 0
 64 260 64 265 63 283 c 0
 62 295 61 307 60 309 c 0
 59 311 58 318 58 324 c 0
 58.333 326.333 58.4443 330.556 58.4443 335.963 c 0
 58.4443 346.777 58 362.333 58 377 c 0
 57.667 384.667 57.5557 392.556 57.5557 400 c 0
 57.5557 414.889 58 428 58 434 c 0
 59 442 61 454 62 460 c 0
 63 466 64 475 65 481 c 0
 66 487 67 493 68 494 c 1
 70 495 70 497 70 498 c 0
 70 500 72 503 75 506 c 1
 78 511 79 514 79 520 c 0
 79 525 80 531 82 533 c 1
 83 536 85 541 85 545 c 1
 86 549 88 554 89 556 c 0
 90 558 92 561 92 563 c 0
 92 564 93 566 96 568 c 0
 100 570 100 572 100 579 c 0
 100 587 100 589 105 594 c 0
 108 597 112 603 114 606 c 0
 116 610 125 619 132 627 c 0
 143 638 147 644 149 649 c 1
 150 655 152 656 160 661 c 1
 166 663 171 666 171 668 c 1
 172 669 178 673 184 677 c 1
 191 680 198 684 199 686 c 1
 201 688 203 690 204 690 c 0
 205 690 210 693 216 697 c 0
 222 702 228 704 231 704 c 0
 234 704 242 706 250 708 c 1
 257 711 267 714 272 715 c 2
 277 717 283 718 285 718 c 0
 287 718 289 720 290 722 c 0
 291 724 294 725 295 725 c 0
 297 725 301 726 303 727 c 0
 305 728 309 730 312 731 c 1
EndSplineSet
Validated: 33
EndChar
StartChar: uni00E6
Encoding: 230 230 165
Width: 823
GlyphClass: 2
Flags: W
LayerCount: 2
Fore
SplineSet
263 253 m 0
 260 255 255.002 256.001 253.002 256.001 c 0
 250.002 256.001 248.002 256.001 247.002 255.001 c 1
 247.002 255.001 242.002 253.001 238.002 253.001 c 0
 233.002 252.001 228.002 250.001 227.002 248.001 c 1
 224.002 246.001 218.002 246.001 200.002 245.001 c 0
 180.002 245.001 177.002 245.001 174.002 242.001 c 0
 172.002 240.001 167.002 238.001 164.002 236.001 c 1
 160.002 235.001 156.002 232.001 155.002 229.001 c 0
 153.002 225.001 150.002 222.001 149.002 220.001 c 1
 148.002 219.001 144.002 218.001 139.002 218.001 c 0
 131.002 218.001 130.002 217.001 124.002 209.001 c 1
 120.002 205.001 116.002 200.001 115.002 199.001 c 0
 113.002 197.001 112.002 195.001 111.002 193.001 c 0
 110.002 191.001 109.002 176.001 109.002 158.001 c 0
 109.002 133.001 109.002 124.001 111.002 120.001 c 0
 113.002 117.001 114.002 113.001 115.002 110.001 c 0
 116.002 107.001 119.002 103.001 124.002 100.001 c 0
 128.002 97.001 132.002 93.001 133.002 91.001 c 1
 133.002 90.001 136.002 87.001 140.002 85.001 c 0
 144.002 83.001 149.002 79.001 151.002 76.001 c 0
 153.002 74.001 156.002 72.001 157.002 72.001 c 0
 158.002 72.001 160.002 70.001 163.002 69.001 c 2
 166.002 67.001 174.002 64.001 182.002 62.001 c 0
 189.002 60.001 197.002 59.001 198.002 59.001 c 0
 200.002 59.001 204.002 58.001 209.002 57.001 c 0
 210.659 56.5869 212.487 56.3447 214.345 56.3447 c 0
 216.972 56.3447 219.658 56.8301 222.001 58.002 c 1
 226.001 59.002 229.001 59.002 231.001 58.002 c 0
 234.001 57.002 239.001 57.002 247.001 58.002 c 0
 254.001 58.002 263.001 61.002 268.001 63.002 c 0
 274.001 65.002 279.001 68.002 281.001 69.002 c 1
 283.001 71.002 286.001 72.002 289.001 73.002 c 0
 292.001 74.002 296.001 75.002 297.001 76.002 c 1
 298.001 78.002 301.001 79.002 303.001 79.002 c 0
 306.001 79.002 311.001 83.002 317.001 89.002 c 0
 323.001 95.002 330.001 101.002 333.001 103.002 c 0
 337.001 105.002 340.001 107.002 341.001 109.002 c 2
 342.001 110.002 343.001 113.002 343.001 116.002 c 1
 344.001 118.002 347.001 125.002 351.001 131.002 c 0
 357.001 140.002 358.001 143.002 358.001 150.002 c 0
 358.001 158.002 359.001 160.002 362.001 162.002 c 0
 366.001 164.002 366.001 166.002 366.001 192.002 c 0
 367.001 208.002 368.001 221.002 369.001 225.002 c 0
 369.708 227.83 370.415 231.158 370.415 234.633 c 0
 370.415 240.087 368.36 247.82 366 249 c 1
 365 251 355 252 342 252 c 0
 328 253 317 252 311 251 c 0
 304 249 300 249 293 251 c 0
 285 253 281 253 276 251 c 0
 270 249 268 249 263 253 c 0
621.002 443.001 m 0
 615.002 448.001 615.002 448.001 586.002 448.001 c 2
 551.002 448.001 l 2
 548.002 448.001 539.002 446.001 532.002 445.001 c 0
 525.002 443.001 517.002 442.001 515.002 441.001 c 1
 513.002 441.001 506.002 435.001 500.002 429.001 c 0
 494.002 423.001 487.002 418.001 486.002 418.001 c 0
 484.002 418.001 478.002 413.001 472.002 407.001 c 0
 467.002 401.001 462.002 395.001 462.002 394.001 c 0
 462.002 393.001 460.002 391.001 459.002 390.001 c 1
 457.002 389.001 454.002 385.001 453.002 381.001 c 0
 452.002 378.001 450.002 373.001 448.002 371.001 c 1
 447.002 369.001 446.002 366.001 446.002 363.001 c 0
 446.002 360.001 444.002 355.001 442.002 352.001 c 1
 437.002 348.001 437.002 346.001 438.002 338.001 c 0
 439.002 333.001 441.002 327.001 443.002 323.001 c 0
 445.002 319.001 446.002 314.001 446.002 312.001 c 0
 446.002 309.001 448.002 306.001 451.002 303.001 c 0
 454.002 301.001 460.002 298.001 463.002 297.001 c 1
 467.002 297.001 470.002 297.001 472.002 299.001 c 0
 475.002 302.001 480.002 302.001 504.002 303.001 c 0
 530.002 303.001 534.002 303.001 539.002 300.001 c 0
 543.002 298.001 547.002 297.001 550.002 297.001 c 0
 552.002 297.001 558.002 298.001 564.002 300.001 c 0
 573.002 302.001 575.002 302.001 580.002 300.001 c 1
 583.002 298.001 591.002 296.001 598.002 296.001 c 0
 608.002 295.001 610.002 295.001 616.002 298.001 c 1
 620.002 301.001 625.002 302.001 634.002 302.001 c 0
 643.002 302.001 648.002 301.001 650.002 299.001 c 0
 651.002 298.001 658.002 296.001 665.002 296.001 c 0
 676.002 295.001 679.002 295.001 681.002 298.001 c 1
 683.002 299.001 685.002 302.001 685.002 303.001 c 0
 685.002 304.001 687.002 309.001 690.002 315.001 c 0
 693.002 321.001 695.002 330.001 696.002 334.001 c 0
 696.368 336.563 696.601 338.724 696.601 340.678 c 0
 696.601 344.063 695.904 346.831 694.002 350.001 c 0
 692.002 354.001 690.002 360.001 690.002 363.001 c 0
 690.002 367.001 688.002 372.001 686.002 376.001 c 0
 684.002 380.001 680.002 388.001 678.002 394.001 c 0
 676.002 399.001 672.002 406.001 669.002 408.001 c 2
 654.002 423.001 l 2
 646.002 430.001 640.002 434.001 635.002 435.001 c 0
 631.002 436.001 624.002 440.001 621.002 443.001 c 0
563.002 503.001 m 1
 565.002 505.001 568.003 507.002 569.003 507.002 c 0
 570.003 507.002 574.003 506.002 577.003 504.002 c 0
 580.003 502.002 588.003 500.002 596.003 500.002 c 0
 604.003 499.002 612.003 497.002 614.003 496.002 c 1
 616.003 494.002 621.003 493.002 625.003 493.002 c 0
 629.003 493.002 633.003 493.002 633.003 492.002 c 1
 634.003 491.002 639.003 489.002 644.003 487.002 c 1
 650.003 486.002 657.003 485.002 660.003 485.002 c 1
 663.003 486.002 666.003 485.002 669.003 483.002 c 0
 671.003 481.002 675.003 479.002 677.003 479.002 c 0
 680.003 479.002 682.003 477.002 685.003 473.002 c 0
 687.003 470.002 690.003 467.002 693.003 466.002 c 0
 696.003 465.002 703.003 460.002 709.003 452.002 c 0
 715.003 445.002 724.003 436.002 729.003 432.002 c 2
 738.003 423.002 l 1
 738.003 422.002 740.003 417.002 742.003 411.002 c 0
 744.003 406.002 748.003 397.002 751.003 393.002 c 1
 754.003 386.002 755.003 383.002 754.003 378.002 c 0
 753.003 374.002 754.003 371.002 758.003 365.002 c 0
 762.003 358.002 762.003 355.002 762.003 343.002 c 0
 761.003 330.002 762.003 328.002 765.003 324.002 c 0
 768.003 321.002 769.003 318.002 769.003 312.002 c 0
 769.003 306.002 768.003 303.002 765.003 300.002 c 0
 762.003 298.002 761.003 295.002 761.003 293.002 c 0
 761.003 291.002 762.003 287.002 764.003 284.002 c 0
 766.003 281.002 768.003 274.002 768.003 269.002 c 2
 769.003 264.002 769.003 258.002 768.003 256.002 c 1
 766.003 254.002 764.003 253.002 758.003 253.002 c 0
 754.003 253.002 745.003 252.002 738.003 252.002 c 0
 728.003 252.002 723.003 253.002 719.003 255.002 c 0
 716.003 257.002 709.003 258.002 704.003 258.002 c 0
 698.003 258.002 694.003 257.002 692.003 255.002 c 0
 689.003 253.002 684.003 252.002 667.003 252.002 c 0
 652.003 251.002 645.003 250.002 642.003 248.002 c 0
 639.003 246.002 637.003 246.002 633.003 248.002 c 1
 629.003 249.002 624.003 249.002 615.003 248.002 c 0
 603.003 245.002 602.003 245.002 596.003 249.002 c 0
 591.003 252.002 588.003 253.002 580.003 252.002 c 0
 574.003 251.002 567.003 250.002 564.003 248.002 c 0
 557.003 245.002 557.003 246.002 548.003 250.002 c 0
 543.003 252.002 536.003 255.002 533.003 255.002 c 2
 529.003 256.002 525.003 256.002 521.003 254.002 c 0
 518.003 252.002 512.003 251.002 507.003 251.002 c 0
 502.003 251.002 495.003 251.002 491.003 252.002 c 0
 487.003 253.002 481.003 252.002 474.003 251.002 c 0
 466.003 249.002 463.003 249.002 458.003 251.002 c 0
 453.003 253.002 451.003 253.002 447.003 251.002 c 0
 444.003 250.002 441.003 247.002 440.003 245.002 c 0
 439.003 243.002 438.003 228.002 438.003 211.002 c 0
 437.67 201.335 437.448 194.669 437.448 189.854 c 0
 437.448 180.225 438.337 178.002 441.004 174.002 c 0
 444.004 169.002 445.004 165.002 444.004 159.002 c 0
 443.004 152.002 444.004 150.002 449.004 143.002 c 0
 452.004 139.002 455.004 134.002 455.004 132.002 c 0
 455.004 129.002 459.004 123.002 468.004 115.002 c 0
 477.004 105.002 481.004 100.002 482.004 95.002 c 0
 483.004 91.002 484.004 89.002 487.004 89.002 c 0
 488.004 89.002 491.004 87.002 493.004 85.002 c 0
 495.004 82.002 498.004 78.002 501.004 75.002 c 0
 505.004 71.002 506.004 71.002 514.004 71.002 c 0
 522.004 72.002 523.004 72.002 527.004 68.002 c 0
 530.004 65.002 534.004 63.002 536.004 63.002 c 0
 538.004 63.002 542.004 61.002 544.004 60.002 c 1
 546.004 57.002 550.004 56.002 555.004 56.002 c 0
 559.004 56.002 574.004 56.002 588.004 57.002 c 0
 609.004 57.002 615.004 57.002 619.004 60.002 c 0
 621.004 62.002 625.004 63.002 627.004 63.002 c 0
 629.004 63.002 632.004 65.002 634.004 68.002 c 1
 636.004 73.002 638.004 74.002 643.004 74.002 c 0
 649.004 74.002 650.004 74.002 652.004 78.002 c 0
 654.004 81.002 658.004 86.002 662.004 90.002 c 2
 665.004 94.002 671.004 99.002 674.004 102.002 c 0
 678.004 105.002 680.004 108.002 682.004 114.002 c 0
 683.004 118.002 683.004 125.002 682.004 130.002 c 0
 681.004 138.002 681.004 138.002 690.004 146.002 c 0
 698.004 153.002 699.004 154.002 711.004 155.002 c 0
 717.004 156.002 730.004 156.002 739.004 156.002 c 0
 748.004 155.002 756.004 155.002 756.004 154.002 c 1
 756.004 154.002 758.004 152.002 759.004 149.002 c 1
 761.004 147.002 762.004 144.002 762.004 142.002 c 0
 762.004 140.002 759.004 134.002 754.004 127.002 c 0
 750.004 120.002 746.004 114.002 746.004 112.002 c 0
 746.004 111.002 745.004 108.002 743.004 105.002 c 0
 741.004 102.002 740.004 98.002 739.004 94.002 c 1
 739.004 89.002 737.004 82.002 734.004 76.002 c 0
 731.004 70.002 728.004 65.002 727.004 65.002 c 0
 725.004 65.002 719.004 59.002 712.004 53.002 c 0
 705.004 46.002 697.004 39.002 694.004 37.002 c 0
 691.004 35.002 687.004 33.002 683.004 33.002 c 1
 680.004 34.002 673.004 32.002 667.004 30.002 c 0
 662.004 28.002 657.004 25.002 655.004 24.002 c 1
 654.004 22.002 650.004 21.002 646.004 20.002 c 0
 642.004 19.002 636.004 17.002 633.004 15.002 c 1
 629.004 14.002 624.004 12.002 621.004 12.002 c 0
 618.004 12.002 614.004 10.002 612.004 8.00195 c 0
 609.468 6.09961 607.735 5.40332 604.004 5.40332 c 0
 601.85 5.40332 599.029 5.63574 595.003 6.00195 c 0
 589.003 7.00195 583.003 8.00195 582.003 9.00195 c 1
 581.003 9.00195 576.003 11.002 570.003 12.002 c 0
 563.003 14.002 560.003 14.002 557.003 12.002 c 1
 554.003 11.002 549.003 10.002 543.003 11.002 c 0
 537.003 12.002 529.003 13.002 523.003 13.002 c 0
 518.003 13.002 512.003 14.002 510.003 15.002 c 0
 508.003 16.002 503.003 21.002 499.003 25.002 c 0
 494.003 31.002 490.003 33.002 487.003 33.002 c 0
 485.003 33.002 481.003 35.002 478.003 37.002 c 0
 476.003 39.002 473.003 40.002 471.003 40.002 c 0
 470.003 40.002 464.003 46.002 457.003 52.002 c 0
 450.003 59.002 442.003 70.002 438.003 77.002 c 0
 434.003 84.002 430.003 90.002 430.003 91.002 c 0
 430.003 93.002 427.003 97.002 423.003 102.002 c 0
 416.003 109.002 416.003 110.002 403.003 110.002 c 1
 396.003 111.002 388.003 111.002 387.003 110.002 c 2
 385.003 110.002 382.003 106.002 380.003 101.002 c 0
 378.003 97.002 376.003 90.002 376.003 87.002 c 0
 376.003 81.002 375.003 78.002 371.003 75.002 c 0
 369.003 73.002 365.003 68.002 364.003 65.002 c 0
 362.003 61.002 355.003 53.002 348.003 46.002 c 0
 336.003 33.002 336.003 33.002 325.003 34.002 c 0
 316.003 34.002 314.003 34.002 311.003 31.002 c 1
 310.003 29.002 308.003 28.002 307.003 28.002 c 0
 306.003 28.002 299.003 25.002 290.003 21.002 c 0
 277.003 14.002 273.003 13.002 262.003 13.002 c 0
 252.003 13.002 247.003 12.002 241.003 9.00195 c 0
 237.003 6.33496 234.336 5.44629 227.373 5.44629 c 0
 223.892 5.44629 219.336 5.66895 213.003 6.00195 c 0
 198.003 6.00195 191.003 7.00195 188.003 9.00195 c 1
 185.003 10.002 176.003 13.002 166.003 15.002 c 0
 156.003 16.002 147.003 18.002 144.003 19.002 c 0
 142.003 20.002 138.003 21.002 135.003 21.002 c 0
 132.003 21.002 126.003 23.002 121.003 25.002 c 1
 116.003 28.002 111.003 31.002 110.003 33.002 c 0
 109.003 35.002 107.003 37.002 105.003 37.002 c 0
 104.003 37.002 97.0029 40.002 90.0029 44.002 c 0
 84.0029 48.002 76.0029 53.002 73.0029 56.002 c 0
 70.0029 58.002 67.0029 63.002 66.0029 65.002 c 0
 64.0029 68.002 63.0029 72.002 63.0029 74.002 c 0
 63.0029 78.002 61.0029 80.002 56.0029 84.002 c 1
 50.0029 87.002 47.0029 91.002 45.0029 96.002 c 2
 43.0029 99.002 42.0029 105.002 42.0029 109.002 c 0
 42.0029 112.002 41.0029 117.002 39.0029 119.002 c 0
 37.0029 122.002 36.0029 128.002 36.0029 145.002 c 0
 35.7666 149.724 35.6416 153.441 35.6416 156.485 c 0
 35.6416 166.336 36.9463 169.126 40.002 176.001 c 0
 43.002 183.001 44.002 188.001 44.002 198.001 c 0
 44.002 210.001 44.002 211.001 50.002 216.001 c 1
 53.002 220.001 57.002 224.001 58.002 226.001 c 0
 59.002 228.001 62.002 231.001 64.002 232.001 c 0
 67.002 233.001 70.002 236.001 71.002 240.001 c 1
 74.002 246.001 77.0352 248.953 87.002 256.001 c 0
 94.0254 260.968 103.002 267.001 108.002 269.001 c 2
 113.002 272.001 120.002 275.001 124.002 275.001 c 0
 129.002 276.001 131.002 278.001 133.002 281.001 c 1
 134.002 284.001 137.002 286.001 138.002 287.001 c 1
 140.002 287.001 146.002 289.001 151.002 290.001 c 0
 156.002 291.001 162.002 293.001 164.002 294.001 c 0
 166.002 295.001 172.002 296.001 180.002 295.001 c 0
 192.002 294.001 193.002 295.001 197.002 299.001 c 0
 200.002 302.001 203.002 304.001 204.002 304.001 c 0
 206.002 304.001 212.002 302.001 218.002 299.001 c 0
 227.002 295.001 231.002 295.001 250.002 295.001 c 0
 269.002 295.001 273.002 295.001 279.002 298.001 c 0
 283.002 300.001 289.002 302.001 293.002 302.001 c 0
 297.002 302.001 302.002 301.001 304.002 298.001 c 1
 308.002 295.001 310.002 295.001 317.002 297.001 c 0
 322.002 298.001 327.002 299.001 328.002 300.001 c 1
 330.002 301.001 337.002 302.001 344.002 303.001 c 1
 351.002 303.001 358.002 304.001 358.002 304.001 c 1
 358.002 304.001 361.002 309.001 364.002 315.001 c 0
 368.002 323.001 369.002 326.001 367.002 328.001 c 1
 366.002 330.001 366.002 338.001 367.002 347.001 c 0
 367.002 360.001 367.002 364.001 363.002 376.001 c 0
 360.002 384.001 359.002 391.001 360.002 395.001 c 1
 360.002 399.001 359.002 403.001 358.002 405.001 c 0
 357.002 407.001 355.002 409.001 353.002 409.001 c 0
 351.002 409.001 346.002 413.001 341.002 418.001 c 0
 337.002 422.001 331.002 427.001 328.002 429.001 c 1
 325.002 430.001 319.002 433.001 316.002 437.001 c 1
 312.002 440.001 307.002 443.001 304.002 445.001 c 0
 301.002 447.001 296.002 448.001 292.002 447.001 c 1
 289.002 447.001 285.002 448.001 283.002 450.001 c 0
 281.002 452.001 277.002 453.001 270.002 453.001 c 0
 265.002 453.001 256.002 452.001 251.002 451.001 c 1
 243.002 448.001 237.002 448.001 221.002 449.001 c 0
 202.002 449.001 199.002 449.001 194.002 446.001 c 0
 190.002 444.001 186.002 442.001 183.002 442.001 c 0
 181.002 442.001 175.002 440.001 169.002 437.001 c 0
 164.002 434.001 158.002 430.001 156.002 429.001 c 1
 154.002 427.001 151.002 422.001 148.002 416.001 c 0
 146.002 411.001 144.002 406.001 144.002 405.001 c 0
 144.002 404.001 142.002 401.001 140.002 399.001 c 0
 138.002 397.001 136.002 393.001 136.002 389.001 c 0
 136.002 386.001 135.002 382.001 134.002 381.001 c 0
 132.002 379.001 123.002 378.001 101.002 378.001 c 0
 75.002 378.001 70.002 379.001 68.002 381.001 c 0
 66.002 383.001 65.002 387.001 64.002 394.001 c 1
 64.002 401.001 65.002 405.001 67.002 407.001 c 0
 69.002 409.001 71.002 414.001 71.002 419.001 c 0
 71.002 426.001 72.002 428.001 78.002 433.001 c 0
 83.002 437.001 87.002 443.001 88.002 447.001 c 0
 89.002 450.001 93.002 456.001 97.002 459.001 c 0
 100.002 461.001 105.002 464.001 108.002 465.001 c 0
 111.002 466.001 117.002 469.001 121.002 472.001 c 0
 125.002 475.001 131.002 478.001 133.002 478.001 c 0
 136.002 478.001 140.002 479.001 142.002 480.001 c 0
 144.002 481.001 149.002 485.001 154.002 488.001 c 0
 161.002 493.001 163.002 493.001 170.002 492.001 c 0
 176.002 491.001 178.002 492.001 182.002 496.001 c 1
 188.002 500.001 188.002 501.001 206.002 500.001 c 0
 222.009 499.111 226.002 500.001 231.002 502.001 c 1
 236.002 505.001 238.002 505.001 246.002 504.001 c 0
 251.002 503.001 263.002 501.001 271.002 500.001 c 0
 281.002 499.001 288.002 497.001 290.002 496.001 c 1
 293.002 493.001 297.002 493.001 309.002 493.001 c 0
 321.002 492.001 326.002 492.001 331.002 488.001 c 1
 335.002 486.001 339.002 484.001 340.002 483.001 c 1
 340.002 482.001 344.002 480.001 347.002 479.001 c 1
 350.002 477.001 360.002 469.001 370.002 460.001 c 0
 379.002 450.001 387.002 442.001 387.002 439.001 c 1
 388.002 437.001 389.002 432.001 390.002 429.001 c 0
 391.002 426.001 394.002 421.001 397.002 418.001 c 0
 399.002 415.001 404.002 411.001 406.002 410.001 c 0
 410.002 408.001 413.002 408.001 416.002 409.001 c 0
 418.002 410.001 425.002 416.001 431.002 422.001 c 0
 438.002 428.001 443.002 434.001 443.002 435.001 c 1
 443.002 435.001 445.002 440.001 448.002 444.001 c 0
 451.002 449.001 455.002 453.001 457.002 454.001 c 1
 458.002 454.001 464.002 459.001 468.002 465.001 c 1
 479.002 476.001 l 1
 479.002 477.001 483.002 478.001 487.002 479.001 c 1
 491.002 479.001 499.002 482.001 505.002 486.001 c 0
 511.002 489.001 520.002 492.001 524.002 493.001 c 1
 529.002 493.001 535.002 495.001 537.002 496.001 c 1
 538.002 498.001 544.002 499.001 550.002 499.001 c 0
 559.002 499.001 561.002 499.001 563.002 503.001 c 1
EndSplineSet
Validated: 33
EndChar
StartChar: uni00E7
Encoding: 231 231 166
Width: 475
GlyphClass: 2
Flags: W
LayerCount: 2
Fore
SplineSet
238 509 m 0
 241 511 245 512.999 247 512.999 c 0
 248 512.999 252 510.999 255 508.999 c 0
 260 505.999 263 505.999 281 505.999 c 0
 299 506.999 302 505.999 306 503.999 c 1
 308 501.999 313 499.999 318 499.999 c 0
 323 499.999 328 498.999 331 496.999 c 2
 334 495.999 336 493.999 336 492.999 c 0
 336 491.999 338 489.999 340 487.999 c 0
 342 485.999 346 484.999 349 484.999 c 0
 351 484.999 358 482.999 362 481.999 c 0
 368 479.999 375 474.999 384 466.999 c 0
 391 460.999 398 453.999 400 451.999 c 0
 402 449.999 406 442.999 409 435.999 c 0
 412 429.999 418 420.999 421 416.999 c 0
 423 412.999 426 408.999 426 407.999 c 0
 426 405.999 428 402.999 430 399.999 c 1
 435 395.999 435 394.999 433 388.999 c 0
 432 383.999 432 380.999 434 376.999 c 0
 435 373.999 436 368.999 436 365.999 c 0
 436 362.999 434 359.999 432 358.999 c 0
 429 357.999 418 356.999 401 356.999 c 0
 376 357.999 375 357.999 368 362.999 c 0
 365 364.999 361 368.999 360 369.999 c 0
 358 371.999 355 381.999 351 392.999 c 0
 348 403.999 343 415.999 341 418.999 c 2
 340 421.999 335 425.999 332 427.999 c 0
 329 429.999 326 432.999 326 433.999 c 0
 326 434.999 323 438.999 320 442.999 c 0
 317 446.999 313 448.999 311 449.999 c 1
 309 449.999 303 450.999 298 452.999 c 1
 289 454.999 282 455.999 245 455.999 c 0
 217 454.999 201 454.999 198 452.999 c 0
 196 451.999 194 449.999 192 448.999 c 1
 191 446.999 188 445.999 185 445.999 c 0
 182 445.999 179 443.999 177 441.999 c 0
 175 439.999 173 435.999 172 433.999 c 1
 172 430.999 168 425.999 165 421.999 c 1
 161 417.999 155 410.999 153 405.999 c 1
 150 401.999 146 395.999 144 392.999 c 0
 143 390.999 140 385.999 139 382.999 c 2
 137 379.999 136 371.999 136 365.999 c 0
 136 357.999 135 352.999 134 350.999 c 1
 132 349.999 130 343.999 127 337.999 c 1
 124 328.999 123 324.999 123 285.999 c 0
 123 261.999 122 239.999 122 235.999 c 0
 122 230.999 123 225.999 124 223.999 c 2
 128 215.999 l 2
 130 212.999 130 204.999 130 185.999 c 0
 130 159.999 130 158.999 134 153.999 c 0
 136 151.999 137 147.999 137 146.999 c 1
 136 144.999 138 142.999 141 139.999 c 0
 144 137.999 148 131.999 151 127.999 c 0
 154 123.999 157 117.999 159 114.999 c 0
 160 112.999 163 109.999 165 108.999 c 0
 167 107.999 171 104.999 173 102.999 c 0
 175 99.999 177 95.999 177 92.999 c 1
 178 89.999 180 86.999 182 85.999 c 0
 184 84.999 188 84.999 191 84.999 c 1
 194 85.999 196 84.999 197 82.999 c 1
 197 80.999 199 76.999 201 74.999 c 0
 204 70.999 206 70.999 224 69.999 c 0
 239 69.999 245 68.999 250 66.999 c 0
 256 63.999 259 62.999 270 63.999 c 0
 281 64.999 283 65.999 287 69.999 c 0
 289 72.999 294 75.999 298 76.999 c 0
 302 77.999 308 79.999 311 80.999 c 1
 314 82.999 319 84.999 321 85.999 c 1
 325 86.999 329 90.999 332 95.999 c 0
 335 100.999 341 107.999 345 113.999 c 0
 349 118.999 353 125.999 355 129.999 c 1
 356 133.999 358 143.999 359 151.999 c 0
 359 160.999 361 166.999 362 168.999 c 1
 364 170.999 368 172.999 371 174.999 c 1
 373.929 176.171 377.887 176.656 385.086 176.656 c 0
 390.177 176.656 396.888 176.414 406 176 c 0
 422 176 436 175 437 174 c 1
 437 173 438 170 439 165 c 1
 439 160 439 157 435 152 c 0
 433 149 431 146 431 144 c 0
 431 143 430 139 427 135 c 1
 424 129 424 127 426 122 c 0
 427 118 427 114 426 111 c 0
 425 109 419 101 411 94 c 0
 403 85 398 79 399 77 c 1
 399 76 398 73 396 70 c 0
 394 68 391 67 390 67 c 0
 388 67 386 64 385 60 c 1
 383 57 382 54 381 54 c 0
 380 54 377 54 374 53 c 2
 371 53 366 51 362 49 c 0
 359 47 352 41 346 36 c 0
 341 32 335 27 332 27 c 0
 330 27 326 26 323 25 c 0
 320 24 316 23 314 22 c 1
 312 20 306 19 292 20 c 0
 275 20 273 20 270 17 c 0
 268 15 264 12 260 10 c 0
 257 8 253 5 251 2 c 0
 249 -1 247 -5 245 -7 c 0
 243 -10 242 -15 241 -19 c 0
 240 -24 241 -27 243 -31 c 0
 245 -34 249 -38 251 -40 c 1
 255 -42 258 -43 264 -42 c 0
 271 -41 274 -42 278 -44 c 0
 282 -47 286 -48 296 -48 c 0
 308 -48 309 -48 315 -54 c 0
 319 -58 324 -64 328 -69 c 0
 331 -73 335 -79 337 -82 c 1
 338 -85 340 -92 341 -99 c 0
 342 -109 341 -111 338 -113 c 0
 336 -115 334 -120 334 -125 c 1
 333 -129 331 -135 330 -138 c 0
 329 -141 324 -147 320 -151 c 0
 316 -155 309 -160 305 -162 c 0
 301 -164 296 -165 295 -165 c 0
 293 -165 287 -168 281 -171 c 0
 274 -175 269 -176 262 -176 c 0
 255 -176 251 -177 248 -179 c 0
 246 -181 242 -184 239 -185 c 0
 237.343 -185.414 235.857 -185.656 234.26 -185.656 c 0
 232 -185.656 229.515 -185.171 226 -183.999 c 1
 221 -180.999 216 -180.999 208 -181.999 c 0
 201 -182.999 195 -181.999 189 -179.999 c 0
 185 -178.999 180 -175.999 178 -173.999 c 0
 176 -171.999 172 -170.999 169 -170.999 c 0
 165 -170.999 161 -168.999 160 -167.999 c 0
 158 -165.999 157 -163.999 157 -162.999 c 0
 157 -161.999 159 -157.999 161 -154.999 c 0
 164 -149.999 167 -147.999 172 -146.999 c 1
 194 -146.999 l 2
 203 -147.999 212 -149.999 216 -150.999 c 1
 220 -152.999 225 -154.999 228 -154.999 c 0
 231 -154.999 239 -151.999 246 -149.999 c 0
 253 -146.999 260 -142.999 262 -140.999 c 0
 264 -138.999 268 -136.999 270 -136.999 c 0
 274 -136.999 275 -135.999 278 -130.999 c 1
 279 -126.999 281 -120.999 282 -116.999 c 0
 283 -112.999 284 -106.999 285 -103.999 c 1
 285 -100.999 285 -97.999 284 -97.999 c 1
 283 -96.999 282 -94.999 282 -92.999 c 0
 282 -90.999 278 -85.999 274 -80.999 c 0
 269 -74.999 264 -71.999 262 -71.999 c 0
 259 -71.999 257 -70.999 255 -69.999 c 1
 254 -68.999 251 -66.999 249 -64.999 c 1
 247 -63.999 241 -62.999 237 -63.999 c 1
 212 -63.999 l 2
 202 -63.999 194 -62.999 192 -61.999 c 1
 190 -59.999 191 -58.999 197 -51.999 c 1
 202 -47.999 207 -38.999 210 -32.999 c 0
 213 -25.999 216 -21.999 219 -19.999 c 1
 222 -18.999 226 -15.999 228 -12.999 c 0
 231 -7.99902 233 -3.99902 233 1.00098 c 0
 233 5.00098 232 10.001 231 12.001 c 0
 230 14.001 226 16.001 222 18.001 c 0
 218 20.001 211 21.001 206 21.001 c 0
 201 21.001 195 22.001 192 23.001 c 0
 188 25.001 184 28.001 181 30.001 c 0
 177 34.001 176 35.001 169 34.001 c 0
 162 33.001 160 33.001 156 36.001 c 1
 154 39.001 151 40.001 150 40.001 c 0
 149 40.001 143 44.001 137 48.001 c 0
 130 53.001 122 60.001 118 64.001 c 0
 114 68.001 110 76.001 108 80.001 c 0
 106 87.001 104 88.001 98 91.001 c 1
 94 92.001 90 95.001 89 96.001 c 1
 88 98.001 86 102.001 85 105.001 c 0
 84 109.001 81 113.001 78 115.001 c 0
 74 119.001 73 121.001 73 126.001 c 0
 73 131.001 72 135.001 69 138.001 c 0
 67 141.001 66 145.001 66 150.001 c 0
 66 156.001 65 158.001 59 163.001 c 0
 52 170.001 52 170.001 52 181.001 c 2
 52 200.001 l 2
 52 205.001 51 212.001 49 216.001 c 0
 47 222.001 47 225.001 48 230.001 c 0
 49 234.001 50 241.001 50 245.001 c 0
 50 249.001 49 255.001 47 257.001 c 1
 46 260.001 44 267.001 44 273.001 c 0
 43.707 274.759 43.5859 276.602 43.5859 278.43 c 0
 43.5859 282.844 44.293 287.172 45 290 c 0
 46 293 48 298 49 300 c 0
 51 303 52 310 52 315 c 0
 52 322 53 327 55 330 c 0
 57 333 58 338 57 352 c 0
 57 367 57 369 61 373 c 0
 63 376 65 381 66 388 c 1
 66 393 68 400 70 403 c 0
 72 405 75 409 78 410 c 1
 80 412 84 415 86 417 c 1
 87 419 89 422 91 425 c 0
 92 427 94 431 95 432 c 0
 97 434 100 435 101 435 c 0
 103 435 110 441 116 447 c 0
 123 454 127 461 127 463 c 0
 127 465 129 468 130 470 c 1
 132 471 134 472 135 472 c 0
 136 472 140 475 144 478 c 1
 147 482 151 485 153 485 c 0
 155 485 161 488 168 492 c 0
 176 496 182 499 186 499 c 0
 190 499 194 500 197 503 c 0
 202 507 203 507 217 506 c 0
 230.005 505.071 233 506 238 509 c 0
EndSplineSet
Validated: 33
EndChar
StartChar: uni00EB
Encoding: 235 235 170
Width: 520
GlyphClass: 2
Flags: W
LayerCount: 2
Fore
SplineSet
295 452 m 0
 292 454 284 455 268 455 c 0
 261.5 455.5 254.25 455.75 247.875 455.75 c 0
 241.5 455.75 236 455.5 233 455 c 0
 225 455 220 453 217 451 c 0
 214 449 211 448 208 449 c 1
 206 449 201 449 199 448 c 0
 196 447 193 444 192 442 c 0
 191 439 187 436 182 434 c 0
 178 432 171 427 168 425 c 0
 165 422 160 414 157 408 c 0
 154 402 150 396 148 393 c 1
 145 391 143 387 142 385 c 1
 140 383 140 379 140 377 c 0
 140 375 136 365 132 355 c 0
 125 339 125 337 125 324 c 0
 125 312 126 308 129 303 c 0
 131 300 134 296 136 296 c 0
 137 296 146 295 155 295 c 0
 169 295 172 296 177 299 c 0
 182 303 185 303 195 303 c 0
 203 302 208 301 211 298 c 1
 216 295 218 295 225 296 c 0
 230 297 236 297 239 297 c 0
 242 297 253 297 264 296 c 0
 280 296 286 296 290 298 c 0
 295 300 297 301 308 298 c 1
 316 297 329 296 349 296 c 0
 365 296 379 297 380 298 c 1
 382 299 384 299 386 299 c 1
 389 298 389 300 389 310 c 0
 389 317 388 321 386 323 c 0
 384 325 384 328 385 341 c 0
 385 350 386 361 386 367 c 0
 386 374 385 378 381 383 c 0
 379 386 377 392 377 395 c 0
 377 398 375 401 374 402 c 0
 372 404 369 406 368 408 c 0
 367 410 365 414 363 416 c 0
 361 419 355 424 349 428 c 0
 342 432 337 436 335 440 c 0
 334 443 331 446 330 446 c 2
 329 447 322 448 314 449 c 0
 305 449 297 451 295 452 c 0
252 504 m 0
 255 506 259.001 507 277.001 507 c 0
 297.001 507 299.001 507 302.001 503 c 0
 305.001 499 306.001 499 323.001 499 c 0
 341.001 499 341.001 499 345.001 494 c 1
 346.001 491 350.001 487 352.001 485 c 1
 354.001 484 360.001 481 364.001 480 c 0
 369.001 478 375.001 477 378.001 477 c 0
 384.001 477 386.001 476 397.001 464 c 2
 422.001 438 l 2
 428.001 431 436.001 423 438.001 419 c 1
 439.001 415 442.001 409 442.001 405 c 1
 443.001 401 445.001 396 446.001 394 c 1
 448.001 392 449.001 389 449.001 386 c 0
 449.001 383 451.001 377 453.001 372 c 0
 457.001 365 458.001 362 457.001 356 c 0
 456.001 351 456.001 348 459.001 343 c 0
 461.001 339 463.001 332 464.001 328 c 1
 464.001 323 465.001 318 467.001 316 c 1
 468.001 314 470.001 307 470.001 297 c 0
 470.334 292.333 470.556 288.667 470.556 285.519 c 0
 470.556 279.223 469.667 275 467 269 c 0
 465 262 462 258 458 255 c 0
 453 252 451 252 403 252 c 0
 374 252 350 252 346 251 c 0
 343 250 335 249 328 249 c 0
 321 249 313 250 310 251 c 1
 307 251 287 252 266 252 c 0
 245 252 226 252 222 253 c 0
 216 255 214 254 211 252 c 0
 207 250 204 249 193 250 c 0
 185 251 171 251 161 251 c 0
 146 251 141 250 134 247 c 0
 128 244 126 242 123 235 c 0
 121 230 119 222 119 211 c 0
 118 196 118 194 122 190 c 0
 126 186 126 183 127 171 c 0
 128 156 128 155 133 153 c 1
 136 151 138 149 139 141 c 0
 141 132 143 129 149 123 c 0
 154 118 157 114 157 112 c 0
 157 110 160 105 163 101 c 0
 168 95 171 93 175 93 c 0
 177 93 181 92 182 90 c 0
 183 88 188 84 194 80 c 0
 199 76 205 71 208 69 c 0
 211 67 215 65 217 66 c 1
 219 66 222 65 226 62 c 0
 232 57 232 57 264 57 c 0
 293 58 297 58 301 61 c 2
 307 65 l 1
 308 65 314 68 321 71 c 0
 329 74 335 77 336 77 c 0
 337 77 340 80 343 83 c 1
 346 88 350 90 356 91 c 0
 361 92 366 94 367 95 c 1
 369 96 370 100 370 104 c 0
 370 108 372 115 375 122 c 0
 378 128 381 134 382 134 c 1
 383 135 384 139 385 144 c 0
 385 148 387 154 388 155 c 0
 390 158 391 158 399 156 c 0
 407 155 410 155 415 157 c 1
 420 160 422 160 427 158 c 0
 431 157 438 156 443 156 c 0
 448 156 453 155 454 154 c 0
 455 153 456 149 457 146 c 1
 457 142 457 136 455 131 c 0
 453 126 452 120 453 116 c 0
 454 110 454 109 450 106 c 0
 447 104 445 101 445 99 c 0
 445 97 443 93 441 90 c 0
 439 87 435 85 429 84 c 0
 421 83 421 83 420 73 c 0
 420 68 418 62 417 61 c 2
 416 59 413 57 410 57 c 1
 407 56 403 53 401 51 c 0
 398 48 394 45 392 45 c 0
 390 45 386 43 383 40 c 0
 378 36 375 35 369 35 c 0
 362 35 360 34 352 27 c 0
 347 23 340 18 336 17 c 1
 333 17 326 15 320 14 c 0
 315 13 309 12 307 13 c 1
 306 13 299 12 292 10 c 0
 282 7 275 6 264 6 c 0
 253 6 248 7 244 9 c 0
 240 12 235 13 212 13 c 0
 186 14 185 14 175 19 c 0
 170 22 164 26 163 28 c 1
 161 30 158 31 156 31 c 0
 153 31 149 34 145 37 c 0
 142 40 138 42 137 42 c 0
 135 42 129 46 124 51 c 0
 119 56 113 62 111 63 c 1
 109 65 108 68 108 71 c 0
 108 73 107 75 105 76 c 0
 103 77 99 80 97 83 c 0
 94 87 91 89 89 89 c 0
 88 89 86 92 84 95 c 0
 82 98 80 102 79 103 c 1
 77 104 76 109 76 113 c 2
 76 126 l 1
 75 129 74 133 72 135 c 0
 70 138 67 141 67 142 c 1
 66 144 64 147 63 149 c 0
 62 152 61 156 60 159 c 1
 60 162 59 166 58 168 c 1
 56 170 55 179 55 201 c 0
 54 224 53 232 51 236 c 0
 50 239 48 247 47 253 c 0
 46.707 255.05 46.5859 257.015 46.5859 258.793 c 0
 46.5859 263.086 47.293 266.293 48 267 c 0
 49 268 50 273 50 276 c 2
 51 280 50 286 49 290 c 1
 47 293 46 298 47 302 c 2
 47 306 49 311 52 314 c 1
 54 318 55 322 55 332 c 0
 55 338 54 346 53 349 c 0
 52 353 52 354 56 357 c 0
 59 360 60 363 61 370 c 0
 62 378 63 381 67 385 c 0
 70 388 73 392 73 393 c 0
 73 394 78 400 84 407 c 0
 90 415 97 424 99 430 c 0
 102 437 105 442 110 446 c 0
 114 449 118 451 120 451 c 0
 122 451 125 453 127 455 c 0
 129 457 131 461 133 464 c 1
 134 468 137 470 140 471 c 1
 143 471 150 475 156 478 c 1
 161 482 167 485 168 485 c 0
 169 485 173 487 176 489 c 0
 180 492 185 493 189 493 c 0
 193 493 199 495 202 497 c 0
 208 501 211 501 228 501 c 0
 245 501 248 501 252 504 c 0
153.001 704 m 0
 157.501 704.5 162.501 704.751 166.751 704.751 c 0
 171.001 704.751 174.501 704.501 176.001 704.001 c 2
 178.001 704.001 184.001 703.001 188.001 703.001 c 2
 199.001 703.001 l 1
 204.001 702.001 204.001 702.001 203.001 678.001 c 0
 203.001 665.001 202.001 649.001 202.001 642.001 c 0
 202.001 633.001 201.001 630.001 198.001 627.001 c 0
 195.001 624.001 192.001 623.001 175.001 623.001 c 0
 165.001 623.001 154.001 624.001 151.001 625.001 c 0
 149.001 626.001 144.001 627.001 141.001 627.001 c 0
 139.001 627.001 136.001 628.001 134.001 629.001 c 1
 133.001 631.001 132.001 634.001 131.001 638.001 c 1
 131.001 641.001 129.001 646.001 128.001 650.001 c 0
 127.001 653.001 125.001 661.001 125.001 666.001 c 0
 124.733 668.145 124.609 670.001 124.609 671.666 c 0
 124.609 676.216 125.537 679.34 127.001 683 c 0
 129.001 687 131.001 692 131.001 694 c 0
 131.001 697 132.001 699 133.001 700 c 0
 134.001 701 143.001 703 153.001 704 c 0
354.001 706.001 m 0
 357.661 707.465 360.25 708.393 364.513 708.393 c 0
 366.073 708.393 367.857 708.269 370.001 708.001 c 0
 376.001 708.001 382.001 707.001 383.001 706.001 c 0
 384.001 705.001 385.001 701.001 386.001 697.001 c 0
 387.001 692.001 386.001 688.001 384.001 683.001 c 1
 380.001 677.001 380.001 674.001 381.001 662.001 c 0
 382.001 651.001 383.001 647.001 386.001 646.001 c 0
 388.001 645.001 389.001 642.001 389.001 640.001 c 0
 389.001 637.001 387.001 632.001 385.001 629.001 c 0
 382.001 623.001 382.001 623.001 359.001 623.001 c 2
 330.001 623.001 l 1
 327.001 622.001 322.001 621.001 320.001 621.001 c 0
 318.829 620.708 317.743 620.587 316.743 620.587 c 0
 314.329 620.587 312.415 621.294 311.001 622.001 c 1
 308.001 625.001 307.001 627.001 307.001 657.001 c 0
 307.001 675.001 307.001 691.001 308.001 694.001 c 0
 309.001 696.001 312.001 699.001 313.001 700.001 c 1
 315.001 701.001 324.001 702.001 333.001 703.001 c 0
 344.001 703.001 350.001 704.001 354.001 706.001 c 0
EndSplineSet
Validated: 33
EndChar
StartChar: uni00EC
Encoding: 236 236 171
Width: 191
GlyphClass: 2
Flags: W
LayerCount: 2
Fore
SplineSet
98 477 m 1
 101 478 104.999 478.997 106.999 478.997 c 0
 107.999 478.997 111.999 477.997 115.999 475.997 c 0
 119.999 473.997 125.999 471.997 128.999 471.997 c 0
 131.999 471.997 133.999 470.997 133.999 466.997 c 1
 134.999 464.997 135.999 455.997 135.999 447.997 c 0
 135.999 438.997 134.999 432.997 133.999 431.997 c 1
 132.999 429.997 131.999 424.997 131.999 418.997 c 0
 131.999 411.997 132.999 405.997 134.999 401.997 c 0
 136.999 397.997 138.999 389.997 138.999 381.997 c 0
 139.999 369.997 139.999 366.997 137.999 364.997 c 1
 135.999 363.997 133.999 360.997 132.999 359.997 c 1
 131.999 356.997 131.999 353.997 132.999 350.997 c 0
 133.999 347.997 135.999 338.997 137.999 330.997 c 0
 139.392 324.5 140.138 321.018 140.138 318.452 c 0
 140.138 315.489 139.143 313.748 136.999 309.997 c 0
 134.999 304.997 132.999 297.997 131.999 287.997 c 0
 130.999 275.997 131.999 272.997 134.999 267.997 c 0
 138.999 262.997 138.999 258.997 138.999 235.997 c 0
 139.249 229.747 139.374 224.935 139.374 221.122 c 0
 139.374 209.685 138.249 207.247 135.999 201.997 c 1
 131.999 196.997 131.999 193.997 132.999 187.997 c 0
 132.999 184.997 133.999 177.997 133.999 173.997 c 0
 133.999 168.997 134.999 163.997 136.999 160.997 c 0
 139.999 156.997 140.999 154.997 139.999 150.997 c 1
 138.999 148.997 138.999 128.997 138.999 108.997 c 0
 138.999 87.9971 138.999 69.9971 139.999 67.9971 c 1
 139.999 65.9971 139.999 58.9971 138.999 50.9971 c 0
 137.999 40.9971 137.999 34.9971 138.999 32.9971 c 0
 139.999 30.9971 139.999 25.9971 138.999 19.9971 c 2
 138.999 13.9971 136.999 8.99707 135.999 7.99707 c 1
 133.999 6.99707 130.999 3.99707 127.999 0.99707 c 0
 125.749 -1.25293 123.499 -2.37793 122.093 -2.37793 c 0
 121.624 -2.37793 121.249 -2.25293 120.999 -2.00293 c 1
 119.999 -2.00293 107.999 -1.00293 95.999 -1.00293 c 0
 80.999 -1.00293 70.999 -0.00292969 69.999 0.99707 c 0
 67.999 2.99707 67.999 8.99707 67.999 26.9971 c 0
 67.999 45.9971 67.999 51.9971 65.999 54.9971 c 0
 62.999 58.9971 62.999 60.9971 64.999 68.9971 c 0
 65.999 73.9971 67.999 87.9971 67.999 100.997 c 0
 68.999 123.997 68.999 123.997 63.999 126.997 c 0
 61.332 128.997 60.4434 129.664 60.4434 136.108 c 0
 60.4434 139.331 60.666 143.998 60.999 150.998 c 0
 61.999 164.998 62.999 173.998 64.999 178.998 c 0
 67.666 184.331 68.5547 187.442 68.5547 195.442 c 0
 68.5547 199.442 68.332 204.665 67.999 211.998 c 0
 67.6494 219.686 67.4004 225.094 67.4004 229.206 c 0
 67.4004 236.328 68.0967 239.561 69.999 243.998 c 0
 73.999 250.998 73.999 251.998 70.999 256.998 c 0
 68.999 259.998 68.999 263.998 68.999 266.998 c 1
 69.999 269.998 70.999 275.998 71.999 279.998 c 1
 71.999 285.998 70.999 288.998 67.999 294.998 c 0
 65.999 298.998 63.999 301.998 62.999 301.998 c 0
 61.999 301.998 61.999 302.998 61.999 304.998 c 0
 61.999 305.998 62.999 308.998 64.999 310.998 c 0
 66.999 313.998 67.999 318.998 67.999 359.998 c 0
 67.999 385.998 66.999 419.998 66.999 435.998 c 0
 66.585 447.182 66.3428 454.248 66.3428 458.902 c 0
 66.3428 465.484 66.8281 467.242 68 469 c 0
 70 471 76 473 81 474 c 0
 86 475 94 477 98 477 c 1
-3.00098 701.997 m 0
 -1.58691 702.704 3.32812 703.385 9.26758 703.385 c 0
 11.7275 703.385 14.3633 703.291 16.999 702.998 c 0
 24.999 702.998 34.999 701.998 36.999 701.998 c 0
 38.999 701.998 47.999 701.998 56.999 702.998 c 0
 60.2559 703.215 62.8057 703.385 64.8936 703.385 c 0
 72.4229 703.385 73.9531 701.175 80.999 690.997 c 0
 85.999 682.997 89.999 675.997 89.999 674.997 c 0
 89.999 673.997 92.999 669.997 97.999 664.997 c 0
 101.999 659.997 104.999 654.997 104.999 652.997 c 0
 104.999 650.997 106.999 646.997 109.999 643.997 c 1
 111.999 639.997 114.999 632.997 115.999 627.997 c 0
 116.999 620.997 119.999 615.997 122.999 611.997 c 0
 125.999 608.997 130.999 600.997 133.999 595.997 c 1
 135.999 589.997 137.999 584.997 137.999 583.997 c 1
 136.999 582.997 133.999 581.997 130.999 579.997 c 1
 127.999 578.997 122.999 577.997 120.999 577.997 c 0
 117.999 577.997 114.999 579.997 112.999 581.997 c 0
 109.999 583.997 104.999 587.997 100.999 589.997 c 0
 96.999 591.997 88.999 598.997 82.999 604.997 c 0
 76.999 610.997 69.999 617.997 66.999 619.997 c 1
 64.999 622.997 56.999 629.997 50.999 635.997 c 0
 44.999 641.997 39.999 648.997 39.999 649.997 c 0
 39.999 651.997 37.999 655.997 34.999 658.997 c 0
 31.999 661.997 29.999 665.997 29.999 667.997 c 0
 29.999 668.997 28.999 671.997 26.999 672.997 c 1
 24.999 674.997 18.999 677.997 13.999 680.997 c 0
 7.99902 683.997 0.999023 688.997 -2.00098 691.997 c 0
 -5.00098 694.997 -7.00098 698.997 -7.00098 698.997 c 1
 -7.00098 699.997 -5.00098 700.997 -3.00098 701.997 c 0
EndSplineSet
Validated: 33
EndChar
StartChar: uni2022
Encoding: 8226 8226 203
Width: 462
GlyphClass: 2
Flags: W
LayerCount: 2
Fore
SplineSet
209 447 m 1
 214 449 220.001 449.999 241.001 449.999 c 0
 265.001 448.999 268.001 448.999 278.001 444.999 c 1
 283.001 441.999 289.001 439.999 291.001 439.999 c 0
 293.001 439.999 298.001 436.999 303.001 433.999 c 0
 307.001 430.999 314.001 426.999 317.001 425.999 c 0
 320.001 424.999 324.001 421.999 326.001 419.999 c 0
 329.001 416.999 332.001 413.999 334.001 413.999 c 1
 336.001 412.999 339.001 408.999 341.001 405.999 c 0
 343.001 402.999 347.001 396.999 352.001 392.999 c 0
 357.001 387.999 360.001 383.999 362.001 376.999 c 0
 364.001 370.999 368.001 363.999 374.001 356.999 c 0
 382.001 347.999 383.001 345.999 386.001 330.999 c 0
 388.001 321.999 390.001 310.999 390.001 306.999 c 1
 391.001 302.999 392.001 296.999 394.001 293.999 c 1
 395.001 290.999 397.001 281.999 398.001 272.999 c 0
 398.251 269.499 398.376 266.749 398.376 264.53 c 0
 398.376 257.874 397.251 255.999 395.001 252.999 c 0
 393.001 249.999 390.001 242.999 387.001 235.999 c 0
 384.001 229.999 380.001 220.999 378.001 215.999 c 0
 376.001 210.999 372.001 202.999 369.001 198.999 c 0
 366.001 193.999 363.001 188.999 363.001 186.999 c 0
 363.001 184.999 362.001 182.999 360.001 181.999 c 2
 359.001 179.999 356.001 178.999 354.001 177.999 c 1
 352.001 175.999 348.001 170.999 346.001 165.999 c 0
 343.001 156.999 341.001 155.999 334.001 153.999 c 0
 330.001 151.999 324.001 148.999 321.001 146.999 c 0
 317.001 144.999 313.001 140.999 310.001 136.999 c 0
 308.001 133.999 304.001 129.999 301.001 127.999 c 0
 299.001 126.999 293.001 125.999 287.001 124.999 c 1
 281.001 124.999 275.001 122.999 274.001 120.999 c 1
 272.001 119.999 267.001 118.999 260.001 118.999 c 0
 255.001 118.999 245.001 116.999 239.001 115.999 c 0
 233.501 114.499 230.501 113.749 227.876 113.749 c 0
 225.251 113.749 223.001 114.499 219.001 115.999 c 0
 214.001 116.999 206.001 118.999 201.001 118.999 c 0
 192.001 118.999 190.001 118.999 185.001 122.999 c 0
 182.001 124.999 179.001 126.999 178.001 126.999 c 0
 177.001 126.999 174.001 128.999 171.001 130.999 c 0
 169.001 131.999 162.001 135.999 155.001 138.999 c 0
 148.001 141.999 138.001 146.999 133.001 150.999 c 0
 128.001 153.999 123.001 158.999 122.001 160.999 c 0
 121.001 162.999 119.001 164.999 117.001 164.999 c 1
 115.001 165.999 110.001 168.999 106.001 172.999 c 2
 102.001 175.999 98.001 180.999 96.001 183.999 c 1
 95.001 186.999 94.001 189.999 94.001 191.999 c 0
 94.001 192.999 91.001 201.999 88.001 209.999 c 0
 84.001 218.999 80.001 228.999 77.001 232.999 c 0
 75.001 235.999 73.001 240.999 73.001 242.999 c 0
 73.001 244.999 72.001 249.999 69.001 252.999 c 1
 66.001 258.999 66.001 261.999 66.001 276.999 c 0
 66.001 286.999 67.001 294.999 67.001 295.999 c 0
 67.001 296.999 67.001 300.999 66.001 304.999 c 0
 65.1016 307.696 64.6064 309.585 64.6064 311.211 c 0
 64.6064 313.202 65.3486 314.798 67 317 c 0
 69 319 72 325 74 330 c 0
 76 334 77 342 76 346 c 1
 76 353 77 355 79 356 c 0
 81 357 86 361 89 365 c 2
 93 369 98 376 101 381 c 1
 103 386 107 392 108 394 c 1
 110 395 114 398 116 399 c 0
 118 400 120 402 120 406 c 0
 120 408 121 412 123 413 c 1
 125 415 132 418 138 421 c 0
 144 424 149 427 149 429 c 0
 149 430 150 431 152 432 c 1
 154 432 158 433 161 434 c 0
 164 435 171 437 175 439 c 0
 180 442 186 444 193 444 c 0
 199 444 206 445 209 447 c 1
EndSplineSet
Validated: 33
EndChar
StartChar: uni203A
Encoding: 8250 8250 206
Width: 278
GlyphClass: 2
Flags: W
LayerCount: 2
Fore
SplineSet
77 377 m 0
 79.1211 377.707 82.2422 378.414 84.9502 378.414 c 0
 86.0713 378.414 87.1211 378.293 88 378 c 1
 91 378 99 377 106 377 c 0
 116 376 119 374 123 370 c 0
 126 368 129 365 130 365 c 0
 131 365 132 363 133 361 c 0
 134 358 135 355 135 353 c 0
 135 351 138 347 141 343 c 0
 144 339 148 335 149 333 c 0
 150 330 151 325 151 321 c 0
 151 316 153 310 155 307 c 0
 157 303 161 299 163 298 c 0
 167 296 168.891 291.959 173 281 c 0
 176 273 181 262 185 256 c 0
 189 250 194 245 198 243 c 0
 201 242 204 239 204 237 c 0
 204 236 206 232 209 229 c 0
 213 225 214 223 213 219 c 0
 212 214 213 213 217 209 c 0
 220.876 205.899 222.349 204 222.349 199.575 c 0
 222.349 195.866 221.46 186.38 220 182 c 0
 219 179 218 176 218 174 c 0
 218 172 216 168 213 164 c 0
 211 161 209 158 209 157 c 1
 209 157 205 151 200 145 c 0
 195 139 192 133 192 132 c 0
 192 130 190 124 187 119 c 2
 185 114 181 107 178 104 c 1
 176 100 174 96 174 94 c 0
 174 93 173 89 171 86 c 2
 170 82 166 78 162 75 c 0
 159 72 154 67 152 62 c 1
 149 58 146 54 145 53 c 0
 143 51 142 49 142 47 c 0
 142 45 142 42 141 41 c 0
 140 40 137 36 135 32 c 0
 132 27 130 20 128 16 c 2
 127 12 125 8 124 7 c 0
 122 5 114 4 102 4 c 0
 96.5137 3.72559 92.5332 3.52637 89.499 3.52637 c 0
 81.4736 3.52637 80.0801 4.91992 75 10 c 0
 71 14 69 18 69 20 c 0
 69 23 71 27 74 30 c 0
 77 34 79 38 79 40 c 0
 79 42 80 44 81 45 c 0
 82 46 85 51 88 56 c 1
 90 61 95 71 99 77 c 0
 102 83 106 89 106 92 c 1
 107 94 110 98 113 101 c 0
 116 104 120 111 123 117 c 0
 126 123 128 128 128 130 c 0
 128 131 130 136 131 140 c 0
 133 145 136 150 137 153 c 1
 141 159 l 1
 141 160 143 163 145 165 c 0
 149 169 149 171 149 185 c 0
 149 199 149 202 144 212 c 0
 141 219 137 226 134 228 c 1
 132 231 127 239 124 248 c 0
 121 256 116 265 115 268 c 2
 113 271 109 278 106 284 c 0
 103 290 100 296 100 298 c 0
 100 299 97 304 93 308 c 0
 89 312 86 316 86 318 c 0
 86 319 84 323 82 327 c 1
 79 330 77 335 77 338 c 0
 77 341 77 344 76 345 c 0
 75 346 72 351 70 355 c 0
 67 360 65 365 65 366 c 0
 65 367 67 370 69 372 c 1
 71 373 75 376 77 377 c 0
EndSplineSet
Validated: 1
EndChar
